<?xml version="1.0" encoding="utf-8"?>
<svg viewBox="0.0001 162.4906 398.9464 439.0478" xmlns="http://www.w3.org/2000/svg">
  <g id="svg_62" style="" transform="matrix(0.5811160206794739, 0, 0, 0.6060879826545715, -238.6244659423828, 151.01687622070312)">
    <path d="m995.97,41.99a44.13,72.65 0 0 0 -63.4,-1.87l-223.26,367.59l10.21,42.66l377.43,0l0,-213.38l-100.99,-194.99z" id="svg_60" style="fill: rgb(203, 203, 203);"/>
    <path d="m794.34,73.99a44.13,67.6 0 0 0 -63.4,-1.74l-139.26,222.03l10.21,161.69l233.43,0l186,-7.99l-226.99,-373.99z" id="svg_61" style="fill: rgb(203, 203, 203);"/>
  </g>
  <g id="svg_91" transform="matrix(0.6060879826545715, 0, 0, 0.6060879826545715, -253.4004669189453, 151.01687622070312)" style="">
    <polygon fill="#575a89" id="svg_93" points="998.0731811523438,161.4651336669922 998.0731811523438,190.55908203125 957.2379150390625,190.55908203125 957.2379150390625,507.85076904296875 1042.4600219726562,507.85076904296875 1042.4600219726562,202.63644409179688 1042.4600219726562,190.55908203125 1042.4600219726562,161.4651336669922 998.0731811523438,161.4651336669922 "/>
    <polygon fill="#575a89" id="svg_94" points="773.1814575195312,356.8900146484375 773.1814575195312,306.9363708496094 721.1013793945312,306.9363708496094 721.1013793945312,356.8900146484375 701.5716552734375,356.8900146484375 701.5716552734375,508.3995361328125 792.1195068359375,508.3995361328125 792.1195068359375,356.8900146484375 773.1814575195312,356.8900146484375 "/>
    <rect fill="#3f3d56" height="70.81" id="svg_95" width="70.43" x="711.63" y="438.13"/>
    <rect height="70.81" id="svg_96" opacity="0.1" width="11.24" x="711.63" y="438.13"/>
    <polygon fill="#3f3d56" id="svg_97" points="927.0550537109375,145.54539489746094 927.0550537109375,162.56272888183594 822.8941040039062,162.56272888183594 822.8941040039062,145.54539489746094 792.1195068359375,145.54539489746094 792.1195068359375,508.9483642578125 957.2379150390625,508.9483642578125 957.2379150390625,145.54539489746094 927.0550537109375,145.54539489746094 "/>
    <rect height="17.02" id="svg_98" opacity="0.1" width="23.08" x="927.05" y="145.55"/>
    <rect height="363.4" id="svg_99" opacity="0.1" width="23.08" x="792.12" y="145.55"/>
    <polygon fill="#3f3d56" id="svg_100" points="674.3478698730469,249.2965087890625 674.3478698730469,235.57275390625 658.9606018066406,235.57275390625 658.9606018066406,249.2965087890625 631.1443481445312,249.2965087890625 631.1443481445312,508.9483642578125 701.5716552734375,508.9483642578125 701.5716552734375,249.2965087890625 674.3478698730469,249.2965087890625 "/>
    <rect height="13.72" id="svg_101" opacity="0.1" width="8.29" x="658.96" y="235.57"/>
    <rect height="259.65" id="svg_102" opacity="0.1" width="8.29" x="631.14" y="249.3"/>
    <rect height="223.42" id="svg_103" opacity="0.1" width="23.08" x="927.05" y="285.53"/>
    <rect height="47.76" id="svg_104" opacity="0.1" width="21.31" x="680.27" y="249.3"/>
    <rect height="13.17" id="svg_105" width="33.14" x="817.57" y="191.66" style="fill: rgb(255, 255, 255);"/>
    <rect height="13.17" id="svg_106" width="33.14" x="887.99" y="327.25" style="fill: rgb(255, 255, 255);"/>
    <rect height="13.17" id="svg_107" width="33.14" x="817.57" y="422.21" style="fill: rgb(255, 255, 255);"/>
    <rect height="13.17" id="svg_108" width="33.14" x="650.08" y="308.58" style="fill: rgb(255, 255, 255);"/>
    <rect height="13.17" id="svg_109" width="33.14" x="730.57" y="445.82" style="fill: rgb(255, 255, 255);"/>
    <rect height="21.96" id="svg_110" opacity="0.1" width="56.81" x="718.73" y="368.42"/>
    <rect height="21.96" id="svg_111" opacity="0.1" width="56.81" x="967.3" y="215.81"/>
    <rect height="21.96" id="svg_112" opacity="0.1" width="56.81" x="967.3" y="262.47"/>
    <rect height="21.96" id="svg_113" opacity="0.1" width="56.81" x="967.3" y="309.13"/>
    <rect height="21.96" id="svg_114" opacity="0.1" width="56.81" x="967.3" y="355.79"/>
    <rect height="21.96" id="svg_115" opacity="0.1" width="56.81" x="967.3" y="402.45"/>
    <rect height="21.96" id="svg_116" opacity="0.1" width="56.81" x="967.3" y="449.11"/>
    <polygon fill="#3f3d56" id="svg_117" points="1061.98974609375,315.16986083984375 1061.98974609375,255.3348388671875 1020.56201171875,255.3348388671875 1020.56201171875,315.16986083984375 1005.766357421875,315.16986083984375 1005.766357421875,508.9483642578125 1076.1937255859375,508.9483642578125 1076.1937255859375,315.16986083984375 1061.98974609375,315.16986083984375 "/>
    <rect height="59.84" id="svg_118" opacity="0.1" width="13.02" x="1020.56" y="255.34"/>
    <rect height="193.78" id="svg_119" opacity="0.1" width="13.02" x="1005.77" y="315.17"/>
    <rect height="19.21" id="svg_120" opacity="0.1" width="34.92" x="1041.28" y="412.33"/>
    <rect height="13.17" id="svg_121" width="33.14" x="1042.46" y="383.79" style="fill: rgb(255, 255, 255);"/>
    <path d="m666.23,397.62c0,48.91 -31.35,65.98 -70.01,65.98s-70.01,-17.08 -70.01,-65.98s70.01,-111.12 70.01,-111.12s70.01,62.22 70.01,111.12z" fill="#0c66e1" id="svg_122"/>
    <polygon fill="#3f3d56" id="svg_123" points="593.6710205078125,456.11968994140625 594.3877868652344,415.189453125 624.2284240722656,364.552978515625 594.5007934570312,408.7685546875 594.8228454589844,390.3646240234375 615.3882141113281,353.7297058105469 594.9084167480469,385.4942932128906 594.9084167480469,385.4950256347656 595.4879760742188,352.394775390625 617.5102844238281,323.2281799316406 595.5791931152344,347.1897888183594 595.9416198730469,286.4952087402344 593.66455078125,366.8432922363281 593.8518371582031,363.5287780761719 571.4614562988281,331.7394714355469 593.4926147460938,369.8912658691406 591.4068603515625,406.8586120605469 591.3446960449219,405.8778076171875 565.53271484375,372.42413330078125 591.2664184570312,409.34429931640625 591.0057067871094,413.966796875 590.9588928222656,414.03643798828125 590.9798583984375,414.416015625 585.6871948242188,508.204833984375 592.7589111328125,508.204833984375 593.6072387695312,459.7613525390625 619.2780151367188,422.93255615234375 593.6710205078125,456.11968994140625 "/>
    <rect height="18.382" id="rect-1" width="509.262" x="567.062" y="507.138" style="fill: rgb(218, 218, 218);"/>
    <rect fill="#3f3d56" height="41.362" id="rect-2" width="509.262" x="566.918" y="524.235" style=""/>
    <rect height="4.898" id="rect-3" width="26.706" x="582.755" y="542.068" style="fill: rgb(255, 255, 255);"/>
    <rect height="4.898" id="rect-4" width="26.706" x="633.972" y="541.77" style="fill: rgb(255, 255, 255);"/>
    <rect height="4.898" id="rect-5" width="26.706" x="678.161" y="541.677" style="fill: rgb(255, 255, 255);"/>
    <rect height="4.898" id="rect-6" width="26.706" x="728.378" y="542.379" style="fill: rgb(255, 255, 255);" transform="matrix(1, 0, 0, 1, 1, -1)"/>
    <rect height="4.898" id="rect-7" width="26.706" x="777.161" y="541.677" style="fill: rgb(255, 255, 255);"/>
    <rect height="4.898" id="rect-8" width="26.706" x="828.378" y="541.379" style="fill: rgb(255, 255, 255);"/>
    <rect height="4.898" id="rect-9" width="26.706" x="954.161" y="541.677" style="fill: rgb(255, 255, 255);"/>
    <rect height="4.898" id="rect-10" width="26.706" x="1004.378" y="542.379" style="fill: rgb(255, 255, 255);" transform="matrix(1, 0, 0, 1, 1, -1)"/>
    <rect height="4.898" id="rect-11" width="26.706" x="1049.363" y="542.447" style="fill: rgb(255, 255, 255);" transform="matrix(1, 0, 0, 1, 0, -1)"/>
  </g>
  <g id="svg_126" transform="matrix(0.6060879826545715, 0, 0, 0.6060879826545715, -253.4004669189453, 151.01687622070312)" style="">
    <path d="M 750.52 687.18 L 688.851 701.198 L 627.182 715.215 L 565.513 729.233 L 503.843 743.25 L 482.406 743.269 L 460.968 743.288 L 439.53 743.308 L 418.092 743.327 C 418.092 730.199 418.092 718.043 418.092 708.044 C 418.092 698.045 418.092 690.203 418.092 685.701 C 418.092 681.2 427.614 681.922 440.212 683.562 C 452.81 685.203 468.484 687.763 480.79 686.936 C 493.096 686.11 512.78 682.131 531.497 679.12 C 550.214 676.11 567.963 674.068 576.399 677.115 C 584.835 680.163 611.732 690.401 647.163 683.456 C 682.594 676.511 720.355 685.88 750.52 687.19 L 750.52 687.188 L 750.52 687.185 L 750.52 687.183 L 750.52 687.18 Z" fill="#7fbfff" id="svg_127"/>
    <path d="M 1076.133 716.462 L 1076.133 742.919 L 782.46 740.13 L 707.21 696.71 C 956.69 635.75 860.643 641 1076.133 699.34 L 1076.133 716.462 Z" fill="#f2f2f2" id="svg_128" opacity="0.8"/>
    <path d="M 1013.42 742.919 C 988.151 743.565 503.529 743.25 503.529 743.25 C 856.799 665.9 632.12 675.789 1013.42 742.919 Z" fill="#e6e6e6" id="svg_129"/>
  </g>
  <g id="svg_90" transform="matrix(0.6060879826545715, 0, 0, 0.6060879826545715, -253.4004669189453, 151.01687622070312)" style="">
    <path d="m908.15,522.65l-54.56,30.71c-6.3,8.26 113.47,8.77 112.48,0.03l-52.91,-30.71c-1.51,-0.87 -3.48,-0.89 -5,-0.03z" fill="#0c66e1" id="svg_89"/>
    <path d="m908.15,522.65l-54.56,30.71c-6.3,8.26 113.47,8.77 112.48,0.03l-52.91,-30.71c-1.51,-0.87 -3.48,-0.89 -5,-0.03z" id="svg_88" opacity="0.2"/>
    <rect fill="#3f3d56" height="112.54" id="svg_86" width="4.52" x="906.69" y="546.33"/>
    <path d="m908.96,563.9c-1.93,0 -3.74,-0.76 -5.11,-2.15l-11.4,-11.56l0.93,-0.96l11.4,11.56c1.13,1.15 2.63,1.78 4.23,1.76c1.6,-0.01 3.09,-0.67 4.2,-1.84l10.89,-11.47l0.95,0.94l-10.89,11.47c-1.36,1.43 -3.18,2.23 -5.14,2.25c-0.02,0 -0.05,0 -0.07,0l0,0z" fill="#3f3d56" id="svg_85"/>
    <path d="m910.54,555.07c-5.61,0 -11.26,-0.02 -16.75,-0.06c-11.62,-0.08 -21.55,-0.25 -28.7,-0.48c-12.19,-0.39 -12.32,-0.84 -12.38,-1.03c-0.01,-0.04 -0.02,-0.13 0.1,-0.21l54.42,-36.56c1.31,-0.88 2.99,-0.87 4.29,0.03l55.01,36.56c0.11,0.08 0.11,0.17 0.09,0.21c-0.07,0.23 -0.28,0.91 -24.43,1.31c-9.19,0.15 -20.33,0.23 -31.65,0.23z" fill="#0c66e1" id="svg_84"/>
    <g id="svg_79">
      <path d="m921.01,609.32l-6.89,0.01c-0.77,1.75 0.28,3.81 1.63,5.15s3.04,2.37 4.04,4c2.21,3.62 0.13,8.38 0.86,12.58c0.98,5.66 6.79,9.22 8.55,14.67c1,3.09 0.55,6.63 -1.2,9.34c-0.32,0.5 -0.69,1 -0.81,1.59c-0.15,0.8 0.26,1.68 0.97,2.06s1.65,0.23 2.21,-0.36c-0.55,0.63 -0.37,1.7 0.24,2.27s1.53,0.69 2.33,0.51c2.62,-0.57 3.94,-3.65 4.04,-6.39c0.11,-2.73 -0.57,-5.5 -0.04,-8.18c0.33,3.85 4.6,6.29 4.93,10.14c0.06,0.71 -3.8,2.86 -3.44,3.47c0.91,1.55 3.07,1.56 4.83,1.37c3.03,-0.32 6.4,-0.82 8.3,-3.26c1.28,-1.64 1.61,-3.85 1.66,-5.95c0.11,-5.48 -1.49,-10.98 -4.5,-15.51c-4.02,-6.03 -10.4,-10.31 -13.55,-16.85c-1.07,-2.22 -1.73,-4.64 -2.77,-6.88c-1.04,-2.24 -2.58,-4.38 -4.79,-5.38c-2.22,-1.01 -5.21,-0.51 -6.49,1.6" fill="#3f3d56" id="svg_80"/>
      <path d="m942.4,657.47c-0.14,0 -0.27,-0.03 -0.4,-0.09c-0.1,-0.05 -0.14,-0.17 -0.1,-0.27s0.16,-0.14 0.26,-0.1c0.22,0.1 0.43,0.03 0.56,-0.04c0.28,-0.15 0.5,-0.47 0.55,-0.79c0.09,-0.61 -0.21,-1.24 -0.47,-1.78c-0.77,-1.61 -1.53,-3.32 -1.65,-5.14c-0.13,-2.05 0.7,-3.96 2.11,-4.86c1.05,-0.67 2.43,-0.85 3.9,-0.5c1.26,0.3 2.42,0.94 3.59,1.62c0.09,0.05 0.13,0.18 0.07,0.27c-0.05,0.1 -0.17,0.13 -0.27,0.08c-1.19,-0.69 -2.28,-1.28 -3.49,-1.57c-1.36,-0.33 -2.64,-0.17 -3.6,0.44c-1.29,0.83 -2.04,2.59 -1.92,4.49c0.11,1.74 0.85,3.42 1.61,4.99c0.28,0.58 0.62,1.29 0.51,2.02c-0.06,0.44 -0.36,0.87 -0.75,1.08c-0.17,0.09 -0.35,0.14 -0.52,0.14l0,0z" fill="#2f2e41" id="svg_81"/>
      <path d="m930.92,612.82c1.01,2.05 0.48,4.78 -1.23,6.27c-0.37,0.32 -0.78,0.59 -1.11,0.95s-0.57,0.85 -0.49,1.34c-1.12,-1.13 -2.26,-2.3 -2.94,-3.75c-0.68,-1.45 -0.81,-3.28 0.07,-4.61c0.42,-0.64 1.03,-1.11 1.51,-1.71c0.48,-0.59 0.82,-1.4 0.56,-2.12" fill="#2f2e41" id="svg_82"/>
      <path d="m951.04,652.23c-0.53,1.67 0.35,3.59 1.79,4.55s3.31,1.05 4.98,0.62c3.22,-0.84 5.87,-3.66 6.56,-6.99c0.28,-1.38 0.26,-2.87 0.91,-4.12c0.4,-0.79 1.07,-1.5 1.09,-2.39c0.02,-0.72 -0.44,-1.41 -1.07,-1.74s-1.39,-0.35 -2.06,-0.13c-1.61,0.52 -2.59,2.18 -3.1,3.82c-0.51,1.64 -0.7,3.39 -1.44,4.94c-0.74,1.54 -2.28,2.89 -3.95,2.66c-1.44,-0.2 -2.67,-1.53 -4.11,-1.35" fill="#3f3d56" id="svg_83"/>
    </g>
    <g id="svg_63">
      <path d="m870.38,631.38c-1.95,0.31 -3.38,1.58 -3.19,2.85c0.19,1.27 1.93,2.05 3.88,1.74c0.78,-0.11 1.53,-0.41 2.17,-0.88l14.12,-2.17l0.53,-4.98l-15.19,3.61c-0.75,-0.25 -1.55,-0.31 -2.33,-0.17l0,0z" fill="#ffb6b6" id="svg_64"/>
      <polygon fill="#e6e6e6" id="svg_65" points="905.96240234375,620.9827270507812 902.7610473632812,627.9234008789062 886.6669921875,633.4586791992188 886.6669921875,633.4586791992188 887.451171875,627.8175659179688 887.451171875,627.8175659179688 902.3028564453125,620.6470947265625 905.96240234375,620.9827270507812 "/>
      <polygon fill="#ffb6b6" id="svg_66" points="876.279052734375,647.3364868164062 873.40478515625,654.76416015625 869.6851806640625,652.173095703125 871.8831176757812,644.3999633789062 876.279052734375,647.3364868164062 "/>
      <polygon fill="#ffb6b6" id="svg_67" points="864.27490234375,644.5726928710938 856.6666259765625,652.0004272460938 859.7099609375,655.2823486328125 867.4873046875,649.0637817382812 864.27490234375,644.5726928710938 "/>
      <polygon fill="#ffb6b6" id="svg_68" points="907.3883056640625,620.3894653320312 907.3037109375,619.7848510742188 905.3594970703125,615.8982543945312 898.9347534179688,617.6256103515625 900.1182250976562,622.9805297851562 907.3883056640625,620.3894653320312 "/>
      <path d="m904.68,646.3l0.2,2.59s0.82,10.88 -5.78,11.74s-9.47,1.73 -13.36,-5.01l-6.09,-11.06l-3.56,4.32l-4.73,-3.8s3.38,-13.47 6.09,-13.99c0.34,-0.07 0.68,-0.1 1.01,-0.1c2.24,-0.05 4.35,1.07 5.69,2.9l7.67,10.5l2.79,-1.3l10.06,3.2l0,0z" fill="#2f2e41" id="svg_69"/>
      <path d="m868.16,654.42l1.71,-2.58l3.92,1.9s1.3,4.65 -0.22,5.17s-5.75,-0.17 -5.75,-0.17c0,0 -7.78,1.73 -7.95,0.17s3.55,-1.9 3.55,-1.9l4.73,-2.59l0,0l0,0z" fill="#ffb6b6" id="svg_70"/>
      <path d="m884.73,652.35l-11.75,-7.56l-6,5.49l-4.06,-4.84s7.44,-11.23 9.64,-11.74c2.2,-0.52 5.75,-0.86 5.75,-0.86l10.82,10.19l-4.4,9.33l0,0l0,0z" fill="#2f2e41" id="svg_71"/>
      <path d="m857.49,651.34l2.48,3.62l-0.1,1.12s-1.01,4.49 -3.38,2.97s-2.54,-1.86 -2.54,-1.86c0,0 -6.76,1.55 -7.44,-1.21s1.18,-2.25 1.18,-2.25l1.69,1.04l6.58,-2.25l1.51,-1.18l0,0z" fill="#ffb6b6" id="svg_72"/>
      <circle cx="900.96" cy="614" fill="#ffb6b6" id="svg_73" r="5.41"/>
      <path d="m899.69,621.86l7.78,-2.42s3.04,7.26 2.54,10.54c-0.51,3.28 -5.13,18.92 -5.13,18.92l-10.26,-5.79s-0.17,-3.46 -0.68,-5.01s-2.11,-6.31 1.44,-10.28c3.55,-3.97 4.31,-5.96 4.31,-5.96l0,0z" fill="#e6e6e6" id="svg_74"/>
      <g id="svg_75">
        <path d="m882.58,658.13c-1.27,1.55 -1.51,3.47 -0.54,4.29c0.96,0.82 2.77,0.23 4.04,-1.32c0.51,-0.61 0.88,-1.34 1.06,-2.13l11.98,-13.73l-3.71,-2.05l-10.96,13.48c-0.72,0.32 -1.36,0.82 -1.86,1.45l0,0l0,0z" fill="#ffb6b6" id="svg_76"/>
        <polygon fill="#e6e6e6" id="svg_77" points="905.6611328125,625.3427124023438 907.4993896484375,632.7820434570312 898.502197265625,647.496337890625 899.314208984375,647.3069458007812 894.3971557617188,643.6160278320312 895.6034545898438,642.6287841796875 902.624755859375,627.4566040039062 905.6611328125,625.3427124023438 "/>
      </g>
      <path d="m895.98,613.05c1.39,0 1.47,0.01 1.69,0c1.72,-0.05 2.17,-0.74 3.04,-0.69c1.56,0.08 -0.5,8.06 -1.35,11.75c-0.84,3.61 1.99,6.86 2.2,7.08c2.87,3.19 7.92,3.78 8.79,2.42c0.7,-1.1 -1.79,-2.78 -1.19,-5.18c0.59,-2.35 3.3,-2.1 4.06,-4.32c0.79,-2.32 -1.87,-3.49 -3.55,-9.16c-0.96,-3.25 -0.79,-3.86 -1.69,-5.87c-2.4,-5.38 -14.17,-3.09 -12.85,1.9c0.26,0.97 -0.43,2.08 0.84,2.07l0,0z" fill="#2f2e41" id="svg_78"/>
    </g>
  </g>
</svg>