<?xml version="1.0" encoding="utf-8"?>
<svg viewBox="-0.0009 342.5676 309.4029 289.3791" xmlns="http://www.w3.org/2000/svg">
  <path d="M 286.012 563.951 L 299.892 566.12 C 304.591 560.431 307.829 553.682 309.327 546.458 C 299.178 554.766 283.744 550.351 271.437 554.886 C 263.684 557.811 257.682 564.104 255.126 571.987 L 248.342 579.285 C 260.769 584.204 274.727 583.436 286.538 577.182 C 289.795 575.416 292.817 573.247 295.532 570.726 C 290.675 567.667 286.012 563.951 286.012 563.951 Z" fill="#f2f2f2" style="" transform="matrix(0.9999999999999999, 0, 0, 0.9999999999999999, 0, 5.684341886080802e-14)"/>
  <path d="M 281.085 541.753 L 294.476 537.504 C 296.144 530.317 296.033 522.832 294.152 515.697 C 288.773 527.66 272.988 530.591 263.997 540.14 C 258.361 546.215 255.796 554.525 257.024 562.719 L 254.208 572.277 C 267.523 571.138 279.673 564.225 287.456 553.36 C 289.584 550.327 291.321 547.037 292.627 543.57 C 286.916 542.999 281.085 541.753 281.085 541.753 Z" fill="#f2f2f2" style="" transform="matrix(0.9999999999999999, 0, 0, 0.9999999999999999, 0, 5.684341886080802e-14)"/>
  <path d="M 309.402 583.706 C 309.402 584.007 309.158 584.252 308.857 584.251 L 0.545 584.251 C 0.126 584.251 -0.137 583.797 0.073 583.433 C 0.17 583.265 0.35 583.161 0.545 583.161 L 308.857 583.161 C 309.158 583.16 309.402 583.405 309.402 583.706 Z" fill="#ccc" style="" transform="matrix(0.9999999999999999, 0, 0, 0.9999999999999999, 0, 5.684341886080802e-14)"/>
  <circle cx="127.758" cy="462.022" r="98.453" fill="#e6e6e6" style="" transform="matrix(0.9999999999999999, 0, 0, 0.9999999999999999, 0, 5.684341886080802e-14)"/>
  <path d="M 212.473 462.022 C 212.494 488.828 199.809 514.056 178.28 530.027 C 177.57 530.559 176.847 531.076 176.119 531.58 C 147.045 551.79 108.471 551.79 79.398 531.58 C 78.669 531.076 77.946 530.559 77.236 530.027 C 31.645 496.151 31.645 427.892 77.236 394.016 C 77.946 393.485 78.669 392.968 79.398 392.464 C 108.471 372.255 147.045 372.255 176.119 392.464 C 176.847 392.968 177.57 393.485 178.28 394.016 C 199.809 409.988 212.494 435.217 212.473 462.022 Z" fill="#fff" style="" transform="matrix(0.9999999999999999, 0, 0, 0.9999999999999999, 0, 5.684341886080802e-14)"/>
  <circle cx="127.758" cy="462.022" r="77.388" fill="#6c63ff" style="" transform="matrix(0.9999999999999999, 0, 0, 0.9999999999999999, 0, 5.684341886080802e-14)"/>
  <path d="M 127.96 384.85 C 126.787 384.85 125.621 384.881 124.46 384.932 C 183.804 390.147 215.248 457.647 181.06 506.432 C 167.284 526.091 145.164 538.243 121.184 539.328 C 123.418 539.522 125.677 539.626 127.96 539.626 C 187.534 539.626 224.767 475.137 194.98 423.544 C 181.156 399.6 155.609 384.85 127.96 384.85 Z" opacity="0.2" style="" transform="matrix(0.9999999999999999, 0, 0, 0.9999999999999999, 0, 5.684341886080802e-14)"/>
  <path d="M 127.987 379.139 C 126.598 379.141 125.471 380.268 125.468 381.657 L 125.468 392.648 C 125.468 394.586 127.568 395.798 129.246 394.829 C 130.026 394.379 130.505 393.547 130.505 392.648 L 130.505 381.657 C 130.504 380.268 129.377 379.141 127.987 379.139 Z" fill="#fff" style="" transform="matrix(0.9999999999999999, 0, 0, 0.9999999999999999, 0, 5.684341886080802e-14)"/>
  <path d="M 178.28 394.016 C 177.57 393.485 176.847 392.968 176.119 392.464 C 175.231 392.406 174.377 392.823 173.875 393.559 L 167.689 402.639 C 166.598 404.241 167.65 406.424 169.583 406.567 C 170.48 406.634 171.345 406.217 171.851 405.473 L 178.038 396.393 C 178.516 395.693 178.607 394.799 178.28 394.016 Z" fill="#fff" style="" transform="matrix(0.9999999999999999, 0, 0, 0.9999999999999999, 0, 5.684341886080802e-14)"/>
  <path d="M 206.388 435.421 C 205.864 434.133 204.396 433.514 203.109 434.038 L 192.925 438.173 C 191.13 438.905 190.799 441.306 192.33 442.495 C 193.039 443.046 193.988 443.177 194.82 442.84 L 205.005 438.705 C 206.291 438.178 206.909 436.71 206.388 435.421 Z" fill="#fff" style="" transform="matrix(0.9999999999999999, 0, 0, 0.9999999999999999, 0, 5.684341886080802e-14)"/>
  <path d="M 87.827 402.639 L 81.641 393.559 C 81.14 392.823 80.286 392.406 79.398 392.464 C 78.669 392.968 77.946 393.485 77.236 394.016 C 76.909 394.799 77.001 395.693 77.479 396.393 L 83.666 405.473 C 84.756 407.075 87.172 406.896 88.014 405.15 C 88.406 404.34 88.334 403.383 87.827 402.639 Z" fill="#fff" style="" transform="matrix(0.9999999999999999, 0, 0, 0.9999999999999999, 0, 5.684341886080802e-14)"/>
  <path d="M 62.591 438.173 L 52.408 434.038 C 50.611 433.31 48.699 434.798 48.966 436.718 C 49.09 437.609 49.679 438.366 50.511 438.705 L 60.696 442.84 C 62.493 443.567 64.404 442.078 64.136 440.158 C 64.012 439.268 63.423 438.513 62.591 438.173 Z" fill="#fff" style="" transform="matrix(0.9999999999999999, 0, 0, 0.9999999999999999, 0, 5.684341886080802e-14)"/>
  <path d="M 127.987 528.878 C 126.598 528.881 125.471 530.007 125.468 531.397 L 125.468 542.387 C 125.468 544.326 127.568 545.538 129.246 544.568 C 130.026 544.118 130.505 543.287 130.505 542.387 L 130.505 531.397 C 130.504 530.007 129.377 528.881 127.987 528.878 Z" fill="#fff" style="" transform="matrix(0.9999999999999999, 0, 0, 0.9999999999999999, 0, 5.684341886080802e-14)"/>
  <path d="M 178.038 527.651 L 171.851 518.57 C 170.76 516.968 168.344 517.148 167.502 518.894 C 167.111 519.705 167.182 520.661 167.689 521.405 L 173.875 530.486 C 174.377 531.222 175.231 531.638 176.119 531.58 C 176.847 531.076 177.57 530.559 178.28 530.027 C 178.607 529.245 178.516 528.351 178.038 527.651 Z" fill="#fff" style="" transform="matrix(0.9999999999999999, 0, 0, 0.9999999999999999, 0, 5.684341886080802e-14)"/>
  <path d="M 205.005 485.339 L 194.82 481.204 C 193.024 480.475 191.112 481.963 191.378 483.884 C 191.502 484.774 192.092 485.532 192.925 485.87 L 203.109 490.005 C 204.906 490.733 206.817 489.243 206.548 487.323 C 206.424 486.434 205.837 485.678 205.005 485.339 Z" fill="#fff" style="" transform="matrix(0.9999999999999999, 0, 0, 0.9999999999999999, 0, 5.684341886080802e-14)"/>
  <path d="M 87.163 517.907 C 86.014 517.124 84.448 517.421 83.666 518.57 L 77.479 527.651 C 77.001 528.351 76.909 529.245 77.236 530.027 C 77.946 530.559 78.669 531.076 79.398 531.58 C 80.286 531.637 81.14 531.222 81.642 530.486 L 87.827 521.405 C 88.61 520.256 88.313 518.69 87.163 517.907 Z" fill="#fff" style="" transform="matrix(0.9999999999999999, 0, 0, 0.9999999999999999, 0, 5.684341886080802e-14)"/>
  <path d="M 63.975 482.587 C 63.451 481.3 61.983 480.681 60.696 481.204 L 50.511 485.339 C 48.716 486.07 48.386 488.471 49.917 489.66 C 50.626 490.212 51.575 490.343 52.408 490.005 L 62.591 485.87 C 63.879 485.343 64.497 483.876 63.975 482.587 Z" fill="#fff" style="" transform="matrix(0.9999999999999999, 0, 0, 0.9999999999999999, 0, 5.684341886080802e-14)"/>
  <path d="M 131.255 460.772 C 131.739 463.639 129.812 466.356 126.947 466.847 L 82.255 474.449 C 78.258 475.128 75.024 471.228 76.434 467.427 C 77.088 465.662 78.634 464.381 80.488 464.066 L 125.18 456.464 C 128.047 455.98 130.764 457.907 131.255 460.772 Z" fill="#3f3d56" style="" transform="matrix(0.9999999999999999, 0, 0, 0.9999999999999999, 0, 5.684341886080802e-14)"/>
  <path d="M 178.292 510.288 C 176.956 511.632 174.783 511.64 173.435 510.307 L 125.325 462.574 C 123.45 460.71 124.295 457.515 126.847 456.823 C 128.029 456.503 129.293 456.836 130.163 457.697 L 178.273 505.43 C 179.618 506.768 179.626 508.94 178.292 510.288 Z" fill="#3f3d56" style="" transform="matrix(0.9999999999999999, 0, 0, 0.9999999999999999, 0, 5.684341886080802e-14)"/>
  <circle cx="127.758" cy="462.022" r="5.953" fill="#ccc" style="" transform="matrix(0.9999999999999999, 0, 0, 0.9999999999999999, 0, 5.684341886080802e-14)"/>
  <path d="M 86.754 358.798 C 77.617 373.164 63.675 382.697 46.481 388.96 C 45.052 390.031 43.026 389.74 41.955 388.312 C 32.616 375.841 34.725 358.019 47.051 348.49 C 59.595 338.81 77.633 341.256 87.145 353.928 L 87.404 354.272 C 88.474 355.701 88.183 357.727 86.754 358.798 Z" fill="#e6e6e6" style="" transform="matrix(0.9999999999999999, 0, 0, 0.9999999999999999, 0, 5.684341886080802e-14)"/>
  <path d="M 168.371 353.928 C 177.884 341.256 195.921 338.81 208.465 348.49 C 220.791 358.019 222.901 375.841 213.561 388.312 C 212.491 389.74 210.465 390.031 209.036 388.96 C 193.074 382.85 179.985 372.274 168.762 358.798 C 167.333 357.727 167.042 355.701 168.112 354.272 L 168.371 353.928 Z" fill="#e6e6e6" style="" transform="matrix(0.9999999999999999, 0, 0, 0.9999999999999999, 0, 5.684341886080802e-14)"/>
  <path d="M 164.366 547.317 C 163.154 547.999 162.722 549.532 163.397 550.745 L 177.933 576.72 C 178.88 578.412 181.303 578.443 182.295 576.777 C 182.755 576.004 182.768 575.045 182.328 574.26 L 167.794 548.286 C 167.112 547.074 165.58 546.642 164.366 547.317 Z" fill="#e6e6e6" style="" transform="matrix(0.9999999999999999, 0, 0, 0.9999999999999999, 0, 5.684341886080802e-14)"/>
  <path d="M 87.723 548.286 L 73.188 574.26 C 72.242 575.952 73.481 578.034 75.42 578.008 C 76.319 577.995 77.144 577.504 77.583 576.72 L 92.119 550.745 C 93.066 549.054 91.827 546.971 89.888 546.997 C 88.988 547.009 88.162 547.5 87.723 548.286 Z" fill="#e6e6e6" style="" transform="matrix(0.9999999999999999, 0, 0, 0.9999999999999999, 0, 5.684341886080802e-14)"/>
  <circle cx="180.877" cy="575.586" r="7.784" fill="#e6e6e6" style="" transform="matrix(0.9999999999999999, 0, 0, 0.9999999999999999, 0, 5.684341886080802e-14)"/>
  <circle cx="186.372" cy="376.391" r="7.784" fill="#e6e6e6" style="" transform="matrix(0.9999999999999999, 0, 0, 0.9999999999999999, 0, 5.684341886080802e-14)"/>
  <circle cx="127.3" cy="358.074" r="7.784" fill="#e6e6e6" style="" transform="matrix(0.9999999999999999, 0, 0, 0.9999999999999999, 0, 5.684341886080802e-14)"/>
  <circle cx="70.976" cy="375.476" r="7.784" fill="#e6e6e6" style="" transform="matrix(0.9999999999999999, 0, 0, 0.9999999999999999, 0, 5.684341886080802e-14)"/>
  <circle cx="76.013" cy="575.586" r="7.784" fill="#e6e6e6" style="" transform="matrix(0.9999999999999999, 0, 0, 0.9999999999999999, 0, 5.684341886080802e-14)"/>
  <path d="M 174.77 505.909 C 176.077 507.956 178.916 508.323 180.701 506.677 L 192.916 513.223 L 192.26 506.05 L 180.761 500.934 C 178.573 498.856 174.955 499.926 174.25 502.861 C 173.998 503.905 174.186 505.007 174.77 505.909 Z" fill="#ffb7b7" style="" transform="matrix(0.9999999999999999, 0, 0, 0.9999999999999999, 0, 5.684341886080802e-14)"/>
  <path d="M 183.671 508.412 L 188.458 501.804 L 211.518 512.706 L 240.215 507.321 C 246.258 506.188 251.848 510.817 251.86 516.966 C 251.864 522.395 247.473 526.801 242.046 526.817 L 209.16 526.878 L 183.671 508.412 Z" fill="#3f3d56" style="" transform="matrix(0.9999999999999999, 0, 0, 0.9999999999999999, 0, 5.684341886080802e-14)"/>
  <polygon points="176.299 622.538 171.455 620.222 178.108 599.978 185.255 603.396 176.299 622.538" fill="#ffb7b7" style="" transform="matrix(0.9999999999999999, 0, 0, 0.9999999999999999, 0, 5.684341886080802e-14)"/>
  <path d="M 208.767 619.274 C 208.415 619.495 208.063 619.712 207.707 619.929 C 207 620.363 206.284 620.79 205.569 621.21 C 205.21 621.419 204.847 621.629 204.488 621.835 L 204.488 621.846 L 204.466 621.85 L 204.46 621.853 L 203.911 621.989 L 203.125 619.911 L 202.762 618.954 L 202.25 617.599 L 201.311 615.119 L 196.366 602.064 L 204.054 600.167 L 204.342 601.345 L 204.346 601.345 L 204.488 601.928 L 207.174 612.821 L 207.721 615.048 L 207.739 615.116 L 208.071 616.446 L 208.355 617.599 L 208.671 618.887 L 208.767 619.274 Z" fill="#ffb7b7" style="" transform="matrix(0.9999999999999999, 0, 0, 0.9999999999999999, 0, 5.684341886080802e-14)"/>
  <path d="M 254.628 573.425 C 254.14 574.208 253.642 574.987 253.14 575.759 C 252.208 577.196 251.251 578.612 250.269 580.007 C 250.269 580.01 250.266 580.01 250.262 580.014 C 249.689 580.544 249.057 581.006 248.377 581.391 C 248.348 581.411 248.316 581.426 248.288 581.444 C 247.787 581.72 247.254 581.934 246.701 582.081 C 246.502 582.13 246.299 582.18 246.1 582.23 C 245.381 582.4 244.67 582.547 243.962 582.674 C 242.703 582.898 241.457 583.059 240.219 583.159 C 240.12 583.169 240.02 583.176 239.921 583.183 C 234.83 583.556 229.874 582.956 224.702 581.97 C 222.147 581.487 219.54 580.907 216.84 580.305 C 215.958 580.106 215.072 579.911 214.176 579.715 C 214.108 579.7 214.036 579.683 213.966 579.668 C 212.685 579.387 211.382 579.11 210.049 578.836 C 208.369 578.491 206.637 578.157 204.837 577.84 L 204.965 580.376 C 205.072 582.328 205.478 584.251 206.168 586.079 C 206.936 588.328 207.545 590.106 206.26 593.809 L 205.641 595.602 C 206.292 597.407 206.058 599.412 205.012 601.021 L 204.887 601.209 L 210.049 614.268 L 210.383 615.115 L 207.74 615.115 L 204.488 615.118 L 198.978 615.118 L 191.027 599.167 L 190.647 598.405 L 190.647 598.367 L 191.468 567.712 C 191.479 567.441 191.5 567.167 191.536 566.897 C 191.829 564.415 193.107 562.154 195.082 560.622 C 196.976 559.142 199.384 558.484 201.767 558.793 L 204.488 559.145 L 210.049 559.864 L 213.966 560.373 L 214.044 560.384 L 225.595 561.877 L 226.423 558.498 L 226.577 558.441 L 231.44 556.659 L 248.26 550.494 L 248.302 550.479 L 249.408 550.074 L 249.54 550.287 C 249.579 550.352 249.618 550.416 249.654 550.479 C 250.748 552.44 251.638 554.507 252.311 556.648 C 253.444 560.146 254.376 563.705 255.104 567.31 C 255.136 567.466 255.164 567.609 255.189 567.737 L 255.2 567.776 C 255.211 567.836 255.218 567.875 255.221 567.886 C 255.609 569.501 255.338 571.472 254.628 573.425 Z" fill="#2f2e41" style="" transform="matrix(0.9999999999999999, 0, 0, 0.9999999999999999, 0, 5.684341886080802e-14)"/>
  <path d="M 255.338 562.128 C 255.284 561.901 255.216 561.669 255.145 561.445 C 254.58 559.747 253.922 558.082 253.174 556.457 C 252.334 554.607 251.328 552.626 250.129 550.481 C 249.549 549.442 248.926 548.362 248.258 547.24 C 247.923 546.678 247.576 546.106 247.216 545.522 C 247.201 545.495 247.186 545.468 247.169 545.443 L 247.066 545.273 L 230.425 547.5 L 224.227 548.329 L 223.857 551.416 L 223.768 552.181 C 223.765 552.181 223.765 552.181 223.768 552.185 L 223.519 554.27 L 223.519 554.273 L 223.189 557.027 L 223.16 557.023 L 213.964 555.831 L 204.487 554.604 L 199.396 553.946 C 197.013 553.635 194.605 554.294 192.712 555.775 C 190.736 557.306 189.458 559.567 189.165 562.05 C 189.133 562.299 189.112 562.555 189.101 562.808 L 184.298 574.188 C 181.424 580.994 179.594 588.195 178.87 595.547 L 175.348 606.806 L 175.85 606.852 L 183.313 607.546 L 185.284 607.731 L 189.624 601.395 C 190.118 600.673 190.588 599.929 191.025 599.168 C 191.746 597.925 192.386 596.637 192.943 595.312 L 202.331 572.971 C 203.057 573.096 203.776 573.214 204.487 573.327 C 207.778 573.86 210.936 574.296 213.964 574.632 C 223.807 575.732 232.331 575.817 239.919 574.885 C 242.05 574.626 244.11 574.284 246.098 573.86 C 246.828 573.708 247.548 573.542 248.258 573.366 C 248.425 573.327 248.589 573.288 248.752 573.245 C 251.74 572.474 254.131 570.24 255.102 567.311 C 255.673 565.641 255.754 563.843 255.338 562.128 Z" fill="#2f2e41" style="" transform="matrix(0.9999999999999999, 0, 0, 0.9999999999999999, 0, 5.684341886080802e-14)"/>
  <path d="M 177.845 619.233 L 172.605 616.72 L 171.783 616.325 L 170.471 619.548 L 161.307 621.566 C 159.672 621.924 159.038 623.919 160.165 625.155 C 160.383 625.394 160.652 625.581 160.951 625.703 L 169.905 629.357 L 172.747 626.799 L 172.05 630.232 L 175.423 631.609 L 179.119 619.844 L 177.845 619.233 Z" fill="#2f2e41" style="" transform="matrix(0.9999999999999999, 0, 0, 0.9999999999999999, 0, 5.684341886080802e-14)"/>
  <polygon points="210.049 614.268 210.383 615.115 210.049 615.115 210.049 614.268" fill="#2f2e41" style="" transform="matrix(0.9999999999999999, 0, 0, 0.9999999999999999, 0, 5.684341886080802e-14)"/>
  <path d="M 208.224 615.296 L 202.733 617.198 L 201.871 617.496 L 203.207 620.71 L 198.114 628.591 C 197.204 629.996 198.157 631.859 199.828 631.944 C 200.152 631.96 200.474 631.905 200.773 631.781 L 209.706 628.077 L 209.926 624.26 L 211.846 627.189 L 215.21 625.794 L 209.56 614.835 L 208.224 615.296 Z" fill="#2f2e41" style="" transform="matrix(0.9999999999999999, 0, 0, 0.9999999999999999, 0, 5.684341886080802e-14)"/>
  <path d="M 253.968 567.282 C 253.642 567.281 253.321 567.201 253.033 567.05 L 224.057 551.91 L 223.723 550.54 L 223.092 546.202 L 223.101 546.161 L 225.856 533.458 C 225.806 533.348 225.7 533.169 225.581 532.968 C 224.351 530.883 220.607 524.539 227.752 515.804 L 240.297 501.179 L 251.064 500.715 L 251.186 500.87 C 257.034 508.209 258.823 517.986 255.953 526.92 L 254.832 547.168 L 256.035 551.258 C 256.738 553.66 256.622 556.229 255.705 558.558 L 255.98 565.179 C 256.025 566.324 255.113 567.277 253.968 567.282 Z" fill="#3f3d56" style="" transform="matrix(0.9999999999999999, 0, 0, 0.9999999999999999, 0, 5.684341886080802e-14)"/>
  <path d="M 228.834 583.981 C 230.925 582.746 231.391 579.921 229.808 578.08 L 236.775 566.1 L 229.584 566.506 L 224.071 577.82 C 221.918 579.935 222.861 583.588 225.769 584.396 C 226.805 584.683 227.912 584.533 228.834 583.981 Z" fill="#ffb7b7" style="" transform="matrix(0.9999999999999999, 0, 0, 0.9999999999999999, 0, 5.684341886080802e-14)"/>
  <path d="M 231.645 575.172 L 225.208 570.159 L 236.906 547.491 L 232.522 518.625 C 231.599 512.546 236.421 507.12 242.566 507.322 C 247.991 507.507 252.242 512.048 252.07 517.472 L 250.986 550.341 L 231.645 575.172 Z" fill="#3f3d56" style="" transform="matrix(0.9999999999999999, 0, 0, 0.9999999999999999, 0, 5.684341886080802e-14)"/>
  <path id="f4e08e8b-ef08-4d70-8ad3-b81af8a71ff9-412" data-name="a1ca5f83-7fa1-45b1-9d3b-bf096f25c0e5" d="M 233.391 495.101 L 233.391 484.447 C 233.384 473.457 245.276 466.58 254.797 472.07 C 259.217 474.617 261.941 479.328 261.943 484.429 L 261.943 484.447 C 264.46 489.69 262.886 492.183 261.943 495.101 C 261.942 496.16 261.084 497.017 260.027 497.018 L 235.309 497.018 C 234.25 497.017 233.393 496.16 233.391 495.101 Z" fill="#2f2e41" style="" transform="matrix(0.9999999999999999, 0, 0, 0.9999999999999999, 0, 5.684341886080802e-14)"/>
  <circle cx="242.987" cy="485.64" r="10.686" fill="#ffb7b7" style="" transform="matrix(0.9999999999999999, 0, 0, 0.9999999999999999, 0, 5.684341886080802e-14)"/>
  <path d="M 254.17 488.441 C 254.074 488.425 253.977 488.405 253.88 488.39 C 252.212 488.094 250.546 487.803 248.884 487.503 L 248.731 483.736 L 246.718 487.111 C 242.125 488.635 237.827 487.773 233.785 485.872 C 232.451 485.238 231.158 484.526 229.91 483.736 C 230.598 479.516 233.156 475.833 236.869 473.714 C 237.021 473.627 237.17 473.551 237.322 473.474 C 237.326 473.474 237.328 473.472 237.328 473.469 C 237.588 473.347 237.853 473.229 238.117 473.122 C 242.354 471.467 247.165 472.4 250.475 475.518 C 253.737 478.633 255.205 483.776 254.17 488.441 Z" fill="#2f2e41" style="" transform="matrix(0.9999999999999999, 0, 0, 0.9999999999999999, 0, 5.684341886080802e-14)"/>
</svg>