<?xml version="1.0" encoding="utf-8"?>
<svg viewBox="11.945 362.3997 327.0875 275.2053" xmlns="http://www.w3.org/2000/svg">
  <g transform="matrix(0.523714005947113, 0, 0, 0.5510920286178589, 42.9157485961914, 477.21246337890625)" style="">
    <g>
      <path d="M 553.657 137.578 C 548.107 137.579 543.313 141.46 542.156 146.888 L 558.557 146.888 L 558.557 188.049 L 542.156 188.049 C 544.042 196.903 554.805 200.396 561.53 194.336 C 564.005 192.106 565.417 188.931 565.417 185.599 L 565.417 149.338 C 565.417 142.843 560.152 137.578 553.657 137.578 Z" fill="#3f3d56"/>
      <path d="M 421.427 65.546 C 409.755 65.56 400.296 75.018 400.283 86.691 L 400.283 249.227 C 400.296 260.899 409.755 270.358 421.427 270.371 L 524.182 270.371 C 535.855 270.358 545.313 260.899 545.327 249.227 L 545.327 86.691 C 545.313 75.018 535.855 65.56 524.182 65.546 L 421.427 65.546 Z" style="fill: rgb(163, 163, 163);"/>
      <circle cx="410.573" cy="278.701" r="10.78" fill="#3f3d56"/>
      <circle cx="531.116" cy="278.701" r="10.78" fill="#3f3d56"/>
      <rect x="418.414" y="64.076" width="5.88" height="206.295" fill="#4d4d4d" style=""/>
      <rect x="435.074" y="64.076" width="5.88" height="206.295" fill="#4d4d4d" style=""/>
      <rect x="451.734" y="64.076" width="5.88" height="206.295" fill="#4d4d4d" style=""/>
      <rect x="468.395" y="64.076" width="5.88" height="206.785" fill="#4d4d4d"/>
      <rect x="485.055" y="64.076" width="5.88" height="206.295" fill="#4d4d4d" style=""/>
      <rect x="501.716" y="65.546" width="5.88" height="204.825" fill="#4d4d4d" style=""/>
      <rect x="518.376" y="65.546" width="5.88" height="204.825" fill="#4d4d4d" style=""/>
    </g>
  </g>
  <polygon points="100.67 441.817 86.052 452.758 95.148 453.784 107.818 442.5 100.67 441.817" fill="#3f3d56" style=""/>
  <polygon points="43.477 628.637 52.269 628.636 56.454 592.949 43.476 592.949 43.477 628.637" fill="#9f616a" style=""/>
  <path d="M 41.234 625.616 L 58.55 625.615 L 58.551 625.615 C 64.645 625.616 69.586 630.814 69.586 637.227 L 69.586 637.604 L 41.235 637.605 L 41.234 625.616 Z" fill="#2f2e41" style=""/>
  <path d="M 37.949 501.172 C 37.949 501.172 34.139 505.704 40.449 523.372 L 39.338 620.253 L 59.786 619.834 L 64.28 572.576 L 72.463 503.613 L 37.949 501.172 Z" fill="#2f2e41" style=""/>
  <path d="M 17.534 485.877 C 15.022 485.871 12.972 483.763 12.904 481.121 L 11.945 443.068 L 28.364 410.29 C 29.121 408.788 30.562 407.805 32.174 407.691 L 44.687 406.847 L 43.606 483.551 L 17.941 485.859 C 17.804 485.872 17.669 485.877 17.534 485.877 Z" fill="#6c63ff" style=""/>
  <path d="M 79.476 514.565 L 79.252 514.529 C 53.095 510.331 33.355 506.307 33.158 506.267 L 32.913 506.218 L 39.77 488.665 C 39.716 486.832 38.232 435.334 41.073 420.537 C 43.824 406.214 56.79 403.867 58.268 403.645 L 59.752 398.472 L 78.496 408.737 L 81.764 420.576 L 82.429 453.024 L 79.476 514.565 Z" fill="#3f3d56" style=""/>
  <path d="M 53.717 465.442 C 41.641 465.442 31.816 451.624 31.816 434.642 C 31.816 417.659 41.641 403.841 53.717 403.841 C 65.795 403.841 75.618 417.659 75.618 434.642 C 75.618 451.624 65.795 465.442 53.717 465.442 Z M 53.717 406.856 C 43.221 406.856 34.682 419.32 34.682 434.642 C 34.682 449.962 43.221 462.427 53.717 462.427 C 64.214 462.427 72.754 449.962 72.754 434.642 C 72.754 419.32 64.214 406.856 53.717 406.856 Z" fill="#6c63ff" style=""/>
  <path d="M 90.766 447.78 C 89.059 447.779 87.431 448.529 86.272 449.847 L 54.767 449.847 L 43.227 452.432 L 45.121 467.811 L 86.174 458.519 C 89.305 462.242 95.092 460.999 96.59 456.286 C 97.918 452.1 94.959 447.778 90.766 447.78 Z" fill="#9f616a" style=""/>
  <circle cx="428.39" cy="181.45" r="17.629" transform="matrix(0.6090320348739624, -0.6408700346946716, 0.6090320348739624, 0.6408700346946716, -293.69488525390625, 543.251953125)" fill="#9f616a" style=""/>
  <path d="M 63.434 372.223 L 62.7 370.664 L 66.403 368.726 C 66.403 368.726 70.489 361.73 77.883 363.697 C 85.277 365.663 88.603 366.839 88.603 366.839 L 92.298 368.795 L 90.443 370.737 L 93.769 371.914 L 91.547 373.075 L 94.134 374.639 L 92.742 382.657 C 92.742 382.657 90.43 376.577 85.985 378.9 C 81.541 381.223 73.41 377.699 73.41 377.699 L 66.347 392.083 C 66.347 392.083 64.89 387.041 62.292 388.385 C 62.292 388.385 55.654 377.263 63.434 372.223 Z" fill="#2f2e41" style=""/>
  <path d="M 129.669 473.697 L 129.034 461.158 L 122.621 455.674 L 118.907 467.286 L 98.129 496.446 C 94.171 497.111 92.385 502.039 94.912 505.312 C 97.44 508.585 102.388 507.751 103.818 503.811 C 104.045 503.186 104.162 502.522 104.162 501.854 C 104.162 501.78 104.154 501.706 104.151 501.635 L 129.669 473.697 Z" fill="#ffb7b7" style=""/>
  <polygon points="142.018 631.732 137.104 631.732 134.767 611.79 142.019 611.79 142.018 631.732" fill="#ffb7b7" style=""/>
  <path d="M 143.27 636.743 L 127.427 636.743 L 127.427 636.532 C 127.428 632.948 130.189 630.044 133.594 630.044 L 133.595 630.044 L 143.27 630.044 L 143.27 636.743 Z" fill="#2f2e41" style=""/>
  <polygon points="164.862 631.732 159.948 631.732 157.611 611.79 164.863 611.79 164.862 631.732" fill="#ffb7b7" style=""/>
  <path d="M 166.115 636.743 L 150.272 636.743 L 150.272 636.532 C 150.272 632.948 153.033 630.044 156.439 630.044 L 166.115 630.044 L 166.115 636.743 Z" fill="#2f2e41" style=""/>
  <path d="M 159.667 421.312 C 161.748 412.275 163.512 402.08 159.588 393.757 C 156.865 387.981 146.796 386.036 141.024 388.118 C 135.251 390.197 131.076 395.843 129.242 401.998 C 127.407 408.153 127.62 414.785 128.421 421.184 C 139.035 420.969 149.652 420.755 159.667 421.312 Z" fill="#2f2e41" style=""/>
  <circle cx="745.943" cy="225.038" r="14.373" transform="matrix(0.7557529807090759, -0.4347290098667145, 0.413131982088089, 0.7952609658241272, -514.9674072265625, 553.6027221679688)" fill="#ffb8b8" style=""/>
  <path d="M 156.887 405.6 C 157.113 393.006 144.299 384.878 133.822 390.969 C 128.646 393.977 125.539 399.816 125.806 406.031 C 136.403 406.054 146.999 406.079 156.887 405.6 Z" fill="#2f2e41" style=""/>
  <path d="M 121.873 486.768 C 121.873 486.768 119.859 517.559 120.951 526.952 C 122.044 536.343 133.947 618.459 133.947 618.459 L 142.927 618.441 L 145.593 521.675 L 156.211 619.382 L 165.497 618.366 L 170.765 522.789 C 170.765 522.789 169.939 487.009 163.225 483.421 L 121.873 486.768 Z" fill="#2f2e41" style=""/>
  <path d="M 135.957 517.289 C 129.361 517.288 122.863 515.632 116.996 512.458 L 116.869 512.389 L 121.832 477.735 L 121.509 436.436 C 121.472 431.663 125.16 427.784 129.696 427.827 L 156.328 428.086 C 161.312 428.134 165.211 432.616 164.817 437.843 L 162.326 470.953 L 170.567 497.826 L 169.133 499.829 C 161.304 510.82 149.012 517.289 135.957 517.289 Z" fill="#3f3d56" style=""/>
  <path d="M 118.833 463.458 L 121.624 433.494 L 122.522 432.151 C 125.105 428.281 130.186 427.36 133.854 430.097 L 134.623 430.671 L 133.862 461.037 L 118.833 463.458 Z" fill="#3f3d56" style=""/>
  <path d="M 233.182 609.852 C 240.397 607.755 243.477 619.283 236.28 621.449 C 229.066 623.545 225.987 612.016 233.182 609.852 Z" fill="#3f3d56" style=""/>
  <path d="M 193.183 624.691 C 200.399 622.593 203.477 634.12 196.28 636.285 C 189.066 638.383 185.988 626.854 193.183 624.691 Z" fill="#3f3d56" style=""/>
  <path d="M 176.994 503.103 L 177.106 503.071 L 195.689 556.158 L 198.139 555.433 L 179.422 501.966 C 179.339 500.267 178.143 498.86 176.55 498.585 C 167.257 497.038 163.489 505.719 163.489 505.719 L 163.526 505.776 L 182.525 560.053 L 184.974 559.327 L 166.535 506.648 C 172.149 500.807 176.994 503.103 176.994 503.103 Z" fill="#3f3d56" style=""/>
  <path d="M 198.292 627.675 C 192.85 627.629 188.071 623.862 186.489 618.385 C 182.943 606.17 174.573 576.902 173.466 568.96 C 172.021 558.618 180.156 555.676 180.338 555.614 C 180.557 555.537 183.827 554.573 188.354 553.24 C 196.049 550.974 207.675 547.549 208.104 547.347 C 211.746 546.015 215.751 546.34 219.155 548.246 C 222.664 550.187 225.26 553.558 226.339 557.571 L 238.31 602.381 C 239.834 608.05 237.26 614.055 232.209 616.602 C 222.972 621.272 209.427 627.5 198.475 627.675 C 198.413 627.675 198.353 627.675 198.292 627.675 Z" fill="#6c63ff" style=""/>
  <path d="M 175.018 501.268 L 169.002 464.284 L 168.332 451.802 L 158.603 455.155 L 166.807 503.583 C 165.418 507.54 168.618 511.596 172.571 510.885 C 176.522 510.174 178.26 505.228 175.698 501.982 C 175.493 501.722 175.266 501.485 175.018 501.268 Z" fill="#ffb7b7" style=""/>
  <path d="M 170.648 461.963 L 155.465 461.095 L 151.899 430.951 L 152.245 430.633 C 155.842 427.352 161.289 427.771 164.393 431.57 L 165.096 432.428 L 165.106 432.483 L 170.648 461.963 Z" fill="#3f3d56" style=""/>
  <polygon points="232.474 609.21 216.955 553.943 180.466 564.793 180.248 563.982 217.501 552.905 217.613 553.305 233.242 608.97 232.474 609.21" fill="#3f3d56" style=""/>
  <polygon points="18.717 481.829 17.029 443.102 34.318 407.542 35.047 407.934 17.857 443.292 19.535 481.791 18.717 481.829" fill="#3f3d56" style=""/>
  <path d="M 338.677 637.605 L 12.3 637.605 C 12.028 637.605 11.857 637.246 11.993 636.959 C 12.056 636.826 12.172 636.743 12.3 636.743 L 338.677 636.743 C 338.95 636.743 339.12 637.102 338.984 637.39 C 338.92 637.521 338.805 637.605 338.677 637.605 Z" fill="#ccc" style=""/>
  <path d="M 45.323 470.693 L 41.72 459.415 L 40.849 421.824 L 42.383 416.489 C 45.544 405.511 58.814 402.248 66.269 410.618 C 70 414.807 71.113 420.877 69.129 426.226 L 60.901 448.412 L 61.32 449.269 L 79.145 449.116 L 85.479 461.11 L 45.323 470.693 Z" fill="#3f3d56" style=""/>
  <polygon points="242.828 631.139 249.166 631.139 252.181 605.418 242.827 605.418 242.828 631.139" fill="#a0616a" style=""/>
  <path d="M 241.211 628.964 L 253.693 628.964 C 258.086 628.964 261.647 632.71 261.647 637.331 L 261.647 637.604 L 241.211 637.605 L 241.211 628.964 Z" fill="#2f2e41" style=""/>
  <polygon points="284.692 631.139 291.031 631.139 294.045 605.418 284.692 605.418 284.692 631.139" fill="#a0616a" style=""/>
  <path d="M 283.076 628.964 L 295.557 628.964 L 295.558 628.964 C 299.95 628.964 303.511 632.71 303.511 637.331 L 303.511 637.604 L 283.076 637.605 L 283.076 628.964 Z" fill="#2f2e41" style=""/>
  <polygon points="237.522 625.561 253.938 625.561 264.431 528.883 283.724 625.561 294.801 625.561 294.801 510.273 242.136 493.689 237.522 625.561" fill="#2f2e41" style=""/>
  <circle cx="424.679" cy="317.977" r="16.622" fill="#a0616a" style="" transform="matrix(0.8613010048866272, 0, 0, 0.906328022480011, -100.26235961914062, 105.36638641357419)"/>
  <path d="M 243.288 496.116 C 258.65 508.758 275.607 515.131 294.801 512.702 C 286.694 482.75 284.289 453.025 292.11 423.707 L 275.964 416.021 L 257.816 414.808 L 244.624 418.89 C 240.81 420.071 238.219 423.792 238.298 427.976 C 238.764 452.98 237.183 476.378 243.288 496.116 Z" fill="#e6e6e6" style=""/>
  <path d="M 251.812 385.984 C 253.19 383.248 254.939 377.798 257.718 376.787 C 259.263 376.249 260.858 375.891 262.477 375.721 L 267.202 377.634 L 264.629 375.53 C 265.131 375.497 265.631 375.47 266.131 375.452 L 269.32 376.742 L 267.69 375.407 C 270.661 375.376 273.729 375.7 276.032 377.605 C 277.995 379.227 279.941 385.375 280.255 387.983 C 280.592 390.476 280.474 393.014 279.908 395.46 L 279.101 396.269 C 278.818 395.587 278.607 394.876 278.468 394.146 C 277.883 391.392 276.223 389.026 273.896 387.621 L 273.853 387.596 C 272.499 386.793 270.856 386.831 269.303 386.889 L 261.927 387.17 C 260.152 387.235 258.242 387.354 256.859 388.525 C 255.925 389.317 255.364 390.483 254.831 391.614 C 254.145 393.075 252.801 398.58 252.801 398.58 C 252.801 398.58 252.041 397.542 251.677 398.315 C 251.093 396.297 250.738 394.212 250.619 392.107 C 250.503 389.991 250.914 387.879 251.812 385.984 Z" style="fill: rgb(195, 195, 195);"/>
  <path d="M 252.292 505.992 C 252.277 502.777 249.506 500.357 246.502 500.937 L 237.91 484.968 L 234.364 492.613 L 242.575 507.321 C 243.505 511.196 248.073 512.559 250.797 509.773 C 251.767 508.783 252.308 507.415 252.292 505.992 Z" fill="#a0616a" style=""/>
  <path d="M 290.71 523.744 C 289.265 520.911 290.606 517.393 293.51 516.396 L 293.828 498.047 L 301.302 503.44 L 299.854 520.038 C 300.792 523.91 297.394 527.4 293.738 526.318 C 292.436 525.934 291.341 525.002 290.71 523.744 Z" fill="#a0616a" style=""/>
  <path d="M 238.675 503.802 L 244.826 497.734 L 241.669 464.967 L 245.322 418.651 C 237.388 421.274 228.87 428.323 227.466 436.948 L 222.447 467.8 L 238.675 503.802 Z" fill="#e6e6e6" style=""/>
  <polygon points="242.247 447.371 237.249 468.407 244.826 498.255 239.939 470.025 242.247 447.371" opacity="0.2" style="isolation: isolate;"/>
  <path d="M 291.727 515.129 L 301.721 516.342 L 299.38 438.242 C 299.168 431.116 295.013 424.777 288.758 422.034 L 285.19 420.472 L 286.152 457.079 L 291.727 515.129 Z" fill="#e6e6e6" style=""/>
  <polygon points="287.984 458.276 291.841 503.35 285.31 458.589 287.984 458.276" opacity="0.2" style="isolation: isolate;"/>
</svg>