<?xml version="1.0" encoding="utf-8"?>
<svg viewBox="0 129.0178 193.2185 409.2335" xmlns="http://www.w3.org/2000/svg">
  <polygon points="25.261 535.963 30.254 535.963 32.628 516.708 25.261 516.709 25.261 535.963" fill="#ffb8b8" style="transform-origin: 28.9445px 526.336px;"/>
  <polygon points="29.815 415.901 33.839 431.325 39.969 437.456 31.444 434.629 29.815 415.901" opacity="0.2" style="isolation: isolate; transform-origin: 34.892px 426.678px;"/>
  <g transform="matrix(0.407159984112, 0, 0, 0.407159984112, -91.593139648379, 114.171241812641)" style="transform-origin: 154.5px 345.668px;">
    <g>
      <polygon points="188.862 526.385 201.044 525.001 201.509 477.358 183.53 479.399 188.862 526.385" fill="#ffb8b8"/>
      <path d="M 225.82 533.647 L 187.535 537.992 L 185.857 523.2 L 209.35 520.534 C 217.519 519.607 224.893 525.478 225.82 533.647 L 225.82 533.647 Z" fill="#2f2e41"/>
      <path d="M 99.486 537.006 L 60.956 537.008 L 60.955 522.121 L 84.599 522.12 C 92.821 522.119 99.486 528.784 99.486 537.006 Z" fill="#2f2e41"/>
      <path d="M 151.544 314.156 L 158.544 336.925 L 196.544 419.156 L 206.544 497.156 L 183.544 498.156 L 169.544 426.156 L 121.544 374.156 L 79.544 510.156 L 60.544 508.156 C 60.544 508.156 76.544 332.156 98.544 314.156 C 98.544 314.156 134.544 297.156 151.544 314.156 Z" fill="#2f2e41"/>
      <circle cx="120.49239" cy="191.34841" r="24.56103" fill="#ffb8b8"/>
      <path d="M 154.044 318.656 C 154.044 318.656 157.044 216.656 115.044 223.656 C 73.044 230.656 90.544 329.156 90.544 329.156 C 90.544 329.156 99.544 347.156 121.544 327.156 C 143.544 307.156 154.044 318.656 154.044 318.656 Z" fill="#ccc"/>
      <path d="M 154.354 361.794 C 148.468 359.66 145.943 352.725 149.077 347.306 L 125.718 320.262 L 144.132 317.865 L 163.491 343.914 C 169.956 348.247 169.305 357.954 162.319 361.386 C 159.832 362.608 156.953 362.755 154.354 361.794 L 154.354 361.794 Z" fill="#ffb8b8"/>
      <path d="M 125.914 244.431 L 128.544 296.156 L 159.544 336.156 L 146.544 346.156 L 104.544 304.156 C 104.544 304.156 89.544 253.156 100.544 238.156 C 104.669 232.531 109.215 230.984 113.288 231.247 C 120.221 231.825 125.636 237.48 125.914 244.431 Z" fill="#ccc"/>
      <path d="M 117.571 217.156 C 118.075 216.704 118.003 215.895 117.428 215.539 C 108.08 209.75 108.505 196.012 118.192 190.811 C 118.394 190.703 118.598 190.6 118.804 190.502 C 126.025 187.059 135.81 189.737 141.148 183.121 C 143.345 180.257 144.186 176.578 143.451 173.044 C 142.299 166.795 137.602 162.155 132.341 158.974 C 105.707 142.874 71.631 161.643 71.005 192.759 C 70.969 194.546 71.051 196.333 71.252 198.109 C 71.931 204.123 73.786 210.867 70.21 215.749 C 67.063 220.047 61.122 220.853 55.904 221.921 C 44.71 224.211 33.912 229.494 26.316 238.029 C 18.72 246.563 14.668 258.537 16.958 269.73 C 19.248 280.923 28.436 290.76 39.729 292.495 C 48.92 293.907 58.411 290.004 65.161 283.607 C 71.911 277.21 76.178 268.572 78.869 259.67 C 82.063 249.105 83.323 237.72 89.09 228.308 C 94.733 219.098 106.894 212.496 116.425 217.293 C 116.798 217.488 117.254 217.434 117.571 217.156 L 117.571 217.156 Z" fill="#2f2e41"/>
      <path d="M 308 538.251 L 1 538.251 C 0.23 538.251 -0.251 537.418 0.134 536.751 C 0.313 536.442 0.643 536.251 1 536.251 L 308 536.251 C 308.77 536.251 309.251 537.085 308.866 537.751 C 308.687 538.061 308.357 538.251 308 538.251 Z" fill="#3f3d56"/>
    </g>
  </g>
  <g transform="matrix(0.7679749727249144, 0, 0, 0.7679749727249144, -281.48907470703125, 64.46338653564453)" style="">
    <path d="M 618.129 197.78 C 617.958 285.118 523.305 339.518 447.754 295.701 C 372.203 251.883 372.417 142.711 448.14 99.191 C 508.874 64.285 586.417 92.213 610.946 157.828 C 611.194 158.495 611.435 159.161 611.67 159.834 L 611.67 159.84 C 612.717 162.797 613.639 165.809 614.436 168.876 C 616.896 178.313 618.137 188.027 618.129 197.78 Z" fill="#3f3d56"/>
    <path d="M 491.413 120.717 C 481.011 115.092 468.595 114.584 457.769 119.341 C 453.065 121.388 448.112 125.06 446.543 131.692 C 452.889 127.947 461.105 133.865 462.738 143.358 L 462.357 143.463 C 461.494 150.039 463.42 157.198 467.148 161.276 C 467.709 157.55 469.918 154.275 473.161 152.357 C 475.9 150.557 478.931 149.249 481.021 146.154 C 483.5 142.485 484.129 137.122 485.114 132.23 C 486.098 127.338 487.966 122.08 491.413 120.717 Z" fill="#6c63ff"/>
    <path d="M 455.886 176.675 C 454.128 179.315 451.781 180.971 449.674 183.033 C 447.242 185.246 445.646 188.228 445.156 191.479 C 444.889 193.776 445.302 196.111 445.245 198.434 C 445.188 200.756 444.413 203.371 442.833 203.948 C 440.34 204.849 438.436 200.217 435.872 199.893 C 433.835 199.64 432.002 202.844 432.592 205.623 C 433.182 208.403 435.955 209.634 437.548 207.819 C 438.988 210.237 437.973 214.621 435.809 215.364 C 435.58 216.887 435.352 218.403 435.13 219.926 C 429.66 216.1 424.133 212.21 419.482 206.607 C 414.309 200.428 411.1 192.844 410.268 184.829 C 409.665 178.388 410.56 171.021 407.603 166.065 C 405.236 162.099 401.65 161.224 397.995 161.471 C 397.329 161.515 397.605 161.592 396.939 161.674 C 399.094 155.2 401.072 149.409 404.358 143.429 C 405.102 143.11 406.486 140.172 406.95 139.509 C 409.994 135.16 411.199 133.207 412.209 131.799 C 413.896 129.447 416.068 126.463 416.258 126.215 C 419.082 122.528 420.573 122.56 424.228 120.796 C 432.319 116.868 440.644 112.89 449.185 113.435 L 446.755 113.67 C 443.918 121.615 441.08 129.559 438.239 137.504 C 437.808 138.722 437.372 139.943 436.932 141.165 C 435.32 145.683 433.658 150.493 433.905 155.551 C 434.051 158.546 435.092 161.744 437.072 162.772 C 438.918 163.724 440.936 162.556 442.719 161.401 C 443.474 160.919 444.223 160.437 444.978 159.948 C 447.688 158.203 450.689 156.414 453.551 157.581 C 456.172 158.647 458.107 162.207 458.475 166.046 C 458.812 169.778 457.902 173.516 455.886 176.675 Z" fill="#6c63ff"/>
    <path d="M 472.002 230.915 C 464.088 226.042 456.174 221.17 448.261 216.297 L 448.395 215.951 C 443.475 217.825 441.432 226.571 442.245 233.724 C 443.059 240.876 445.816 247.27 447.209 254.239 C 449.087 263.776 448.378 273.642 445.156 282.812 C 455.561 271.136 464.77 258.447 472.645 244.934 C 473.745 243.23 474.583 241.372 475.131 239.42 C 475.712 237.34 475.505 235.119 474.55 233.182 C 473.902 232.226 473.026 231.447 472.002 230.915 Z" fill="#6c63ff"/>
    <path d="M 440.77 142.27 C 439.84 144.266 439.697 146.538 440.369 148.634 C 441.149 150.323 442.566 151.634 444.31 152.284 L 448.682 154.451 C 450.137 155.172 451.705 155.9 453.188 155.307 C 454.976 154.592 456.216 151.788 455.896 149.184 C 455.554 146.414 453.808 144.509 452.193 142.886 C 449.933 140.616 447.673 138.345 445.413 136.074 L 444.14 137.634 C 442.762 138.978 441.623 140.545 440.77 142.27 Z" fill="#6c63ff"/>
    <path d="M 594.689 171.884 C 596.656 172.347 598.623 172.81 600.59 173.273 C 600.248 179.917 596.954 186.066 592.538 188.293 C 590.698 189.22 588.648 189.562 587.125 191.295 C 585.748 192.868 585.05 195.318 584.409 197.659 C 583.286 201.746 582.163 205.832 581.04 209.919 C 579.834 214.323 578.286 219.215 575.151 220.802 C 572.461 222.166 569.383 220.497 567.314 217.699 C 565.246 214.9 563.983 211.137 562.758 207.47 C 562.834 211.467 560.975 215.389 558.342 216.778 C 555.702 218.168 552.491 216.912 550.727 213.809 C 549.458 211.581 548.931 208.643 547.687 206.384 C 546.444 204.125 543.836 202.831 542.478 204.95 C 541.583 206.359 541.697 208.517 541.253 210.306 C 540.795 212.741 538.844 214.619 536.393 214.983 C 534.17 214.932 532.067 213.971 530.574 212.324 C 526.688 208.349 524.158 203.247 523.346 197.748 C 522.796 195.112 522.865 192.383 523.549 189.778 C 524.33 187.31 526.214 185.406 528.086 185.876 C 529.317 183.274 526.887 179.822 524.698 180.127 C 522.502 180.431 520.782 182.785 518.98 184.594 C 517.185 186.402 514.672 187.716 512.863 185.92 C 512.947 187.288 511.907 188.465 510.539 188.549 C 510.474 188.553 510.409 188.555 510.344 188.554 C 509.141 188.208 508.024 187.616 507.063 186.815 C 502.92 184.232 497.659 185.946 494.715 190.832 C 496.555 183.001 499.252 174.016 504.906 172.176 C 507.216 171.42 509.735 172.042 511.918 170.735 C 515.782 168.419 516.563 159.668 513.225 156.058 C 513.65 159.472 513.568 163.457 511.765 165.792 C 509.963 168.127 506.181 166.604 506.41 163.152 C 506.223 164.923 504.189 165.827 502.75 164.779 C 502.488 164.589 502.269 164.346 502.108 164.066 C 500.908 162.239 501.01 159.25 501.86 157.067 C 502.737 155.09 503.994 153.305 505.56 151.813 C 508.574 148.583 511.632 145.315 515.122 143.284 C 518.619 141.254 522.654 140.569 526.157 142.586 C 528.004 143.652 529.628 145.429 531.513 146.368 C 533.375 147.524 535.822 146.951 536.978 145.089 L 536.978 145.088 C 536.999 145.054 537.02 145.02 537.04 144.985 C 538.442 142.523 537.782 138.868 538.303 135.79 C 539.235 130.352 544.673 127.808 547.688 131.399 C 545.435 130.822 543.106 133.487 542.827 136.717 C 542.541 139.947 544.172 143.208 546.355 144.186 C 550.023 145.81 553.614 141.723 556.387 137.941 C 559.281 133.982 562.179 130.024 565.081 126.069 C 565.544 125.396 566.064 124.763 566.635 124.178 C 568.521 122.34 571.51 122.279 573.47 124.038 C 576.401 126.431 577.778 131.336 580.183 134.712 C 583.673 139.617 588.896 140.81 593.756 141.761 C 597.379 142.466 601.005 143.174 604.633 143.887 C 607.051 148.386 609.16 153.044 610.946 157.828 C 604.294 160.862 598.652 165.74 594.689 171.884 Z" fill="#6c63ff"/>
    <path d="M 606.403 248.233 C 603.684 253.754 600.522 259.044 596.948 264.053 C 594.664 263.076 592.208 264.821 590.069 266.458 C 587.836 268.171 585.152 269.84 582.861 268.279 C 580.519 266.68 579.764 262.206 580.507 258.659 C 581.36 255.387 582.852 252.316 584.898 249.623 C 586.801 246.78 588.838 243.83 591.484 242.725 C 594.137 241.621 597.544 243.182 598.319 246.952 L 600.197 246.888 C 599.143 245.441 599.696 242.446 601.111 241.92 C 602.741 241.304 604.157 243.544 605.121 245.524 C 605.553 246.418 605.99 247.32 606.403 248.233 Z" fill="#6c63ff"/>
    <path d="M 534.466 221.43 C 530.429 221.684 527.231 216.714 525.106 211.825 C 522.981 206.935 521.042 201.344 517.399 198.855 C 515.318 197.433 512.945 197.238 510.687 196.549 C 508.089 195.893 505.967 194.024 504.987 191.53 L 502.426 190.496 C 498.843 192.286 495.563 194.626 492.702 197.429 C 489.434 200.901 487.398 205.352 486.908 210.095 C 486.419 215.221 488.226 220.937 491.601 222.863 C 494.268 224.385 497.374 223.425 500.075 224.818 C 503.451 226.559 505.455 231.614 506.213 236.606 C 506.972 241.598 506.78 246.785 507.322 251.834 C 507.865 256.882 509.361 262.135 512.457 264.722 C 516.33 267.959 522.015 265.269 523.752 259.376 C 524.605 256.485 524.576 253.223 525.213 250.223 C 526.336 244.938 529.366 241.018 531.769 236.683 C 534.172 232.348 536.064 226.461 534.466 221.43 Z" fill="#6c63ff"/>
    <path d="M 494.572 169.504 C 494.949 169.85 495.3 170.223 495.623 170.62 C 496.306 171.796 496.281 173.254 495.559 174.406 C 496.542 174.35 497.457 173.885 498.082 173.124 C 498.819 172.285 499.467 171.372 500.016 170.399 C 500.538 169.726 500.746 168.86 500.586 168.023 C 500.396 167.478 499.945 167.246 499.628 166.837 C 499.19 166.037 498.891 165.168 498.744 164.267 C 498.386 162.545 497.085 161.174 495.385 160.727 L 495.587 160.766 C 494.881 161.185 494.52 162.007 494.688 162.81 C 494.811 163.602 495.319 164.259 495.269 165.067 C 495.196 166.228 494.035 166.773 493.964 167.935 C 493.952 168.517 494.171 169.081 494.572 169.504 Z" fill="#6c63ff"/>
    <path d="M 487.655 149.769 L 487.673 149.765 C 487.797 149.652 487.912 149.53 488.018 149.398 L 487.655 149.769 Z" fill="#6c63ff"/>
    <path d="M 488.866 155.22 C 489.854 154.353 490.277 153.007 489.962 151.73 C 489.669 150.409 488.63 149.522 487.673 149.765 C 487.108 150.338 486.289 150.579 485.504 150.404 C 484.912 150.252 484.262 149.859 483.749 150.305 C 483.455 150.638 483.249 151.04 483.151 151.473 C 482.961 152.056 482.771 152.639 482.581 153.222 C 482.491 153.431 482.467 153.663 482.513 153.886 C 482.587 154.067 482.751 154.197 482.944 154.228 L 486.365 155.236 C 487.159 155.603 488.076 155.597 488.866 155.22 Z" fill="#6c63ff"/>
    <path d="M 574.938 230.478 C 574.411 229.615 573.884 228.752 573.357 227.889 C 572.839 226.89 572.131 226.001 571.273 225.273 C 570.492 224.618 569.327 224.721 568.673 225.503 L 568.673 225.503 L 568.645 225.536 L 568.709 226.029 C 570.121 227.542 571.082 229.418 571.486 231.447 C 571.606 232.329 571.565 233.242 571.67 234.128 C 571.692 234.957 572.044 235.743 572.646 236.314 C 573.476 236.868 574.451 236.051 575.041 235.053 C 575.569 234.234 575.806 233.261 575.714 232.29 C 575.582 231.639 575.318 231.022 574.938 230.478 Z" fill="#6c63ff"/>
    <path d="M 583.205 231.6 C 583.306 230.793 583.24 229.973 583.013 229.191 C 582.975 228.134 583.255 227.09 583.817 226.193 C 584.376 225.348 584.799 224.42 585.071 223.444 C 585.186 222.999 585.165 222.53 585.011 222.098 C 584.837 221.706 584.414 221.527 584.172 221.838 L 584.69 222.172 C 583.99 222.047 583.271 222.081 582.586 222.274 C 581.792 222.577 581.197 223.248 580.99 224.072 C 580.905 224.705 580.765 225.329 580.572 225.938 C 580.262 226.574 579.664 226.785 579.287 227.343 C 578.766 228.349 578.786 229.549 579.34 230.536 C 579.813 231.331 580.564 231.922 581.448 232.194 C 582.082 232.421 582.916 232.433 583.205 231.6 Z" fill="#6c63ff"/>
    <path d="M 597.929 236.043 C 598.158 236.639 598.464 237.202 598.841 237.717 C 599.546 238.427 600.504 237.991 601.359 237.818 C 602.94 237.569 604.53 238.206 605.5 239.479 C 604.827 236.123 602.567 233.303 599.437 231.915 C 597.434 231.222 595.322 230.892 593.202 230.94 L 592.84 231.033 C 593.763 233.719 596.66 233.659 597.929 236.043 Z" fill="#6c63ff"/>
    <path d="M 535.571 241.536 L 535.576 241.548 L 535.681 241.345 L 535.571 241.536 Z" fill="#6c63ff"/>
    <path d="M 533.337 245.859 C 532.85 246.744 532.431 247.664 532.084 248.612 C 531.624 250.148 531.32 251.726 531.176 253.322 C 531.062 254.23 531.027 255.389 531.596 255.831 C 531.934 256.056 532.386 255.994 532.651 255.688 C 532.967 255.354 533.226 254.97 533.416 254.551 C 534.534 252.626 535.402 250.566 535.999 248.422 C 536.622 246.147 536.473 243.729 535.576 241.548 C 534.83 242.985 534.083 244.422 533.337 245.859 Z" fill="#6c63ff"/>
    <path d="M 511.79 130.678 C 512.515 131.387 513.592 131.597 514.53 131.213 C 515.481 130.797 516.353 130.221 517.109 129.509 C 517.734 129.047 518.265 128.468 518.672 127.804 C 519.125 127.004 519.24 126.056 518.992 125.17 C 518.636 124.316 517.865 123.705 516.952 123.556 C 515.687 123.181 514.421 122.806 513.156 122.431 L 514.071 121.605 C 513.129 121.1 512.087 122.038 511.498 123.2 C 511.121 123.958 510.858 124.768 510.717 125.604 C 510.312 127.37 510.704 129.226 511.79 130.678 Z" fill="#6c63ff"/>
    <path d="M 534.132 123.177 C 534.872 123.993 536.119 124.095 536.981 123.409 C 537.705 122.866 538.163 122.04 538.242 121.139 C 538.331 120.144 537.839 119.037 537.136 118.951 L 537.297 118.019 C 535.943 117.775 534.276 117.726 533.551 119.37 C 533.053 120.652 533.274 122.102 534.132 123.177 Z" fill="#6c63ff"/>
  </g>
  <path d="M 18.817 275.987 C 14.469 275.987 11.643 274.897 10.391 272.732 C 7.925 268.462 12.056 260.97 22.673 250.463 L 23.563 251.379 C 13.703 261.139 9.415 268.492 11.491 272.086 C 12.805 274.359 16.714 275.174 22.799 274.441 C 28.839 273.713 36.845 271.546 46.592 268 C 66.659 260.698 91.835 248.381 117.483 233.318 C 143.129 218.256 143.834 219.328 118.123 234.427 C 92.412 249.529 67.162 261.88 47.024 269.207 C 37.186 272.787 29.087 274.977 22.95 275.716 C 21.579 275.888 20.199 275.979 18.817 275.987 Z" style="fill: rgb(204, 204, 204);" transform="matrix(0.9999999999999999, 0, 0, 0.9999999999999999, 0, 1.4210854715202004e-14)"/>
  <g class="layer" transform="matrix(0.9999999999999999, 0, 0, 0.9999999999999999, -241.35594177246094, 68.17019653320312)">
    <title>Layer 1</title>
    <path d="M 377.973 142.884 C 377.742 142.884 377.536 142.979 377.363 143.152 C 377.189 143.323 377.044 143.571 376.926 143.879 C 376.686 144.494 376.539 145.36 376.46 146.397 C 376.381 147.431 376.365 148.636 376.4 149.926 C 373.542 151.099 367.742 153.52 367.276 154.06 C 366.655 154.781 366.855 155.604 367.105 156.152 L 376.636 154.212 C 376.839 156.741 377.123 159.243 377.373 161.207 C 376.442 161.48 374.7 162.017 374.342 162.351 C 373.847 162.812 373.847 164.298 373.847 164.298 L 377.749 163.98 C 377.842 164.619 377.899 164.993 377.899 164.993 L 377.905 165.027 L 377.936 165.027 L 378.007 165.027 L 378.039 165.027 L 378.044 164.993 C 378.044 164.993 378.102 164.619 378.194 163.98 L 382.097 164.298 C 382.097 164.298 382.097 162.812 381.602 162.351 C 381.241 162.017 379.502 161.478 378.57 161.204 C 378.82 159.249 379.105 156.754 379.307 154.233 L 388.728 156.152 C 388.978 155.604 389.18 154.778 388.559 154.06 C 388.099 153.525 382.441 151.157 379.547 149.97 C 379.581 148.665 379.568 147.442 379.486 146.397 L 379.486 146.394 C 379.405 145.357 379.26 144.494 379.02 143.879 C 378.902 143.571 378.757 143.323 378.584 143.152 C 378.41 142.981 378.205 142.884 377.973 142.884 Z" id="path-1" stroke="#ffffff" stroke-width="0" style="fill: rgb(204, 204, 204); transform-box: fill-box; transform-origin: 50% 50%;" transform="matrix(0.573515, 0.819195, -0.819195, 0.573515, -0.000011, -0.000002)"/>
  </g>
</svg>