<?xml version="1.0" encoding="utf-8"?>
<svg viewBox="19.2775 217.5284 395.6138 408.8267" xmlns="http://www.w3.org/2000/svg">
  <path id="bf948e58-f613-467a-9468-983dc892a127-27" data-name="Path 449" d="M 38.52 580.502 C 30.866 580.992 23.892 585.726 20.738 593.064 C 20.593 593.406 20.452 593.754 20.323 594.106 C 19.172 597.233 18.81 600.83 20.068 603.908 C 21.33 606.992 24.477 609.327 27.631 608.843 C 30.789 608.358 33.257 604.496 31.95 601.437 C 31.662 607.617 31.42 614.111 34.669 619.487 C 36.457 622.3 38.788 624.148 41.321 624.759 C 47.868 626.525 52.214 620.847 53.086 615.121 C 53.728 610.891 52.841 606.59 51.955 602.403 C 54.679 607.341 61.154 609.54 66.117 607.206 C 71.079 604.874 73.828 598.343 72.134 592.915 C 70.138 586.529 63.483 583.227 57.302 581.483 C 52.196 580.042 44.543 580.117 38.52 580.502 Z" style="fill: rgb(230, 230, 230); transform-origin: 45.9563px 602.675px;" transform="matrix(-1, 0, 0, -1, 0.000022888184, 0)"/>
  <path id="b42aec13-b3c1-4211-a06e-06d70154504c-28" data-name="Path 538" d="M 392.429 573.043 C 401.364 573.614 409.505 579.142 413.186 587.706 C 413.356 588.108 413.52 588.513 413.672 588.923 C 415.017 592.575 415.436 596.771 413.966 600.366 C 412.495 603.965 408.823 606.693 405.139 606.127 C 401.453 605.56 398.57 601.052 400.098 597.48 C 400.437 604.693 400.717 612.275 396.927 618.552 C 394.838 621.833 392.113 623.993 389.16 624.704 C 381.517 626.766 376.444 620.138 375.429 613.454 C 374.68 608.518 375.713 603.497 376.744 598.61 C 373.565 604.372 366.007 606.94 360.214 604.216 C 354.423 601.492 351.212 593.869 353.19 587.534 C 355.522 580.079 363.289 576.226 370.507 574.189 C 376.466 572.508 385.399 572.594 392.429 573.043 Z" style="fill: rgb(230, 230, 230); transform-origin: 383.748px 598.926px;" transform="matrix(-1, 0, 0, -1, 0.000061035156, -0.000122070313)"/>
  <path d="M 366.5 364.834 L 325.816 364.834 C 317.039 364.834 309.898 354.557 309.898 341.924 C 309.898 329.288 317.039 319.011 325.816 319.011 L 328.71 319.011 C 330.303 314.415 332.757 310.527 335.803 307.77 C 338.895 304.973 342.489 303.485 346.158 303.484 C 356.338 303.484 364.821 314.816 365.611 329.364 L 366.5 329.364 C 373.301 329.364 378.835 337.321 378.835 347.099 C 378.835 356.88 373.301 364.834 366.5 364.834 Z M 325.816 319.976 C 317.415 319.976 310.58 329.822 310.58 341.924 C 310.58 354.025 317.415 363.871 325.816 363.871 L 366.5 363.871 C 372.925 363.871 378.153 356.348 378.153 347.099 C 378.153 337.853 372.925 330.328 366.5 330.328 L 364.973 330.328 L 364.953 329.877 C 364.339 315.617 356.083 304.447 346.158 304.447 C 339.011 304.447 332.365 310.435 329.231 319.702 L 329.138 319.976 L 325.816 319.976 Z" fill="#3f3d56" style="transform-origin: 344.366px 334.16px;"/>
  <path id="a8ec5313-8437-40fa-9ae6-49ad9c080ae2-29" data-name="Path 525" d="M 278.901 340.302 C 278.885 339.798 278.894 339.289 278.93 338.783 L 256.221 309.559 L 249.448 313.32 L 244.412 298.389 L 259.218 287.582 L 284.046 330.303 C 288.798 328.981 292.702 336.044 291.071 343.017 C 289.442 349.991 283.502 351.64 280.379 345.991 C 279.495 344.395 278.977 342.396 278.901 340.304 L 278.901 340.302 Z" style="fill: rgb(255, 182, 182); transform-origin: 267.93px 318.488px;" transform="matrix(-1, 0, 0, -1, 0.000061035156, -0.000061035156)"/>
  <path id="b5ad9c77-52a4-4655-bf33-f0307720c346-30" data-name="Path 526" d="M 307.423 309.838 L 285.493 321.979 C 279.65 325.213 278.281 336.933 283.028 343.076 C 285.232 345.928 288.26 346.759 290.972 345.258 L 312.903 333.116 C 314.299 332.345 315.024 329.981 314.521 327.837 L 314.52 327.837 L 310.868 312.317 C 310.359 310.176 308.821 309.067 307.423 309.84 L 307.423 309.838 Z" style="fill: rgb(12, 102, 225); transform-origin: 297.42px 327.794px;" transform="matrix(-1, 0, 0, -1, 0.000061035156, 0)"/>
  <path id="ee570c5a-79aa-496e-9580-2e913ce96aae-31" data-name="Path 527" d="M 292.663 420.649 L 299.993 420.649 L 303.479 463.998 L 292.663 463.998 L 292.663 420.649 Z" style="fill: rgb(255, 182, 182); transform-origin: 298.071px 442.323px;" transform="matrix(-1, 0, 0, -1, -0.000061035155, -0.000061035157)"/>
  <path id="ab71c019-c25e-46eb-a51f-1c429aa2c12d-32" data-name="Path 528" d="M 305.051 460.79 L 282.017 460.787 L 282.015 474.434 L 296.15 474.436 C 301.065 474.436 305.051 468.325 305.051 460.79 Z" fill="#2f2e41" style="transform-origin: 293.533px 467.612px;" transform="matrix(-1, 0, 0, -1, 0, 0)"/>
  <path id="f36d9583-efe1-4c6b-b146-57ada20cd73c-33" data-name="Path 529" d="M 296.485 420.482 L 302.479 414.017 L 321.591 446.401 L 312.743 455.943 L 296.485 420.482 Z" style="fill: rgb(255, 182, 182); transform-origin: 309.038px 434.98px;" transform="matrix(-1, 0, 0, -1, -0.000061035156, -0.000061035155)"/>
  <path id="efce1b5c-13fd-487e-9a00-7bbfe0293cc7-34" data-name="Path 530" d="M 325.895 443.255 L 307.052 463.565 L 312.17 474.729 L 323.732 462.265 C 327.752 457.933 328.72 449.419 325.895 443.255 Z" fill="#2f2e41" style="transform-origin: 317.283px 458.992px;" transform="matrix(-1, 0, 0, -1, -0.000061035157, 0.000061035157)"/>
  <path id="b962c087-78c3-438a-b2f2-2ecccfec7131-35" data-name="Path 531" d="M 296.896 434.482 C 296.896 434.482 315.185 437.792 311.902 419.593 C 308.621 401.395 272.039 385.674 272.039 385.674 L 296.896 434.482 Z" style="fill: rgb(255, 182, 182); transform-origin: 292.168px 410.196px;" transform="matrix(-1, 0, 0, -1, 0, 0.000061035156)"/>
  <circle id="b4ce5f2d-2188-4402-bc9c-1bcfffccb703" data-name="Ellipse 71" cx="238.48" cy="67.481" r="28.666" style="fill: rgb(255, 182, 182);" transform="matrix(-0.5122149586677551, 0, 0, 0.7854269742965698, 422.1829223632813, 217.52923583984375)"/>
  <path id="bec54b22-7d61-4f61-9a6e-d6909ce0cfb7-36" data-name="Path 532" d="M 284.228 316.061 C 275.871 330.979 272.947 353.872 286.272 372.914 C 289.563 377.502 293.289 381.295 297.322 384.168 L 308.06 430.219 C 310.345 440.065 316.369 446.71 323.183 446.9 C 329.806 447.337 335.889 441.338 338.376 431.917 C 339.686 427.239 339.839 421.991 338.799 417.155 C 335.601 401.891 331.403 387.164 326.268 373.199 L 326.823 366.389 L 353.967 362.688 L 353.714 362.057 C 353.583 361.729 340.296 330.693 323.302 310.091 C 317.492 303.048 311.481 300.127 305.81 300.128 C 297.213 300.126 289.391 306.839 284.228 316.061 Z" style="fill: rgb(12, 102, 225); transform-origin: 315.541px 373.525px;" transform="matrix(-1, 0, 0, -1, 0, 0)"/>
  <path id="f5e0fb0e-7954-451a-aeef-f3006d7ce30b-37" data-name="Path 533" d="M 302.261 234.1 C 304.858 238.847 305.973 245.054 306.869 251.098 C 308.288 260.657 309.385 270.542 312.535 279.074 C 315.687 287.604 321.477 294.673 327.86 294.137 C 334.209 293.601 339.34 285.768 342.064 276.86 C 343.398 277.653 344.888 277.542 346.167 276.557 C 348.13 274.907 348.864 270.222 347.231 267.876 C 350.705 270.412 354.722 270.566 358.278 268.299 C 362.883 265.289 366.006 258.581 366.363 250.921 C 366.501 247.84 365.801 244.807 364.43 242.548 C 361.611 238.103 357.626 239.634 354.084 240.766 C 350.737 241.837 346.662 242.125 344.776 237.239 C 344.034 235.2 343.825 232.804 344.194 230.54 C 344.916 225.661 347.273 222.26 349.56 219.007 L 349.934 217.94 C 341.862 215.529 333.048 223.981 330.93 236.168 C 328.81 248.353 333.715 262.412 341.501 266.478 C 339.261 266.366 337.784 270.012 338.842 273.04 C 338.856 273.082 338.871 273.123 338.887 273.164 C 336.731 275.015 334.292 275.95 331.824 275.869 C 327.803 275.464 324.323 271.078 322.23 265.794 C 320.136 260.513 319.189 254.385 318.23 248.382 C 317.269 242.378 316.231 236.264 313.992 231.122 C 307.335 215.827 292.944 214.695 285.297 228.865 C 291.079 224.567 298.016 226.71 302.261 234.1 Z" fill="#2f2e41" style="transform-origin: 325.839px 255.847px;" transform="matrix(-1, 0, 0, -1, 0, 0)"/>
  <g style="" transform="matrix(0.8703550100326538, 0, 0, 1.0534759759902954, -239.73185729980472, 53.857612609863274)">
    <path d="M 546.8 216.634 C 530.429 216.634 520.197 239.085 528.383 257.046 C 536.569 275.008 557.032 275.008 565.217 257.046 C 567.085 252.95 568.067 248.303 568.067 243.575 C 568.052 228.703 558.54 216.651 546.8 216.634 Z M 546.8 266.026 C 533.157 266.026 524.63 247.318 531.452 232.35 C 538.274 217.381 555.327 217.381 562.148 232.35 C 563.704 235.762 564.522 239.633 564.522 243.575 C 564.511 255.969 556.584 266.011 546.8 266.026 Z" style="transform-box: fill-box; transform-origin: 50% 50%; fill: rgb(251, 225, 10);" transform="matrix(-1, 0, 0, -1, 0.000003, -0.000004)"/>
    <path d="M 547.467 179.586 C 546.487 179.586 545.693 180.591 545.693 181.83 L 545.693 207.65 C 545.693 209.378 547.172 210.457 548.353 209.595 C 548.901 209.192 549.239 208.453 549.239 207.65 L 549.239 181.83 C 549.239 180.591 548.445 179.586 547.467 179.586 Z" style="transform-box: fill-box; transform-origin: 50% 50%; fill: rgb(251, 225, 10);" transform="matrix(-1, 0, 0, -1, -0.000012, -0.000002)"/>
    <path d="M 595.505 240.448 L 575.124 240.448 C 573.76 240.448 572.907 242.319 573.589 243.815 C 573.906 244.508 574.491 244.937 575.124 244.937 L 595.505 244.937 C 596.869 244.937 597.721 243.066 597.04 241.57 C 596.723 240.875 596.138 240.448 595.505 240.448 Z" style="transform-box: fill-box; transform-origin: 50% 50%; fill: rgb(251, 225, 10);" transform="matrix(-1, 0, 0, -1, -0.000058, -0.000012)"/>
    <path d="M 521.071 240.448 L 500.69 240.448 C 499.326 240.448 498.474 242.319 499.156 243.815 C 499.473 244.508 500.057 244.937 500.69 244.937 L 521.071 244.937 C 522.436 244.937 523.288 243.066 522.605 241.57 C 522.289 240.875 521.704 240.448 521.071 240.448 Z" style="transform-box: fill-box; transform-origin: 50% 50%; fill: rgb(251, 225, 10);" transform="matrix(-1, 0, 0, -1, 0, -0.000012)"/>
    <path d="M 513.098 205.405 C 511.732 205.405 510.879 207.274 511.562 208.77 C 511.644 208.951 511.745 209.115 511.863 209.26 L 520.397 219.75 C 521.376 220.956 523.017 220.369 523.352 218.694 C 523.507 217.914 523.322 217.087 522.866 216.527 L 514.331 206.036 C 514 205.631 513.558 205.403 513.098 205.405 Z" style="transform-box: fill-box; transform-origin: 50% 50%; fill: rgb(251, 225, 10);" transform="matrix(-1, 0, 0, -1, -0.000043, -0.000013)"/>
    <path d="M 582.215 205.405 C 581.754 205.404 581.311 205.632 580.981 206.038 L 572.446 216.527 C 571.465 217.729 571.879 219.826 573.19 220.301 C 573.801 220.522 574.459 220.314 574.914 219.752 L 583.449 209.261 C 584.428 208.058 584.012 205.962 582.7 205.49 C 582.542 205.433 582.379 205.405 582.215 205.405 Z" style="transform-box: fill-box; transform-origin: 50% 50%; fill: rgb(251, 225, 10);" transform="matrix(-1, 0, 0, -1, -0.000066, -0.000013)"/>
    <path d="M 571.909 266.119 C 570.545 266.119 569.693 267.991 570.374 269.488 C 570.448 269.647 570.537 269.796 570.638 269.928 L 579.172 281.063 C 580.124 282.302 581.777 281.772 582.149 280.108 C 582.322 279.339 582.155 278.51 581.716 277.934 L 573.181 266.8 C 572.847 266.364 572.388 266.119 571.909 266.119 Z" style="transform-box: fill-box; transform-origin: 50% 50%; fill: rgb(251, 225, 10);" transform="matrix(-1, 0, 0, -1, 0.000076, 0.000034)"/>
    <path d="M 521.633 266.116 C 521.155 266.115 520.697 266.36 520.365 266.795 L 510.058 280.174 C 509.103 281.409 509.562 283.489 510.883 283.919 C 511.499 284.118 512.15 283.885 512.594 283.309 L 522.901 269.929 C 523.854 268.693 523.393 266.614 522.071 266.187 C 521.928 266.141 521.78 266.116 521.633 266.116 Z" style="transform-box: fill-box; transform-origin: 50% 50%; fill: rgb(251, 225, 10);" transform="matrix(-1, 0, 0, -1, -0.000033, 0.000033)"/>
    <path d="M 547.467 276.127 C 546.487 276.127 545.693 277.133 545.693 278.373 L 545.693 304.193 C 545.693 305.92 547.172 307.001 548.353 306.136 C 548.901 305.735 549.239 304.995 549.239 304.193 L 549.239 278.373 C 549.239 277.133 548.445 276.127 547.467 276.127 Z" style="transform-box: fill-box; transform-origin: 50% 50%; fill: rgb(251, 225, 10);" transform="matrix(-1, 0, 0, -1, -0.000012, 0.000025)"/>
  </g>
  <path id="b0998da5-27dc-40b2-8d45-277f647e44e1-38" data-name="Path 536" d="M 287.261 357.94 C 287.107 357.492 286.976 357.024 286.867 356.546 L 258.21 344.891 L 253.122 352.71 L 244.426 342.479 L 254.833 323.046 L 289.146 345.534 C 293.081 341.239 298.574 345.09 299.03 352.464 C 299.488 359.836 294.568 365.204 290.176 362.125 C 288.933 361.255 287.911 359.784 287.261 357.94 Z" style="fill: rgb(255, 182, 182); transform-origin: 271.743px 343.028px;" transform="matrix(-1, 0, 0, -1, 0.000061035156, 0)"/>
  <path id="a2d8cb05-8bad-48ca-a39c-34dd34963d12-39" data-name="Path 537" d="M 304.052 307.481 L 287.566 332.762 C 283.171 339.495 285.179 350.999 291.179 353.469 C 293.966 354.616 296.94 353.394 298.979 350.264 L 315.467 324.983 C 316.516 323.372 316.516 320.761 315.467 319.15 L 315.467 319.149 L 307.857 307.482 C 306.804 305.873 305.104 305.873 304.053 307.482 L 304.052 307.481 Z" style="fill: rgb(12, 102, 225); transform-origin: 300.724px 330.084px;" transform="matrix(-1, 0, 0, -1, 0.000061035156, 0)"/>
  <path d="M 308.52 422.291 L 137.725 422.291 C 100.878 422.291 70.901 456.479 70.901 498.499 C 70.901 540.521 100.878 574.707 137.725 574.707 L 149.876 574.707 C 156.56 589.995 166.862 602.927 179.656 612.094 C 192.635 621.402 207.718 626.35 223.123 626.355 C 265.856 626.355 301.475 588.667 304.79 540.274 L 308.52 540.274 C 337.072 540.274 360.3 513.812 360.3 481.283 C 360.3 448.755 337.072 422.291 308.52 422.291 Z M 137.725 571.497 C 102.457 571.497 73.763 538.751 73.763 498.499 C 73.763 458.248 102.457 425.501 137.725 425.501 L 308.52 425.501 C 335.492 425.501 357.438 450.524 357.438 481.283 C 357.438 512.042 335.492 537.065 308.52 537.065 L 302.107 537.065 L 302.026 538.572 C 299.448 585.998 264.788 623.146 223.123 623.146 C 193.12 623.146 165.227 603.231 152.064 572.409 L 151.673 571.497 L 137.725 571.497 Z" fill="#3f3d56" style="transform-origin: 215.601px 524.323px;" transform="matrix(-1, 0, 0, -1, 0, 0)"/>
  <path id="path-1" data-name="Path 449" d="M 93.695 337.891 C 86.041 338.382 79.068 343.115 75.915 350.453 C 75.767 350.796 75.628 351.144 75.498 351.494 C 74.348 354.622 73.985 358.218 75.244 361.298 C 76.504 364.382 79.654 366.716 82.808 366.234 C 85.965 365.746 88.432 361.885 87.125 358.827 C 86.837 365.005 86.594 371.498 89.844 376.877 C 91.633 379.689 93.964 381.539 96.496 382.148 C 103.043 383.914 107.388 378.236 108.26 372.509 C 108.903 368.281 108.015 363.981 107.131 359.793 C 109.855 364.731 116.329 366.929 121.292 364.596 C 126.254 362.263 129.006 355.732 127.309 350.304 C 125.313 343.917 118.659 340.617 112.477 338.873 C 107.372 337.431 99.717 337.507 93.695 337.891 Z" style="fill: rgb(230, 230, 230); transform-origin: 101.132px 360.064px;" transform="matrix(-1, 0, 0, -1, 0, -0.000061035157)"/>
</svg>