<?xml version="1.0" encoding="utf-8"?>
<svg viewBox="18.3205 42.1695 230.309 374.5015" xmlns="http://www.w3.org/2000/svg">
  <path d="M 224.061 415.747 C 220.264 415.59 216.804 414.057 215.238 411.682 C 215.165 411.571 215.096 411.459 215.031 411.344 C 214.46 410.333 214.282 409.169 214.906 408.173 C 215.531 407.176 217.092 406.419 218.659 406.576 C 220.227 406.733 221.451 407.983 220.802 408.973 C 220.657 406.973 220.538 404.872 222.151 403.131 C 223.038 402.221 224.196 401.623 225.451 401.425 C 228.7 400.854 230.857 402.691 231.289 404.546 C 231.608 405.915 231.168 407.308 230.729 408.661 C 232.081 407.063 235.294 406.353 237.755 407.107 C 240.216 407.862 241.582 409.977 240.741 411.731 C 239.75 413.797 236.448 414.865 233.381 415.43 C 230.848 415.896 227.05 415.871 224.061 415.747 Z" fill="#f2f2f2" style=""/>
  <path d="M 105.053 415.825 C 101.575 415.681 98.407 414.277 96.974 412.103 C 96.907 412.001 96.843 411.898 96.784 411.793 C 96.261 410.867 96.097 409.802 96.669 408.889 C 97.242 407.976 98.671 407.283 100.106 407.427 C 101.541 407.57 102.662 408.715 102.068 409.622 C 101.936 407.79 101.827 405.866 103.303 404.272 C 104.116 403.439 105.176 402.892 106.326 402.71 C 109.301 402.187 111.276 403.869 111.672 405.568 C 111.964 406.822 111.56 408.097 111.159 409.336 C 112.396 407.873 115.339 407.222 117.592 407.913 C 119.846 408.604 121.097 410.541 120.327 412.147 C 119.419 414.039 116.395 415.017 113.587 415.534 C 111.268 415.961 107.789 415.939 105.053 415.825 Z" fill="#f2f2f2" style=""/>
  <path d="M 65.873 222.987 L 40.899 222.987 C 36.763 222.983 33.411 219.975 33.407 216.263 L 33.407 174.29 C 33.411 170.578 36.763 167.571 40.899 167.566 L 65.873 167.566 C 70.008 167.571 73.36 170.578 73.365 174.29 L 73.365 216.263 C 73.36 219.975 70.008 222.983 65.873 222.987 Z" style="fill: rgb(228, 226, 226);"/>
  <polygon points="146.818 410.856 141.259 410.856 138.614 389.412 146.819 389.412 146.818 410.856" fill="#ffb8b8" style=""/>
  <path d="M 148.237 416.246 L 130.31 416.245 L 130.31 416.018 C 130.31 412.165 133.434 409.041 137.288 409.041 L 148.237 409.041 L 148.237 416.246 Z" fill="#2f2e41" style=""/>
  <polygon points="208.925 405.654 203.684 407.51 194.032 388.18 201.767 385.441 208.925 405.654" fill="#ffb8b8" style=""/>
  <path d="M 212.061 410.261 L 195.163 416.246 L 195.087 416.032 C 193.801 412.399 195.702 408.412 199.335 407.125 L 209.656 403.47 L 212.061 410.261 Z" fill="#2f2e41" style=""/>
  <path d="M 146.664 403.656 C 146.539 403.656 146.415 403.645 146.292 403.622 L 139.493 402.386 C 138.54 402.21 137.84 401.39 137.817 400.42 C 136.828 354.657 141.687 323.905 152.257 301.863 C 152.643 301.062 153.505 300.606 154.384 300.737 L 178.832 304.267 C 179.75 304.4 180.462 305.135 180.568 306.057 L 182.724 325.059 C 182.735 325.162 182.757 325.263 182.788 325.361 L 206.228 395.591 C 206.56 396.654 205.983 397.788 204.928 398.144 L 198.594 400.256 C 197.631 400.572 196.581 400.138 196.123 399.232 L 164.417 339.447 C 164.182 338.979 163.529 338.94 163.241 339.377 C 163.195 339.447 163.162 339.524 163.144 339.606 L 148.65 402.052 C 148.448 402.988 147.621 403.656 146.664 403.656 Z" fill="#2f2e41" style=""/>
  <path d="M 127.342 264.799 C 127.398 265.044 127.434 265.293 127.451 265.543 L 146.931 276.781 L 151.666 274.056 L 156.714 280.664 L 148.8 286.304 C 147.487 287.24 145.714 287.197 144.448 286.198 L 124.36 270.351 C 120.924 271.623 117.399 268.698 118.015 265.086 C 118.632 261.474 122.927 259.883 125.747 262.223 C 126.545 262.885 127.105 263.79 127.342 264.799 Z" fill="#ffb8b8" style=""/>
  <path d="M 147.199 275.658 C 147.317 275.077 147.683 274.576 148.201 274.286 L 157.141 269.288 C 160.594 266.622 165.638 268.694 166.22 273.018 C 166.489 275.013 165.679 277.002 164.091 278.241 L 156.964 285.643 C 156.099 286.54 154.639 286.46 153.878 285.473 L 147.582 277.314 C 147.219 276.844 147.079 276.24 147.199 275.658 Z" fill="#6c63ff" style=""/>
  <circle cx="168.016" cy="252.541" r="11.138" fill="#ffb8b8" style=""/>
  <path d="M 178.861 306.642 C 178.751 306.642 178.64 306.634 178.531 306.616 L 154.427 302.664 C 153.278 302.476 152.52 301.366 152.761 300.227 L 153.934 294.698 C 153.333 293.803 148.446 286.016 154.399 278.702 C 154.161 273.299 158.27 268.69 163.665 268.308 L 176.122 267.361 C 183.036 266.837 188.386 273.316 186.561 280.007 L 180.851 305.055 C 180.638 305.983 179.813 306.641 178.861 306.642 Z" fill="#6c63ff" style=""/>
  <path d="M 201.37 327.589 C 203.111 325.106 202.184 321.652 199.434 320.374 L 185.71 278.179 L 177.756 281.953 L 192.773 323.038 C 191.414 326.555 194.372 330.224 198.097 329.642 C 199.424 329.435 200.607 328.693 201.37 327.589 Z" fill="#ffb8b8" style=""/>
  <path d="M 188.745 285.204 L 178.185 288.395 C 176.908 288.78 175.586 287.942 175.392 286.622 L 173.789 275.741 C 172.462 271.264 176.48 267.029 181.021 268.118 C 183.118 268.622 184.791 270.201 185.414 272.266 L 190.09 282.182 C 190.658 283.388 190.023 284.819 188.745 285.204 Z" fill="#6c63ff" style=""/>
  <path d="M 157.189 252.972 C 162.239 254.896 167.947 253.697 171.796 249.904 C 170.628 252.99 170.955 266.082 170.955 266.082 C 170.955 266.082 181.315 261.163 182.721 260.302 C 191.022 255.221 179.572 233.119 170.047 236.605 C 168.434 237.196 167.087 237.89 166.434 239.479 C 165.012 237.725 162.32 237.345 160.249 238.245 C 158.178 239.147 156.706 241.099 155.914 243.215 C 154.649 246.67 154.98 250.508 156.818 253.696 L 157.189 252.972 Z" style=""/>
  <g transform="matrix(1, 0, 0, 1, -649.7276611328126, 0.7913859486579895)">
    <path d="M 704.194 90.962 C 700 90.962 697.378 86.421 699.475 82.789 C 701.573 79.156 706.816 79.156 708.913 82.789 C 709.391 83.617 709.643 84.557 709.643 85.513 C 709.64 88.521 707.202 90.959 704.194 90.962 Z M 704.194 80.973 C 700.699 80.973 698.514 84.756 700.262 87.784 C 702.01 90.811 706.379 90.811 708.126 87.784 C 708.525 87.093 708.735 86.31 708.735 85.513 C 708.732 83.007 706.701 80.975 704.194 80.973 Z" fill="#3f3d56" style=""/>
    <path d="M 704.015 78.702 C 703.765 78.702 703.561 78.499 703.561 78.248 L 703.561 73.026 C 703.561 72.677 703.94 72.458 704.242 72.633 C 704.383 72.714 704.469 72.864 704.469 73.026 L 704.469 78.248 C 704.469 78.499 704.266 78.702 704.015 78.702 Z" fill="#3f3d56" style=""/>
    <path d="M 696.929 85.789 L 691.707 85.789 C 691.358 85.789 691.139 85.41 691.314 85.107 C 691.395 84.967 691.545 84.88 691.707 84.88 L 696.929 84.88 C 697.279 84.88 697.497 85.259 697.322 85.562 C 697.241 85.702 697.091 85.789 696.929 85.789 Z" fill="#3f3d56" style=""/>
    <path d="M 716 85.789 L 710.778 85.789 C 710.429 85.789 710.21 85.41 710.385 85.107 C 710.466 84.967 710.616 84.88 710.778 84.88 L 716 84.88 C 716.349 84.88 716.568 85.259 716.393 85.562 C 716.312 85.702 716.162 85.789 716 85.789 Z" fill="#3f3d56" style=""/>
    <path d="M 710.635 80.824 C 710.285 80.824 710.067 80.445 710.241 80.143 C 710.262 80.106 710.288 80.073 710.319 80.044 L 712.505 77.922 C 712.756 77.679 713.176 77.798 713.262 78.137 C 713.301 78.295 713.254 78.461 713.138 78.574 L 710.951 80.696 C 710.866 80.778 710.753 80.824 710.635 80.824 Z" fill="#3f3d56" style=""/>
    <path d="M 697.3 80.824 C 697.181 80.824 697.068 80.778 696.983 80.696 L 694.797 78.574 C 694.546 78.331 694.652 77.907 694.989 77.811 C 695.145 77.767 695.313 77.809 695.429 77.922 L 697.616 80.044 C 697.867 80.287 697.76 80.711 697.424 80.806 C 697.383 80.818 697.342 80.824 697.3 80.824 Z" fill="#3f3d56" style=""/>
    <path d="M 695.567 93.232 C 695.217 93.232 694.999 92.854 695.174 92.551 C 695.192 92.519 695.215 92.489 695.241 92.462 L 697.428 90.21 C 697.671 89.959 698.095 90.066 698.191 90.402 C 698.235 90.558 698.192 90.726 698.079 90.843 L 695.893 93.095 C 695.807 93.183 695.69 93.232 695.567 93.232 Z" fill="#3f3d56" style=""/>
    <path d="M 713.275 93.686 C 713.153 93.687 713.036 93.637 712.951 93.549 L 710.31 90.843 C 710.066 90.593 710.184 90.173 710.523 90.086 C 710.68 90.046 710.846 90.093 710.96 90.209 L 713.6 92.915 C 713.845 93.165 713.727 93.586 713.388 93.672 C 713.351 93.682 713.313 93.686 713.275 93.686 Z" fill="#3f3d56" style=""/>
    <path d="M 704.015 98.227 C 703.765 98.227 703.561 98.024 703.561 97.773 L 703.561 92.551 C 703.561 92.202 703.94 91.983 704.242 92.158 C 704.383 92.239 704.469 92.389 704.469 92.551 L 704.469 97.773 C 704.469 98.024 704.266 98.227 704.015 98.227 Z" fill="#3f3d56" style=""/>
    <path d="M 717.022 57.361 L 690.686 57.361 C 687.889 57.361 686.142 54.334 687.54 51.912 C 688.189 50.788 689.388 50.096 690.686 50.096 L 717.022 50.096 C 719.818 50.096 721.566 53.123 720.167 55.545 C 719.519 56.669 718.319 57.361 717.022 57.361 Z" fill="#6c63ff" style=""/>
    <path d="M 703.009 120.961 C 702.758 120.961 702.555 120.758 702.555 120.507 L 702.555 85.998 C 702.555 85.649 702.934 85.43 703.236 85.605 C 703.377 85.686 703.463 85.836 703.463 85.998 L 703.463 120.507 C 703.463 120.758 703.26 120.961 703.009 120.961 Z" fill="#e6e6e6" style="transform-origin: 703.009px 103.252px;" transform="matrix(0, 1, -1, 0, -0.000002, -0.000019)"/>
  </g>
  <g transform="matrix(1, 0, 0, 1, -649.8803710937501, 1.367110013961792)">
    <path d="M 712.102 151.836 L 696.944 151.836 C 692.4 151.76 689.643 146.792 691.982 142.896 C 693.031 141.148 694.906 140.065 696.944 140.031 L 698.103 140.031 C 699.277 137.545 701.774 135.955 704.523 135.944 C 708.323 135.979 711.443 138.96 711.65 142.755 L 712.102 142.755 C 715.597 142.813 717.719 146.633 715.922 149.631 C 715.115 150.977 713.671 151.811 712.102 151.836 Z M 696.944 140.939 C 693.099 141.016 690.779 145.226 692.769 148.518 C 693.655 149.984 695.231 150.894 696.944 150.928 L 712.102 150.928 C 714.898 150.871 716.583 147.807 715.135 145.414 C 714.49 144.35 713.346 143.689 712.102 143.663 L 711.21 143.663 C 710.959 143.663 710.756 143.46 710.756 143.209 C 710.786 139.734 707.998 136.891 704.523 136.852 C 702.028 136.865 699.782 138.365 698.813 140.664 C 698.741 140.831 698.577 140.939 698.396 140.939 L 696.944 140.939 Z" fill="#3f3d56" style=""/>
    <path d="M 717.022 115.057 L 690.686 115.057 C 687.89 115.057 686.142 112.03 687.54 109.608 C 688.189 108.484 689.388 107.792 690.686 107.792 L 717.022 107.792 C 719.818 107.792 721.566 110.819 720.168 113.241 C 719.519 114.365 718.32 115.057 717.022 115.057 Z" fill="#6c63ff" style=""/>
    <path d="M 703.584 181.796 C 703.333 181.796 703.13 181.593 703.13 181.342 L 703.13 146.833 C 703.13 146.484 703.509 146.265 703.811 146.44 C 703.952 146.521 704.038 146.671 704.038 146.833 L 704.038 181.342 C 704.038 181.593 703.835 181.796 703.584 181.796 Z" fill="#e6e6e6" style="transform-box: fill-box; transform-origin: 50% 50%;" transform="matrix(0, 1, -1, 0, 0.000047, -0.000025)"/>
  </g>
  <g transform="matrix(1, 0, 0, 1, -650.0914306640626, 0.4380350112915039)">
    <path d="M 711.424 205.575 L 711.07 204.739 C 714.29 203.377 714.829 199.041 712.04 196.932 C 709.667 195.138 706.238 196.073 705.103 198.824 L 704.264 198.477 C 705.864 194.599 711.062 193.907 713.62 197.231 C 715.798 200.061 714.712 204.185 711.424 205.575 Z" fill="#3f3d56" style=""/>
    <path d="M 712.101 214.176 L 696.944 214.176 C 692.4 214.1 689.643 209.132 691.981 205.236 C 693.03 203.488 694.906 202.405 696.944 202.371 L 698.103 202.371 C 699.277 199.885 701.774 198.295 704.523 198.284 C 708.323 198.319 711.443 201.3 711.65 205.095 L 712.101 205.095 C 715.597 205.153 717.719 208.973 715.921 211.971 C 715.114 213.317 713.67 214.151 712.101 214.176 Z M 696.944 203.279 C 693.099 203.356 690.779 207.566 692.768 210.858 C 693.655 212.324 695.231 213.234 696.944 213.268 L 712.101 213.268 C 714.898 213.211 716.583 210.147 715.135 207.754 C 714.49 206.69 713.346 206.029 712.101 206.003 L 711.21 206.003 C 710.959 206.003 710.756 205.8 710.756 205.549 C 710.786 202.074 707.997 199.231 704.523 199.192 C 702.028 199.205 699.782 200.705 698.813 203.004 C 698.741 203.171 698.577 203.279 698.395 203.279 L 696.944 203.279 Z" fill="#3f3d56" style=""/>
    <path d="M 717.022 177.397 L 690.686 177.397 C 687.89 177.397 686.142 174.37 687.54 171.948 C 688.189 170.824 689.388 170.132 690.686 170.132 L 717.022 170.132 C 719.818 170.132 721.566 173.159 720.168 175.581 C 719.519 176.705 718.32 177.397 717.022 177.397 Z" fill="#6c63ff" style=""/>
    <path d="M 703.584 246.399 C 703.333 246.399 703.13 246.196 703.13 245.945 L 703.13 211.436 C 703.13 211.087 703.509 210.868 703.811 211.043 C 703.952 211.124 704.038 211.274 704.038 211.436 L 704.038 245.945 C 704.038 246.196 703.835 246.399 703.584 246.399 Z" fill="#e6e6e6" style="transform-origin: 703.584px 228.69px;" transform="matrix(0, 1, -1, 0, 0.000017, -0.000055)"/>
  </g>
  <g transform="matrix(1, 0, 0, 1, -649.7276611328126, 0.7913859486579895)">
    <path d="M 712.102 341.698 L 710.279 341.698 C 709.929 341.698 709.711 341.32 709.886 341.017 C 709.967 340.877 710.117 340.79 710.279 340.79 L 712.102 340.79 C 714.898 340.732 716.583 337.669 715.135 335.276 C 714.49 334.211 713.346 333.551 712.102 333.525 L 711.21 333.525 C 710.959 333.525 710.756 333.322 710.756 333.071 C 710.786 329.596 707.998 326.752 704.523 326.714 C 702.028 326.727 699.782 328.227 698.813 330.526 C 698.741 330.692 698.577 330.8 698.396 330.801 L 696.944 330.801 C 693.099 330.878 690.779 335.088 692.769 338.379 C 693.655 339.846 695.231 340.756 696.944 340.79 L 698.352 340.79 C 698.701 340.79 698.92 341.168 698.745 341.471 C 698.664 341.612 698.514 341.698 698.352 341.698 L 696.944 341.698 C 692.4 341.621 689.643 336.654 691.982 332.757 C 693.03 331.01 694.906 329.927 696.944 329.892 L 698.103 329.892 C 699.277 327.407 701.774 325.817 704.523 325.806 C 708.323 325.841 711.443 328.822 711.65 332.617 L 712.102 332.617 C 715.597 332.674 717.719 336.494 715.922 339.493 C 715.115 340.838 713.67 341.672 712.102 341.698 Z" fill="#3f3d56" style=""/>
    <circle cx="703.741" cy="339.541" r="1.022" fill="#3f3d56" style=""/>
    <circle cx="707.145" cy="340.903" r="1.022" fill="#3f3d56" style=""/>
    <circle cx="701.47" cy="342.493" r="1.022" fill="#3f3d56" style=""/>
    <circle cx="702.863" cy="344.839" r="1.022" fill="#3f3d56" style=""/>
    <path d="M 717.022 307.189 L 690.686 307.189 C 687.89 307.189 686.142 304.162 687.54 301.74 C 688.189 300.616 689.388 299.924 690.686 299.924 L 717.022 299.924 C 719.818 299.924 721.566 302.951 720.168 305.373 C 719.519 306.497 718.32 307.189 717.022 307.189 Z" fill="#6c63ff" style=""/>
  </g>
  <path d="M 248.175 416.671 L 75.399 416.671 C 75.05 416.671 74.832 416.293 75.007 415.991 C 75.088 415.85 75.237 415.764 75.399 415.764 L 248.175 415.764 C 248.524 415.764 248.743 416.142 248.568 416.444 C 248.487 416.584 248.337 416.671 248.175 416.671 Z" fill="#3f3d56" style=""/>
  <path d="M 194.083 164.362 L -87.347 164.362 C -96.47 164.367 -103.863 169.071 -103.872 174.876 L -103.872 223.943 C -103.863 229.748 -96.47 234.452 -87.347 234.457 L 194.083 234.457 C 203.206 234.452 210.599 229.748 210.608 223.943 L 210.608 174.876 C 210.599 169.071 203.206 164.367 194.083 164.362 Z M 209.607 223.943 C 209.596 229.395 202.652 233.813 194.083 233.82 L -87.347 233.82 C -95.916 233.813 -102.86 229.395 -102.871 223.943 L -102.871 174.876 C -102.86 169.424 -95.916 165.006 -87.347 164.999 L 194.083 164.999 C 202.652 165.006 209.596 169.424 209.607 174.876 L 209.607 223.943 Z" fill="#3f3d56" style="transform-origin: 53.368px 199.41px;" transform="matrix(0, 1, -1, 0, 0.000003814697, 0.000011444092)"/>
  <g transform="matrix(1, 0, 0, 1, -649.8908081054689, 0.21071100234985352)">
    <path d="M 703.806 313.098 C 703.555 313.098 703.352 312.895 703.352 312.644 L 703.352 278.135 C 703.352 277.786 703.731 277.567 704.033 277.742 C 704.174 277.823 704.26 277.973 704.26 278.135 L 704.26 312.644 C 704.26 312.895 704.057 313.098 703.806 313.098 Z" fill="#e6e6e6" style="transform-origin: 703.806px 295.389px;" transform="matrix(0, 1, -1, 0, -0.00001, 0.000015)"/>
    <path d="M 712.101 275.807 L 710.278 275.807 C 709.929 275.807 709.71 275.429 709.885 275.126 C 709.966 274.986 710.116 274.899 710.278 274.899 L 712.101 274.899 C 714.897 274.841 716.582 271.778 715.134 269.385 C 714.49 268.32 713.345 267.66 712.101 267.634 L 711.209 267.634 C 710.959 267.634 710.755 267.431 710.755 267.18 C 710.785 263.705 707.997 260.861 704.522 260.823 C 702.028 260.836 699.781 262.336 698.812 264.635 C 698.741 264.801 698.577 264.909 698.395 264.91 L 696.943 264.91 C 693.098 264.987 690.779 269.197 692.768 272.488 C 693.654 273.955 695.23 274.865 696.943 274.899 L 698.351 274.899 C 698.701 274.899 698.919 275.277 698.744 275.58 C 698.663 275.721 698.513 275.807 698.351 275.807 L 696.943 275.807 C 692.399 275.73 689.642 270.763 691.981 266.866 C 693.03 265.119 694.906 264.036 696.943 264.001 L 698.103 264.001 C 699.276 261.516 701.774 259.926 704.522 259.915 C 708.323 259.95 711.442 262.931 711.65 266.726 L 712.101 266.726 C 715.596 266.783 717.719 270.603 715.921 273.602 C 715.114 274.947 713.67 275.781 712.101 275.807 Z" fill="#3f3d56" style=""/>
    <path d="M 704.447 277.767 C 704.196 277.767 703.993 277.564 703.993 277.313 L 703.993 272.091 C 703.993 271.742 704.371 271.523 704.674 271.698 C 704.814 271.779 704.901 271.929 704.901 272.091 L 704.901 277.313 C 704.901 277.564 704.698 277.767 704.447 277.767 Z" fill="#3f3d56" style=""/>
    <path d="M 701.268 280.492 C 701.018 280.492 700.814 280.288 700.814 280.038 L 700.814 274.816 C 700.814 274.466 701.193 274.248 701.496 274.423 C 701.636 274.504 701.723 274.654 701.723 274.816 L 701.723 280.038 C 701.723 280.288 701.519 280.492 701.268 280.492 Z" fill="#3f3d56" style=""/>
    <path d="M 707.625 281.854 C 707.375 281.854 707.171 281.651 707.171 281.4 L 707.171 276.178 C 707.171 275.829 707.55 275.61 707.852 275.785 C 707.993 275.866 708.08 276.016 708.08 276.178 L 708.08 281.4 C 708.079 281.651 707.876 281.854 707.625 281.854 Z" fill="#3f3d56" style=""/>
    <path d="M 717.021 241.298 L 690.685 241.298 C 687.889 241.298 686.141 238.271 687.54 235.849 C 688.189 234.725 689.388 234.033 690.685 234.033 L 717.021 234.033 C 719.818 234.033 721.565 237.06 720.167 239.482 C 719.518 240.606 718.319 241.298 717.021 241.298 Z" fill="#6c63ff" style=""/>
  </g>
</svg>