<?xml version="1.0" encoding="utf-8"?>
<svg viewBox="18.3213 45.17 226.3087 371.501" xmlns="http://www.w3.org/2000/svg">
  <defs/>
  <path d="M 35.509 401.396 C 31.712 401.553 28.252 403.086 26.686 405.461 C 26.613 405.572 26.544 405.684 26.479 405.799 C 25.908 406.81 25.73 407.974 26.354 408.97 C 26.979 409.967 28.54 410.724 30.107 410.567 C 31.675 410.41 32.899 409.16 32.25 408.17 C 32.105 410.17 31.986 412.271 33.599 414.012 C 34.486 414.922 35.644 415.52 36.899 415.718 C 40.148 416.289 42.305 414.452 42.737 412.597 C 43.056 411.228 42.616 409.835 42.177 408.482 C 43.529 410.08 46.742 410.79 49.203 410.036 C 51.664 409.281 53.03 407.166 52.189 405.412 C 51.198 403.346 47.896 402.278 44.829 401.713 C 42.296 401.247 38.498 401.272 35.509 401.396 Z" fill="#f2f2f2" style="transform-origin: 39.1995px 408.571px;" transform="matrix(-1, 0, 0, -1, 0.000007629394, 0)"/>
  <path d="M 155.14 402.684 C 151.662 402.828 148.494 404.232 147.061 406.406 C 146.994 406.508 146.93 406.611 146.871 406.716 C 146.348 407.642 146.184 408.707 146.756 409.62 C 147.329 410.533 148.758 411.226 150.193 411.082 C 151.628 410.939 152.749 409.794 152.155 408.887 C 152.023 410.719 151.914 412.643 153.39 414.237 C 154.203 415.07 155.263 415.617 156.413 415.799 C 159.388 416.322 161.363 414.64 161.759 412.941 C 162.051 411.687 161.647 410.412 161.246 409.173 C 162.483 410.636 165.426 411.287 167.679 410.596 C 169.933 409.905 171.184 407.968 170.414 406.362 C 169.506 404.47 166.482 403.492 163.674 402.975 C 161.355 402.548 157.876 402.57 155.14 402.684 Z" fill="#f2f2f2" style="transform-origin: 158.519px 409.255px;" transform="matrix(-1, 0, 0, -1, 0, 0)"/>
  <path d="M 222.052 170.566 L 197.078 170.566 C 192.942 170.57 189.59 173.578 189.586 177.29 L 189.586 219.263 C 189.59 222.975 192.942 225.982 197.078 225.987 L 222.052 225.987 C 226.187 225.982 229.539 222.975 229.544 219.263 L 229.544 177.29 C 229.539 173.578 226.187 170.57 222.052 170.566 Z" style="fill: rgb(228, 226, 226); transform-origin: 209.565px 198.276px;" transform="matrix(-1, 0, 0, -1, 0, 0)"/>
  <polygon points="128.336 389.412 122.777 389.412 120.132 410.856 128.337 410.856 128.336 389.412" fill="#ffb8b8" style="transform-origin: 124.235px 400.134px;" transform="matrix(-1, 0, 0, -1, 0, 0)"/>
  <path d="M 136.641 409.041 L 118.714 409.042 L 118.714 409.269 C 118.714 413.122 121.838 416.246 125.692 416.246 L 136.641 416.246 L 136.641 409.041 Z" fill="#2f2e41" style="transform-origin: 127.677px 412.643px;" transform="matrix(-1, 0, 0, -1, 0, 0.000061035154)"/>
  <polygon points="72.919 387.297 67.678 385.441 58.026 404.771 65.761 407.51 72.919 387.297" fill="#ffb8b8" style="transform-origin: 65.4725px 396.476px;" transform="matrix(-1, 0, 0, -1, 0, -0.000061035157)"/>
  <path d="M 72.266 409.455 L 55.368 403.47 L 55.292 403.684 C 54.006 407.317 55.907 411.304 59.54 412.591 L 69.861 416.246 L 72.266 409.455 Z" fill="#2f2e41" style="transform-origin: 63.578px 409.858px;" transform="matrix(-1, 0, 0, -1, -0.000007629395, 0)"/>
  <path d="M 69.601 300.715 C 69.476 300.715 69.352 300.726 69.229 300.749 L 62.43 301.985 C 61.477 302.161 60.777 302.981 60.754 303.951 C 59.765 349.714 64.624 380.466 75.194 402.508 C 75.58 403.309 76.442 403.765 77.321 403.634 L 101.769 400.104 C 102.687 399.971 103.399 399.236 103.505 398.314 L 105.661 379.312 C 105.672 379.209 105.694 379.108 105.725 379.01 L 129.165 308.78 C 129.497 307.717 128.92 306.583 127.865 306.227 L 121.531 304.115 C 120.568 303.799 119.518 304.233 119.06 305.139 L 87.354 364.924 C 87.119 365.392 86.466 365.431 86.178 364.994 C 86.132 364.924 86.099 364.847 86.081 364.765 L 71.587 302.319 C 71.385 301.383 70.558 300.715 69.601 300.715 Z" fill="#2f2e41" style="transform-origin: 94.9436px 352.186px;" transform="matrix(-1, 0, 0, -1, 0, -0.000061035156)"/>
  <path d="M 119.634 283.3 C 119.69 283.055 119.726 282.806 119.743 282.556 L 139.223 271.318 L 143.958 274.043 L 149.006 267.435 L 141.092 261.795 C 139.779 260.859 138.006 260.902 136.74 261.901 L 116.652 277.748 C 113.216 276.476 109.691 279.401 110.307 283.013 C 110.924 286.625 115.219 288.216 118.039 285.876 C 118.837 285.214 119.397 284.309 119.634 283.3 Z" fill="#ffb8b8" style="transform-origin: 129.621px 274.049px;" transform="matrix(-1, 0, 0, -1, 0, 0.000061035156)"/>
  <path d="M 100.722 278.71 C 100.84 279.291 101.206 279.792 101.724 280.082 L 110.664 285.08 C 114.117 287.746 119.161 285.674 119.743 281.35 C 120.012 279.355 119.202 277.366 117.614 276.127 L 110.487 268.725 C 109.622 267.828 108.162 267.908 107.401 268.895 L 101.105 277.054 C 100.742 277.524 100.602 278.128 100.722 278.71 Z" style="transform-origin: 110.237px 277.184px; fill: rgb(12, 102, 225);" transform="matrix(-1, 0, 0, -1, 0.000015258789, 0)"/>
  <circle cx="-98.935" cy="252.541" r="11.138" fill="#ffb8b8" style="" transform="matrix(-0.9999999999999999, 0, 0, 0.9999999999999999, 0, -1.7763568394002505e-15)"/>
  <path d="M 107.413 267.331 C 107.303 267.331 107.192 267.339 107.083 267.357 L 82.979 271.309 C 81.83 271.497 81.072 272.607 81.313 273.746 L 82.486 279.275 C 81.885 280.17 76.998 287.957 82.951 295.271 C 82.713 300.674 86.822 305.283 92.217 305.665 L 104.674 306.612 C 111.588 307.136 116.938 300.657 115.113 293.966 L 109.403 268.918 C 109.19 267.99 108.365 267.332 107.413 267.331 Z" style="transform-origin: 97.7513px 286.986px; fill: rgb(12, 102, 225);" transform="matrix(-1, 0, 0, -1, 0, 0)"/>
  <path d="M 88.311 280.293 C 90.052 282.776 89.125 286.23 86.375 287.508 L 72.651 329.703 L 64.697 325.929 L 79.714 284.844 C 78.355 281.327 81.313 277.658 85.038 278.24 C 86.365 278.447 87.548 279.189 88.311 280.293 Z" fill="#ffb8b8" style="transform-origin: 76.946px 303.941px;" transform="matrix(-1, 0, 0, -1, 0, 0)"/>
  <path d="M 91.865 271.23 L 81.305 268.039 C 80.028 267.654 78.706 268.492 78.512 269.812 L 76.909 280.693 C 75.582 285.17 79.6 289.405 84.141 288.316 C 86.238 287.812 87.911 286.233 88.534 284.168 L 93.21 274.252 C 93.778 273.046 93.143 271.615 91.865 271.23 Z" style="transform-origin: 85.0355px 278.217px; fill: rgb(12, 102, 225);" transform="matrix(-1, 0, 0, -1, 0, -0.000061035157)"/>
  <path d="M 83.399 249.344 C 88.449 247.42 94.157 248.619 98.006 252.412 C 96.838 249.326 97.165 236.234 97.165 236.234 C 97.165 236.234 107.525 241.153 108.931 242.014 C 117.232 247.095 105.782 269.197 96.257 265.711 C 94.644 265.12 93.297 264.426 92.644 262.837 C 91.222 264.591 88.53 264.971 86.459 264.071 C 84.388 263.169 82.916 261.217 82.124 259.101 C 80.859 255.646 81.19 251.808 83.028 248.62 L 83.399 249.344 Z" style="transform-origin: 96.5805px 251.158px;" transform="matrix(-1, 0, 0, -1, 0, 0)"/>
  <g transform="matrix(-0.9999999999999999, 0, 0, 0.9999999999999999, 912.6782226562499, 3.791385889053343)" style="">
    <path d="M 704.194 90.962 C 700 90.962 697.378 86.421 699.475 82.789 C 701.573 79.156 706.816 79.156 708.913 82.789 C 709.391 83.617 709.643 84.557 709.643 85.513 C 709.64 88.521 707.202 90.959 704.194 90.962 Z M 704.194 80.973 C 700.699 80.973 698.514 84.756 700.262 87.784 C 702.01 90.811 706.379 90.811 708.126 87.784 C 708.525 87.093 708.735 86.31 708.735 85.513 C 708.732 83.007 706.701 80.975 704.194 80.973 Z" fill="#3f3d56" style=""/>
    <path d="M 704.015 78.702 C 703.765 78.702 703.561 78.499 703.561 78.248 L 703.561 73.026 C 703.561 72.677 703.94 72.458 704.242 72.633 C 704.383 72.714 704.469 72.864 704.469 73.026 L 704.469 78.248 C 704.469 78.499 704.266 78.702 704.015 78.702 Z" fill="#3f3d56" style=""/>
    <path d="M 696.929 85.789 L 691.707 85.789 C 691.358 85.789 691.139 85.41 691.314 85.107 C 691.395 84.967 691.545 84.88 691.707 84.88 L 696.929 84.88 C 697.279 84.88 697.497 85.259 697.322 85.562 C 697.241 85.702 697.091 85.789 696.929 85.789 Z" fill="#3f3d56" style=""/>
    <path d="M 716 85.789 L 710.778 85.789 C 710.429 85.789 710.21 85.41 710.385 85.107 C 710.466 84.967 710.616 84.88 710.778 84.88 L 716 84.88 C 716.349 84.88 716.568 85.259 716.393 85.562 C 716.312 85.702 716.162 85.789 716 85.789 Z" fill="#3f3d56" style=""/>
    <path d="M 710.635 80.824 C 710.285 80.824 710.067 80.445 710.241 80.143 C 710.262 80.106 710.288 80.073 710.319 80.044 L 712.505 77.922 C 712.756 77.679 713.176 77.798 713.262 78.137 C 713.301 78.295 713.254 78.461 713.138 78.574 L 710.951 80.696 C 710.866 80.778 710.753 80.824 710.635 80.824 Z" fill="#3f3d56" style=""/>
    <path d="M 697.3 80.824 C 697.181 80.824 697.068 80.778 696.983 80.696 L 694.797 78.574 C 694.546 78.331 694.652 77.907 694.989 77.811 C 695.145 77.767 695.313 77.809 695.429 77.922 L 697.616 80.044 C 697.867 80.287 697.76 80.711 697.424 80.806 C 697.383 80.818 697.342 80.824 697.3 80.824 Z" fill="#3f3d56" style=""/>
    <path d="M 695.567 93.232 C 695.217 93.232 694.999 92.854 695.174 92.551 C 695.192 92.519 695.215 92.489 695.241 92.462 L 697.428 90.21 C 697.671 89.959 698.095 90.066 698.191 90.402 C 698.235 90.558 698.192 90.726 698.079 90.843 L 695.893 93.095 C 695.807 93.183 695.69 93.232 695.567 93.232 Z" fill="#3f3d56" style=""/>
    <path d="M 713.275 93.686 C 713.153 93.687 713.036 93.637 712.951 93.549 L 710.31 90.843 C 710.066 90.593 710.184 90.173 710.523 90.086 C 710.68 90.046 710.846 90.093 710.96 90.209 L 713.6 92.915 C 713.845 93.165 713.727 93.586 713.388 93.672 C 713.351 93.682 713.313 93.686 713.275 93.686 Z" fill="#3f3d56" style=""/>
    <path d="M 704.015 98.227 C 703.765 98.227 703.561 98.024 703.561 97.773 L 703.561 92.551 C 703.561 92.202 703.94 91.983 704.242 92.158 C 704.383 92.239 704.469 92.389 704.469 92.551 L 704.469 97.773 C 704.469 98.024 704.266 98.227 704.015 98.227 Z" fill="#3f3d56" style=""/>
    <path d="M 717.022 57.361 L 690.686 57.361 C 687.889 57.361 686.142 54.334 687.54 51.912 C 688.189 50.788 689.388 50.096 690.686 50.096 L 717.022 50.096 C 719.818 50.096 721.566 53.123 720.167 55.545 C 719.519 56.669 718.319 57.361 717.022 57.361 Z" style="fill: rgb(12, 102, 225);"/>
    <path d="M 703.009 120.961 C 702.758 120.961 702.555 120.758 702.555 120.507 L 702.555 85.998 C 702.555 85.649 702.934 85.43 703.236 85.605 C 703.377 85.686 703.463 85.836 703.463 85.998 L 703.463 120.507 C 703.463 120.758 703.26 120.961 703.009 120.961 Z" fill="#e6e6e6" style="transform-origin: 703.009px 103.252px;" transform="matrix(0, 1, -1, 0, -0.000002, -0.000019)"/>
  </g>
  <g transform="matrix(-0.9999999999999999, 0, 0, 0.9999999999999999, 912.8309326171874, 4.367110252380369)" style="">
    <path d="M 712.102 151.836 L 696.944 151.836 C 692.4 151.76 689.643 146.792 691.982 142.896 C 693.031 141.148 694.906 140.065 696.944 140.031 L 698.103 140.031 C 699.277 137.545 701.774 135.955 704.523 135.944 C 708.323 135.979 711.443 138.96 711.65 142.755 L 712.102 142.755 C 715.597 142.813 717.719 146.633 715.922 149.631 C 715.115 150.977 713.671 151.811 712.102 151.836 Z M 696.944 140.939 C 693.099 141.016 690.779 145.226 692.769 148.518 C 693.655 149.984 695.231 150.894 696.944 150.928 L 712.102 150.928 C 714.898 150.871 716.583 147.807 715.135 145.414 C 714.49 144.35 713.346 143.689 712.102 143.663 L 711.21 143.663 C 710.959 143.663 710.756 143.46 710.756 143.209 C 710.786 139.734 707.998 136.891 704.523 136.852 C 702.028 136.865 699.782 138.365 698.813 140.664 C 698.741 140.831 698.577 140.939 698.396 140.939 L 696.944 140.939 Z" fill="#3f3d56" style=""/>
    <path d="M 717.022 115.057 L 690.686 115.057 C 687.89 115.057 686.142 112.03 687.54 109.608 C 688.189 108.484 689.388 107.792 690.686 107.792 L 717.022 107.792 C 719.818 107.792 721.566 110.819 720.168 113.241 C 719.519 114.365 718.32 115.057 717.022 115.057 Z" style="fill: rgb(12, 102, 225);"/>
    <path d="M 703.584 181.796 C 703.333 181.796 703.13 181.593 703.13 181.342 L 703.13 146.833 C 703.13 146.484 703.509 146.265 703.811 146.44 C 703.952 146.521 704.038 146.671 704.038 146.833 L 704.038 181.342 C 704.038 181.593 703.835 181.796 703.584 181.796 Z" fill="#e6e6e6" style="transform-box: fill-box; transform-origin: 50% 50%;" transform="matrix(0, 1, -1, 0, 0.000047, -0.000025)"/>
  </g>
  <g transform="matrix(-0.9999999999999999, 0, 0, 0.9999999999999999, 913.0419921874999, 3.438035011291502)" style="">
    <path d="M 711.424 205.575 L 711.07 204.739 C 714.29 203.377 714.829 199.041 712.04 196.932 C 709.667 195.138 706.238 196.073 705.103 198.824 L 704.264 198.477 C 705.864 194.599 711.062 193.907 713.62 197.231 C 715.798 200.061 714.712 204.185 711.424 205.575 Z" fill="#3f3d56" style=""/>
    <path d="M 712.101 214.176 L 696.944 214.176 C 692.4 214.1 689.643 209.132 691.981 205.236 C 693.03 203.488 694.906 202.405 696.944 202.371 L 698.103 202.371 C 699.277 199.885 701.774 198.295 704.523 198.284 C 708.323 198.319 711.443 201.3 711.65 205.095 L 712.101 205.095 C 715.597 205.153 717.719 208.973 715.921 211.971 C 715.114 213.317 713.67 214.151 712.101 214.176 Z M 696.944 203.279 C 693.099 203.356 690.779 207.566 692.768 210.858 C 693.655 212.324 695.231 213.234 696.944 213.268 L 712.101 213.268 C 714.898 213.211 716.583 210.147 715.135 207.754 C 714.49 206.69 713.346 206.029 712.101 206.003 L 711.21 206.003 C 710.959 206.003 710.756 205.8 710.756 205.549 C 710.786 202.074 707.997 199.231 704.523 199.192 C 702.028 199.205 699.782 200.705 698.813 203.004 C 698.741 203.171 698.577 203.279 698.395 203.279 L 696.944 203.279 Z" fill="#3f3d56" style=""/>
    <path d="M 717.022 177.397 L 690.686 177.397 C 687.89 177.397 686.142 174.37 687.54 171.948 C 688.189 170.824 689.388 170.132 690.686 170.132 L 717.022 170.132 C 719.818 170.132 721.566 173.159 720.168 175.581 C 719.519 176.705 718.32 177.397 717.022 177.397 Z" style="fill: rgb(12, 102, 225);"/>
    <path d="M 703.584 246.399 C 703.333 246.399 703.13 246.196 703.13 245.945 L 703.13 211.436 C 703.13 211.087 703.509 210.868 703.811 211.043 C 703.952 211.124 704.038 211.274 704.038 211.436 L 704.038 245.945 C 704.038 246.196 703.835 246.399 703.584 246.399 Z" fill="#e6e6e6" style="transform-origin: 703.584px 228.69px;" transform="matrix(0, 1, -1, 0, 0.000017, -0.000055)"/>
  </g>
  <g transform="matrix(-0.9999999999999999, 0, 0, 0.9999999999999999, 912.6782226562499, 3.791385889053343)" style="">
    <path d="M 712.102 341.698 L 710.279 341.698 C 709.929 341.698 709.711 341.32 709.886 341.017 C 709.967 340.877 710.117 340.79 710.279 340.79 L 712.102 340.79 C 714.898 340.732 716.583 337.669 715.135 335.276 C 714.49 334.211 713.346 333.551 712.102 333.525 L 711.21 333.525 C 710.959 333.525 710.756 333.322 710.756 333.071 C 710.786 329.596 707.998 326.752 704.523 326.714 C 702.028 326.727 699.782 328.227 698.813 330.526 C 698.741 330.692 698.577 330.8 698.396 330.801 L 696.944 330.801 C 693.099 330.878 690.779 335.088 692.769 338.379 C 693.655 339.846 695.231 340.756 696.944 340.79 L 698.352 340.79 C 698.701 340.79 698.92 341.168 698.745 341.471 C 698.664 341.612 698.514 341.698 698.352 341.698 L 696.944 341.698 C 692.4 341.621 689.643 336.654 691.982 332.757 C 693.03 331.01 694.906 329.927 696.944 329.892 L 698.103 329.892 C 699.277 327.407 701.774 325.817 704.523 325.806 C 708.323 325.841 711.443 328.822 711.65 332.617 L 712.102 332.617 C 715.597 332.674 717.719 336.494 715.922 339.493 C 715.115 340.838 713.67 341.672 712.102 341.698 Z" fill="#3f3d56" style=""/>
    <circle cx="703.741" cy="339.541" r="1.022" fill="#3f3d56" style=""/>
    <circle cx="707.145" cy="340.903" r="1.022" fill="#3f3d56" style=""/>
    <circle cx="701.47" cy="342.493" r="1.022" fill="#3f3d56" style=""/>
    <circle cx="702.863" cy="344.839" r="1.022" fill="#3f3d56" style=""/>
    <path d="M 717.022 307.189 L 690.686 307.189 C 687.89 307.189 686.142 304.162 687.54 301.74 C 688.189 300.616 689.388 299.924 690.686 299.924 L 717.022 299.924 C 719.818 299.924 721.566 302.951 720.168 305.373 C 719.519 306.497 718.32 307.189 717.022 307.189 Z" style="fill: rgb(12, 102, 225);"/>
  </g>
  <path d="M 191.551 415.764 L 18.775 415.764 C 18.426 415.764 18.208 416.142 18.383 416.444 C 18.464 416.585 18.613 416.671 18.775 416.671 L 191.551 416.671 C 191.9 416.671 192.119 416.293 191.944 415.991 C 191.863 415.851 191.713 415.764 191.551 415.764 Z" fill="#3f3d56" style="transform-origin: 105.163px 416.217px;" transform="matrix(-1, 0, 0, -1, 0, 0.00006103517)"/>
  <path d="M 350.298 237.458 L 68.868 237.458 C 59.745 237.453 52.352 232.749 52.343 226.944 L 52.343 177.877 C 52.352 172.072 59.745 167.368 68.868 167.363 L 350.298 167.363 C 359.421 167.368 366.814 172.072 366.823 177.877 L 366.823 226.944 C 366.814 232.749 359.421 237.453 350.298 237.458 Z M 365.822 177.877 C 365.811 172.425 358.867 168.007 350.298 168 L 68.868 168 C 60.299 168.007 53.355 172.425 53.344 177.877 L 53.344 226.944 C 53.355 232.396 60.299 236.814 68.868 236.821 L 350.298 236.821 C 358.867 236.814 365.811 232.396 365.822 226.944 L 365.822 177.877 Z" fill="#3f3d56" style="transform-origin: 209.583px 202.41px;" transform="matrix(0, 1, -1, 0, 0, 0.000005245209)"/>
  <g transform="matrix(-0.9999999999999999, 0, 0, 0.9999999999999999, 912.8413696289061, 3.2107110023498517)" style="">
    <path d="M 703.806 313.098 C 703.555 313.098 703.352 312.895 703.352 312.644 L 703.352 278.135 C 703.352 277.786 703.731 277.567 704.033 277.742 C 704.174 277.823 704.26 277.973 704.26 278.135 L 704.26 312.644 C 704.26 312.895 704.057 313.098 703.806 313.098 Z" fill="#e6e6e6" style="transform-origin: 703.806px 295.389px;" transform="matrix(0, 1, -1, 0, -0.00001, 0.000015)"/>
    <path d="M 712.101 275.807 L 710.278 275.807 C 709.929 275.807 709.71 275.429 709.885 275.126 C 709.966 274.986 710.116 274.899 710.278 274.899 L 712.101 274.899 C 714.897 274.841 716.582 271.778 715.134 269.385 C 714.49 268.32 713.345 267.66 712.101 267.634 L 711.209 267.634 C 710.959 267.634 710.755 267.431 710.755 267.18 C 710.785 263.705 707.997 260.861 704.522 260.823 C 702.028 260.836 699.781 262.336 698.812 264.635 C 698.741 264.801 698.577 264.909 698.395 264.91 L 696.943 264.91 C 693.098 264.987 690.779 269.197 692.768 272.488 C 693.654 273.955 695.23 274.865 696.943 274.899 L 698.351 274.899 C 698.701 274.899 698.919 275.277 698.744 275.58 C 698.663 275.721 698.513 275.807 698.351 275.807 L 696.943 275.807 C 692.399 275.73 689.642 270.763 691.981 266.866 C 693.03 265.119 694.906 264.036 696.943 264.001 L 698.103 264.001 C 699.276 261.516 701.774 259.926 704.522 259.915 C 708.323 259.95 711.442 262.931 711.65 266.726 L 712.101 266.726 C 715.596 266.783 717.719 270.603 715.921 273.602 C 715.114 274.947 713.67 275.781 712.101 275.807 Z" fill="#3f3d56" style=""/>
    <path d="M 704.447 277.767 C 704.196 277.767 703.993 277.564 703.993 277.313 L 703.993 272.091 C 703.993 271.742 704.371 271.523 704.674 271.698 C 704.814 271.779 704.901 271.929 704.901 272.091 L 704.901 277.313 C 704.901 277.564 704.698 277.767 704.447 277.767 Z" fill="#3f3d56" style=""/>
    <path d="M 701.268 280.492 C 701.018 280.492 700.814 280.288 700.814 280.038 L 700.814 274.816 C 700.814 274.466 701.193 274.248 701.496 274.423 C 701.636 274.504 701.723 274.654 701.723 274.816 L 701.723 280.038 C 701.723 280.288 701.519 280.492 701.268 280.492 Z" fill="#3f3d56" style=""/>
    <path d="M 707.625 281.854 C 707.375 281.854 707.171 281.651 707.171 281.4 L 707.171 276.178 C 707.171 275.829 707.55 275.61 707.852 275.785 C 707.993 275.866 708.08 276.016 708.08 276.178 L 708.08 281.4 C 708.079 281.651 707.876 281.854 707.625 281.854 Z" fill="#3f3d56" style=""/>
    <path d="M 717.021 241.298 L 690.685 241.298 C 687.889 241.298 686.141 238.271 687.54 235.849 C 688.189 234.725 689.388 234.033 690.685 234.033 L 717.021 234.033 C 719.818 234.033 721.565 237.06 720.167 239.482 C 719.518 240.606 718.319 241.298 717.021 241.298 Z" style="fill: rgb(12, 102, 225);"/>
  </g>
</svg>