<?xml version="1.0" encoding="utf-8"?>
<svg viewBox="0 233.534 420.449 404.447" xmlns="http://www.w3.org/2000/svg">
  <defs>
    <radialGradient gradientUnits="userSpaceOnUse" cx="99.858" cy="584.567" r="33.808" id="gradient-0">
      <stop offset="0" style="stop-color: rgb(24.706% 23.922% 33.725%)"/>
      <stop offset="1" style="stop-color: rgb(15.351% 14.811% 23.948%)"/>
    </radialGradient>
    <radialGradient gradientUnits="userSpaceOnUse" cx="101.409" cy="515.387" r="15.973" id="gradient-2">
      <stop offset="0" style="stop-color: rgb(94.902% 94.902% 94.902%)"/>
      <stop offset="1" style="stop-color: rgb(53.934% 53.934% 53.934%)"/>
    </radialGradient>
  </defs>
  <path d="M 82.555 485.248 C 87.987 505.331 106.596 517.769 106.596 517.769 C 106.596 517.769 116.396 497.646 110.963 477.563 C 105.531 457.48 86.922 445.042 86.922 445.042 C 86.922 445.042 77.122 465.165 82.555 485.248 Z" fill="#3f3d56" style=""/>
  <path d="M 86.965 480.949 C 101.872 495.461 103.693 517.769 103.693 517.769 C 103.693 517.769 81.344 516.549 66.436 502.037 C 51.529 487.525 49.708 465.217 49.708 465.217 C 49.708 465.217 72.057 466.437 86.965 480.949 Z" fill="#0c66e1" style=""/>
  <rect x="71.976" y="636.963" width="348.473" height="1.018" fill="#2f2e41" style=""/>
  <path d="M 133.666 637.774 L 66.049 637.774 L 66.049 531.36 L 133.666 531.36 L 133.666 637.774 Z M 71.25 629.584 L 128.465 629.584 L 128.465 539.544 L 71.25 539.544 L 71.25 629.584 Z" style="fill: url('#gradient-0'); fill-opacity: 0.55;"/>
  <rect y="249.596" width="178.503" height="178.503" fill="#3f3d56" style=""/>
  <path d="M 178.503 294.007 L 178.503 298.103 C 175.782 296.301 173.586 293.812 172.137 290.888 C 169.76 286.028 169.836 280.425 169.911 275.006 C 169.997 268.565 170.083 262.489 165.997 258.532 C 161.502 254.188 154.308 254.8 147.351 255.392 C 146.533 255.456 145.716 255.532 144.91 255.596 C 137.931 256.123 130.156 254.36 126.382 249.596 L 131.092 249.596 C 134.544 251.919 139.824 252.736 144.673 252.37 C 145.458 252.316 146.265 252.241 147.071 252.177 C 154.394 251.553 162.695 250.843 168.233 256.209 C 173.33 261.134 173.234 268.21 173.137 275.049 C 173.062 280.092 172.997 285.296 175.04 289.469 C 175.888 291.192 177.064 292.734 178.503 294.007 Z" fill="#0c66e1" style=""/>
  <path d="M 178.503 322.341 L 178.503 327.137 C 177.719 326.114 176.841 325.167 175.879 324.309 C 170.33 319.416 162.362 318.341 154.663 317.287 C 153.663 317.158 152.684 317.018 151.706 316.879 C 139.221 315.083 131.479 310.792 128.049 303.792 C 125.672 298.931 125.748 293.329 125.823 287.909 C 125.909 281.468 125.995 275.393 121.909 271.436 C 117.414 267.091 110.22 267.704 103.263 268.296 C 102.445 268.36 101.628 268.435 100.822 268.5 C 91.854 269.177 81.563 266.07 80.154 257.672 C 79.67 254.79 80.391 252.144 81.455 249.596 L 84.982 249.596 C 83.799 252.155 82.918 254.628 83.337 257.134 C 84.402 263.543 93.026 265.844 100.585 265.274 C 101.37 265.22 102.177 265.145 102.983 265.08 C 110.306 264.457 118.607 263.747 124.145 269.113 C 129.242 274.038 129.146 281.113 129.049 287.952 C 128.974 292.996 128.909 298.2 130.952 302.372 C 133.877 308.351 140.813 312.05 152.168 313.685 C 153.136 313.825 154.114 313.964 155.093 314.093 C 163.265 315.201 171.728 316.352 178.019 321.889 C 178.18 322.029 178.341 322.18 178.503 322.341 Z" fill="#0c66e1" style=""/>
  <path d="M 178.503 403.183 L 178.503 409.807 C 174.621 405.678 171.373 400.011 168.889 392.925 C 168.362 391.42 167.857 389.882 167.352 388.344 C 164.566 379.924 161.685 371.225 154.824 365.666 C 147.49 359.73 136.985 358.418 126.823 357.149 C 125.522 356.988 124.221 356.827 122.93 356.654 C 106.456 354.472 96.252 349.278 91.724 340.783 C 88.585 334.879 88.681 328.083 88.778 321.513 C 88.896 313.706 89.015 306.33 83.617 301.534 C 77.692 296.265 68.197 297.007 59.024 297.727 C 57.938 297.813 56.863 297.899 55.809 297.974 C 43.97 298.792 30.388 295.028 28.539 284.845 C 27.625 279.855 29.958 275.436 32.206 271.156 C 33.496 268.704 34.722 266.371 35.346 263.973 C 36.658 259.037 35.034 253.478 31.431 249.596 L 36.701 249.596 C 39.776 254.063 40.79 259.634 39.486 264.898 C 38.744 267.704 37.367 270.328 36.034 272.866 C 33.98 276.758 32.055 280.436 32.733 284.2 C 34.152 291.963 45.518 294.759 55.486 294.071 C 56.529 293.996 57.594 293.91 58.658 293.834 C 68.315 293.071 79.262 292.222 86.574 298.727 C 93.294 304.695 93.165 313.276 93.036 321.567 C 92.95 327.685 92.854 333.998 95.542 339.062 C 99.402 346.299 108.564 350.794 123.543 352.783 C 124.812 352.955 126.102 353.117 127.393 353.278 C 138.189 354.622 149.34 356.009 157.631 362.73 C 165.405 369.031 168.47 378.268 171.416 387.204 C 171.922 388.731 172.427 390.237 172.943 391.731 C 174.31 395.766 176.178 399.613 178.503 403.183 Z" fill="#0c66e1" style=""/>
  <path d="M 0 321.674 C 4.903 327.61 15.302 329.804 24.625 329.159 C 25.679 329.083 26.754 328.997 27.84 328.911 C 37.012 328.191 46.507 327.449 52.432 332.718 C 57.831 337.514 57.712 344.891 57.594 352.697 C 57.497 359.268 57.4 366.064 60.54 371.967 C 65.067 380.462 75.272 385.656 91.746 387.839 C 93.036 388.011 94.338 388.172 95.639 388.333 C 105.8 389.602 116.306 390.914 123.64 396.85 C 130.5 402.409 133.382 411.109 136.167 419.528 C 136.673 421.066 137.178 422.604 137.705 424.109 C 138.189 425.496 138.705 426.819 139.243 428.099 L 143.845 428.099 C 143.039 426.346 142.35 424.593 141.759 422.916 C 141.243 421.421 140.737 419.915 140.232 418.388 C 137.286 409.453 134.221 400.216 126.447 393.914 C 118.156 387.194 107.005 385.806 96.209 384.462 C 94.918 384.301 93.628 384.14 92.359 383.968 C 77.38 381.978 68.218 377.483 64.358 370.247 C 61.669 365.182 61.766 358.87 61.852 352.751 C 61.981 344.46 62.11 335.879 55.39 329.911 C 48.077 323.406 37.131 324.255 27.474 325.019 C 26.41 325.094 25.345 325.18 24.302 325.255 C 14.334 325.944 2.968 323.148 1.548 315.384 C 0.871 311.62 2.796 307.943 4.85 304.05 C 6.183 301.512 7.56 298.889 8.301 296.082 C 10.323 288.404 6.914 279.898 0 275.253 L 0 280.522 C 3.774 284.415 5.495 290.103 4.161 295.157 C 3.538 297.555 2.312 299.889 1.022 302.34 C 0.677 302.996 0.333 303.641 0 304.308 L 0 321.674 Z" fill="#0c66e1" style=""/>
  <path d="M 78.961 428.099 L 74.498 428.099 C 74.261 427.4 74.036 426.69 73.799 425.98 C 71.014 417.56 68.132 408.861 61.272 403.302 C 53.938 397.366 43.432 396.054 33.27 394.785 C 31.969 394.624 30.668 394.463 29.378 394.291 C 14.839 392.366 5.172 388.086 0 381.269 L 0 370.569 C 0.332 372.705 1.004 374.774 1.989 376.698 C 5.85 383.935 15.011 388.43 29.991 390.419 C 31.259 390.591 32.55 390.753 33.84 390.914 C 44.636 392.258 55.787 393.645 64.078 400.366 C 71.853 406.667 74.917 415.904 77.864 424.84 C 78.229 425.937 78.584 427.023 78.961 428.099 Z" fill="#0c66e1" style=""/>
  <rect x="241.946" y="249.596" width="178.503" height="178.503" fill="#3f3d56" style=""/>
  <path d="M 327.972 262.5 C 327.968 306.375 280.47 333.794 242.474 311.853 C 242.297 311.752 242.122 311.649 241.946 311.545 L 241.946 249.596 L 326.498 249.596 C 327.483 253.826 327.977 258.156 327.972 262.5 Z" fill="#0c66e1" style=""/>
  <circle cx="374.21" cy="297.985" r="34.41" fill="#0c66e1" style=""/>
  <circle cx="296.787" cy="371.107" r="24.732" fill="#0c66e1" style=""/>
  <path d="M 420.449 398.85 L 420.449 428.099 L 385.06 428.099 C 379.267 409.961 395.281 392.354 413.886 396.406 C 416.178 396.905 418.388 397.728 420.449 398.85 L 420.449 398.85 Z" fill="#0c66e1" style=""/>
  <circle cx="359.156" cy="370.031" r="6.452" fill="#0c66e1" style=""/>
  <circle cx="87.491" cy="249.736" r="16.202" fill="#f2f2f2" style=""/>
  <circle cx="337.811" cy="249.736" r="16.202" fill="#f2f2f2" style=""/>
  <circle cx="321.204" cy="328.721" r="15.392" fill="#ffb8b8" style=""/>
  <path d="M 313.103 336.012 C 313.103 336.012 317.153 357.074 315.533 361.125 C 313.913 365.175 338.216 359.505 338.216 359.505 C 338.216 359.505 333.355 338.442 334.166 333.582 C 334.976 328.721 313.103 336.012 313.103 336.012 Z" fill="#ffb8b8" style=""/>
  <polygon points="286.37 408.921 287.99 430.793 296.031 465.144 298.521 474.539 302.572 459.957 298.521 426.743 297.145 411.789 286.37 408.921" fill="#ffb8b8" style=""/>
  <path d="M 371.43 405.68 L 371.43 428.363 C 371.43 428.363 369 457.527 364.139 464.818 C 359.279 472.108 357.658 435.654 357.658 435.654 L 361.467 408.921 L 371.43 405.68 Z" fill="#ffb8b8" style=""/>
  <path d="M 299.331 476.159 C 299.331 476.159 295.281 481.019 298.521 530.435 C 301.762 579.851 296.901 615.496 307.432 615.496 C 307.432 615.496 304.192 626.027 313.103 626.837 C 322.014 627.647 326.065 628.457 326.875 626.027 C 327.685 623.597 329.305 612.255 326.875 612.255 C 326.875 612.255 326.875 615.496 328.495 602.534 C 330.115 589.573 330.115 528.005 334.166 519.904 L 347.127 549.878 C 347.127 549.878 347.127 563.65 349.557 570.13 C 351.988 576.611 356.038 613.876 356.038 613.876 L 355.228 619.546 C 355.228 619.546 374.67 622.787 375.481 619.546 C 376.291 616.306 376.291 611.445 375.481 609.825 C 374.67 608.205 374.67 608.205 376.291 604.965 C 377.911 601.724 377.911 599.294 377.101 596.864 C 376.291 594.433 376.291 541.777 376.291 541.777 C 376.291 541.777 374.67 477.779 364.949 474.539 C 355.228 471.298 299.331 476.159 299.331 476.159 Z" fill="#2f2e41" style=""/>
  <path d="M 309.863 620.356 L 303.382 631.698 C 303.382 631.698 293.256 628.052 295.281 637.368 C 312.698 638.584 324.849 636.963 324.849 636.963 C 324.849 636.963 328.9 638.584 329.71 636.153 C 330.52 633.723 327.685 625.217 325.254 625.217 C 322.824 625.217 309.863 620.356 309.863 620.356 Z" fill="#2f2e41" style=""/>
  <path d="M 356.848 617.116 C 356.848 617.116 350.368 631.698 352.798 632.508 C 355.228 633.318 377.101 636.558 378.721 637.368 C 380.341 638.179 388.442 638.989 389.252 634.128 C 390.062 629.267 385.202 627.647 385.202 627.647 C 385.202 627.647 376.291 626.027 373.86 617.926 C 371.43 609.825 356.848 617.116 356.848 617.116 Z" fill="#2f2e41" style=""/>
  <path d="M 339.836 357.074 C 339.836 357.074 317.964 353.024 313.103 357.074 C 308.242 361.125 287.99 369.226 287.99 373.276 C 287.99 377.327 298.521 417.022 298.521 417.022 C 298.521 417.022 292.851 476.969 298.521 478.589 C 304.192 480.209 313.913 475.349 325.254 481.019 C 336.596 486.69 369 476.159 369 476.159 C 369 476.159 356.848 424.313 360.089 414.591 C 363.329 404.87 365.759 371.656 365.759 371.656 C 365.759 371.656 351.988 357.074 339.836 357.074 Z" fill="#8985a8" style=""/>
  <path d="M 293.661 370.846 L 287.99 372.466 C 287.99 372.466 275.838 410.541 280.699 412.161 C 285.56 413.781 299.331 417.022 300.952 417.022 C 302.572 417.022 293.661 370.846 293.661 370.846 Z" fill="#8985a8" style=""/>
  <path d="M 352.798 366.796 L 365.759 371.656 C 365.759 371.656 382.771 403.25 378.721 407.301 C 374.67 411.351 356.848 415.402 356.848 415.402 L 352.798 366.796 Z" fill="#8985a8" style=""/>
  <path d="M 320.736 309.71 C 319.456 309.478 318.141 309.536 316.886 309.88 C 315.882 310.324 314.958 310.931 314.15 311.675 C 312.684 312.843 311.119 313.88 309.471 314.774 C 308.159 315.487 306.748 316.147 305.831 317.326 C 305.398 317.922 305.052 318.577 304.804 319.271 C 303.225 323.303 302.801 327.695 303.579 331.954 C 303.666 332.559 303.848 333.147 304.118 333.696 C 304.96 335.247 306.82 335.858 308.386 336.672 C 311.36 338.215 313.615 340.815 316.054 343.113 C 316.96 344.017 317.979 344.802 319.084 345.448 C 322.564 347.345 326.818 346.726 330.725 346.055 C 331.89 346.053 332.83 345.102 332.818 343.937 L 335.902 330.068 C 336.461 328.013 336.727 325.89 336.692 323.76 C 336.477 320.394 334.655 315.73 332.184 313.338 C 329.305 310.552 324.5 310.108 320.736 309.71 Z" fill="#2f2e41" style=""/>
  <circle cx="101.409" cy="515.387" r="15.973" style="paint-order: fill; fill-rule: nonzero; fill: url('#gradient-2');"/>
</svg>