<?xml version="1.0" encoding="utf-8"?>
<svg viewBox="-0.0007 332.416 497.3347 417.114" xmlns="http://www.w3.org/2000/svg">
  <path d="M 323.749 744.866 L 230.584 576.893 C 230.531 576.058 230.064 575.305 229.341 574.886 C 228.932 574.651 228.465 574.539 227.995 574.56 C 227.98 574.559 227.965 574.56 227.949 574.559 C 227.934 574.56 227.919 574.559 227.904 574.56 C 226.58 574.498 225.442 575.492 225.326 576.813 L 126.584 744.866 C 125.62 746.535 126.823 748.622 128.751 748.623 C 129.647 748.624 130.474 748.146 130.922 747.37 L 227.883 582.348 L 319.412 747.37 C 320.375 749.04 322.785 749.041 323.749 747.373 C 324.197 746.597 324.197 745.641 323.749 744.866 Z" fill="#3f3d56" style="" transform="matrix(1, 0, 0, 1, 0, -2.842170943040401e-14)"/>
  <polygon points="212.512 716.046 223.042 713.63 218.734 671.863 203.192 675.429 212.512 716.046" fill="#ffb6b6" style="" transform="matrix(1, 0, 0, 1, 0, -2.842170943040401e-14)"/>
  <path d="M 220.653 695.869 L 205.667 699.307 L 200.875 689.943 L 200.604 689.611 C 198.478 687.002 197.299 683.75 197.257 680.385 L 184.801 647.436 L 183.782 646.952 C 180.439 645.362 179.256 641.194 181.265 638.084 L 179.947 634.596 L 142.738 634.664 L 142.701 634.654 L 97.009 621.837 L 101.806 593.237 L 114.659 601.322 C 118.895 601.048 191.446 596.593 198.148 612.852 C 204.116 627.331 212.717 652.067 218.881 670.269 C 219.189 671.086 219.571 671.873 220.023 672.62 C 220.982 674.097 221.544 675.796 221.657 677.553 C 221.73 678.318 221.875 679.074 222.092 679.81 C 224.654 687.469 220.751 695.667 220.712 695.749 L 220.653 695.869 Z" fill="#2f2e41" style="" transform="matrix(1, 0, 0, 1, 0, -2.842170943040401e-14)"/>
  <path d="M 208.954 712.554 L 212.378 711.769 L 224.498 703.266 L 232.909 707.058 L 232.91 707.058 C 241.341 705.124 249.744 710.391 251.678 718.822 L 251.792 719.318 L 212.571 728.316 L 208.954 712.554 Z" fill="#2f2e41" style="" transform="matrix(1, 0, 0, 1, 0, -2.842170943040401e-14)"/>
  <path d="M 53.472 713.492 C 54.542 701.839 61.368 690.171 72.317 686.038 C 68.335 698.125 68.757 711.232 73.508 723.038 C 75.357 727.584 77.887 732.449 76.436 737.137 C 75.533 740.055 73.168 742.341 70.49 743.809 C 67.812 745.276 64.812 746.031 61.849 746.772 L 61.278 747.276 C 56.198 736.734 52.401 725.146 53.472 713.492 Z" fill="#f0f0f0" style="" transform="matrix(1, 0, 0, 1, 0, -2.842170943040401e-14)"/>
  <path d="M 72.434 686.254 C 66.219 693.684 62.504 702.884 61.816 712.546 C 61.63 714.623 61.774 716.717 62.241 718.749 C 62.759 720.715 63.795 722.505 65.24 723.935 C 66.56 725.296 68.068 726.534 69.035 728.192 C 70.01 729.923 70.201 731.988 69.558 733.868 C 68.826 736.204 67.299 738.139 65.74 739.979 C 64.008 742.021 62.177 744.116 61.499 746.772 C 61.417 747.094 60.922 746.948 61.004 746.626 C 62.185 742.005 66.546 739.261 68.533 735.069 C 69.461 733.113 69.804 730.865 68.811 728.864 C 67.944 727.113 66.389 725.835 65.041 724.469 C 63.611 723.095 62.539 721.391 61.919 719.508 C 61.35 717.505 61.127 715.421 61.257 713.343 C 61.477 708.661 62.431 704.043 64.085 699.658 C 65.945 694.642 68.649 689.982 72.08 685.878 C 72.293 685.624 72.645 686.002 72.434 686.254 L 72.434 686.254 Z" fill="#fff" style="" transform="matrix(1, 0, 0, 1, 0, -2.842170943040401e-14)"/>
  <path d="M 61.854 709.422 C 58.538 708.728 56.213 705.735 56.361 702.351 C 56.372 702.153 56.593 702.04 56.76 702.148 C 56.831 702.195 56.875 702.275 56.877 702.36 C 56.733 705.513 58.907 708.3 62 708.927 C 62.325 708.993 62.177 709.488 61.854 709.422 L 61.854 709.422 Z" fill="#fff" style="" transform="matrix(1, 0, 0, 1, 0, -2.842170943040401e-14)"/>
  <path d="M 64.479 723.334 C 67.301 721.524 69.337 718.716 70.181 715.471 C 70.265 715.15 70.759 715.296 70.676 715.617 C 69.791 718.992 67.667 721.909 64.726 723.787 C 64.446 723.966 64.201 723.512 64.479 723.334 L 64.479 723.334 Z" fill="#fff" style="" transform="matrix(1, 0, 0, 1, 0, -2.842170943040401e-14)"/>
  <path d="M 66.439 695.115 C 67.646 695.642 69.036 695.526 70.14 694.808 C 70.418 694.626 70.663 695.08 70.386 695.261 C 69.164 696.049 67.631 696.179 66.293 695.61 C 66.159 695.566 66.083 695.426 66.118 695.29 C 66.159 695.153 66.302 695.076 66.439 695.115 L 66.439 695.115 Z" fill="#fff" style="" transform="matrix(1, 0, 0, 1, 0, -2.842170943040401e-14)"/>
  <path d="M 106.725 705.686 C 106.555 705.805 106.385 705.924 106.214 706.047 C 103.932 707.655 101.785 709.445 99.792 711.401 C 99.636 711.55 99.48 711.703 99.328 711.856 C 94.579 716.619 90.755 722.222 88.051 728.381 C 86.978 730.832 86.092 733.362 85.402 735.948 C 84.45 739.52 83.702 743.468 81.684 746.429 C 81.477 746.74 81.251 747.039 81.007 747.322 L 61.937 747.935 C 61.893 747.914 61.849 747.898 61.805 747.878 L 61.045 747.937 C 61.071 747.801 61.101 747.661 61.127 747.525 C 61.142 747.446 61.161 747.367 61.176 747.288 C 61.188 747.236 61.199 747.183 61.206 747.135 C 61.21 747.117 61.214 747.1 61.218 747.087 C 61.225 747.038 61.237 746.994 61.244 746.951 C 61.41 746.166 61.583 745.381 61.761 744.595 C 61.76 744.591 61.76 744.591 61.765 744.586 C 63.064 738.589 65.07 732.768 67.741 727.243 C 67.822 727.079 67.904 726.911 67.995 726.747 C 69.235 724.3 70.673 721.958 72.295 719.745 C 73.187 718.536 74.14 717.373 75.149 716.26 C 77.763 713.391 80.812 710.95 84.185 709.028 C 90.909 705.197 98.783 703.559 106.163 705.53 C 106.352 705.581 106.537 705.631 106.725 705.686 Z" fill="#f0f0f0" style="" transform="matrix(1, 0, 0, 1, 0, -2.842170943040401e-14)"/>
  <path d="M 106.69 705.93 C 97.255 708.121 88.75 713.229 82.383 720.529 C 80.984 722.076 79.838 723.834 78.987 725.738 C 78.218 727.62 77.967 729.673 78.259 731.685 C 78.495 733.566 78.953 735.463 78.727 737.368 C 78.464 739.337 77.372 741.101 75.727 742.215 C 73.736 743.64 71.352 744.265 68.999 744.795 C 66.387 745.384 63.664 745.954 61.523 747.666 C 61.264 747.874 60.957 747.459 61.216 747.252 C 64.941 744.273 70.075 744.708 74.186 742.557 C 76.104 741.554 77.731 739.966 78.144 737.77 C 78.505 735.85 78.034 733.894 77.779 731.991 C 77.465 730.033 77.635 728.028 78.274 726.15 C 79.025 724.209 80.102 722.41 81.457 720.83 C 84.451 717.224 87.993 714.111 91.954 711.605 C 96.459 708.72 101.424 706.627 106.634 705.417 C 106.957 705.342 107.011 705.855 106.69 705.93 L 106.69 705.93 Z" fill="#fff" style="" transform="matrix(1, 0, 0, 1, 0, -2.842170943040401e-14)"/>
  <path d="M 84.294 718.058 C 82.064 715.508 82.01 711.718 84.165 709.105 C 84.377 708.85 84.784 709.168 84.572 709.423 C 82.559 711.854 82.617 715.388 84.709 717.751 C 84.928 717.999 84.513 718.305 84.294 718.058 L 84.294 718.058 Z" fill="#fff" style="" transform="matrix(1, 0, 0, 1, 0, -2.842170943040401e-14)"/>
  <path d="M 78.014 730.747 C 81.358 731 84.673 729.984 87.301 727.902 C 87.561 727.695 87.868 728.11 87.608 728.316 C 84.87 730.478 81.417 731.528 77.939 731.257 C 77.607 731.231 77.685 730.721 78.014 730.747 L 78.014 730.747 Z" fill="#fff" style="" transform="matrix(1, 0, 0, 1, 0, -2.842170943040401e-14)"/>
  <path d="M 96.568 709.395 C 97.215 710.542 98.395 711.288 99.708 711.378 C 100.04 711.4 99.962 711.91 99.633 711.888 C 98.182 711.782 96.879 710.963 96.154 709.702 C 96.074 709.587 96.097 709.429 96.208 709.342 C 96.322 709.258 96.483 709.282 96.568 709.395 L 96.568 709.395 Z" fill="#fff" style="" transform="matrix(1, 0, 0, 1, 0, -2.842170943040401e-14)"/>
  <path d="M 365.474 713.492 C 364.403 701.839 357.577 690.171 346.628 686.038 C 350.61 698.125 350.188 711.232 345.437 723.038 C 343.588 727.584 341.059 732.449 342.51 737.137 C 343.413 740.055 345.777 742.341 348.455 743.809 C 351.133 745.276 354.133 746.031 357.096 746.772 L 357.668 747.276 C 362.748 736.734 366.544 725.146 365.474 713.492 Z" fill="#f0f0f0" style="" transform="matrix(1, 0, 0, 1, 0, -2.842170943040401e-14)"/>
  <path d="M 346.511 686.254 C 352.726 693.684 356.441 702.884 357.13 712.546 C 357.315 714.623 357.171 716.717 356.705 718.749 C 356.186 720.715 355.15 722.505 353.706 723.935 C 352.385 725.296 350.877 726.534 349.91 728.192 C 348.935 729.923 348.745 731.988 349.387 733.868 C 350.119 736.204 351.646 738.139 353.206 739.979 C 354.937 742.021 356.768 744.116 357.447 746.772 C 357.529 747.094 358.023 746.948 357.941 746.626 C 356.761 742.005 352.399 739.261 350.412 735.069 C 349.485 733.113 349.141 730.865 350.134 728.864 C 351.002 727.113 352.556 725.835 353.905 724.469 C 355.335 723.095 356.406 721.391 357.026 719.508 C 357.595 717.505 357.819 715.421 357.688 713.343 C 357.469 708.661 356.515 704.043 354.861 699.658 C 353.001 694.642 350.296 689.982 346.865 685.878 C 346.653 685.624 346.3 686.002 346.511 686.254 L 346.511 686.254 Z" fill="#fff" style="" transform="matrix(1, 0, 0, 1, 0, -2.842170943040401e-14)"/>
  <path d="M 357.091 709.422 C 360.407 708.728 362.732 705.735 362.584 702.351 C 362.574 702.153 362.353 702.04 362.186 702.148 C 362.114 702.195 362.07 702.275 362.068 702.36 C 362.212 705.513 360.038 708.3 356.945 708.927 C 356.62 708.993 356.768 709.488 357.091 709.422 L 357.091 709.422 Z" fill="#fff" style="" transform="matrix(1, 0, 0, 1, 0, -2.842170943040401e-14)"/>
  <path d="M 354.466 723.334 C 351.644 721.523 349.608 718.716 348.764 715.471 C 348.681 715.15 348.186 715.296 348.269 715.617 C 349.154 718.992 351.279 721.909 354.219 723.787 C 354.5 723.966 354.745 723.512 354.466 723.334 L 354.466 723.334 Z" fill="#fff" style="" transform="matrix(1, 0, 0, 1, 0, -2.842170943040401e-14)"/>
  <path d="M 352.507 695.115 C 351.3 695.642 349.909 695.526 348.806 694.808 C 348.528 694.626 348.283 695.08 348.559 695.261 C 349.781 696.049 351.315 696.179 352.653 695.61 C 352.786 695.566 352.862 695.426 352.827 695.29 C 352.786 695.153 352.643 695.076 352.507 695.115 L 352.507 695.115 Z" fill="#fff" style="" transform="matrix(1, 0, 0, 1, 0, -2.842170943040401e-14)"/>
  <path d="M 312.22 705.686 C 312.39 705.805 312.561 705.924 312.731 706.047 C 315.013 707.655 317.161 709.445 319.153 711.401 C 319.309 711.55 319.466 711.703 319.617 711.856 C 324.367 716.619 328.19 722.222 330.894 728.381 C 331.968 730.832 332.853 733.362 333.543 735.948 C 334.495 739.52 335.244 743.468 337.261 746.429 C 337.468 746.74 337.694 747.039 337.938 747.322 L 357.008 747.935 C 357.052 747.914 357.096 747.898 357.14 747.878 L 357.901 747.937 C 357.874 747.801 357.844 747.661 357.818 747.525 C 357.803 747.446 357.784 747.367 357.769 747.288 C 357.758 747.236 357.746 747.183 357.739 747.135 C 357.735 747.117 357.731 747.1 357.728 747.087 C 357.72 747.038 357.709 746.995 357.701 746.951 C 357.535 746.166 357.363 745.381 357.185 744.595 C 357.185 744.591 357.185 744.591 357.181 744.586 C 355.882 738.589 353.876 732.768 351.205 727.243 C 351.123 727.079 351.041 726.911 350.951 726.747 C 349.71 724.3 348.272 721.958 346.65 719.745 C 345.758 718.536 344.806 717.373 343.796 716.26 C 341.182 713.391 338.133 710.95 334.76 709.028 C 328.037 705.197 320.163 703.559 312.782 705.53 C 312.594 705.581 312.409 705.631 312.22 705.686 Z" fill="#f0f0f0" style="" transform="matrix(1, 0, 0, 1, 0, -2.842170943040401e-14)"/>
  <path d="M 312.255 705.93 C 321.69 708.121 330.196 713.229 336.563 720.529 C 337.961 722.076 339.107 723.834 339.958 725.738 C 340.727 727.62 340.979 729.673 340.686 731.685 C 340.451 733.566 339.992 735.463 340.218 737.368 C 340.482 739.337 341.573 741.101 343.218 742.215 C 345.209 743.64 347.593 744.265 349.946 744.795 C 352.558 745.384 355.281 745.954 357.422 747.666 C 357.682 747.874 357.988 747.459 357.729 747.252 C 354.004 744.273 348.87 744.708 344.759 742.557 C 342.841 741.554 341.214 739.966 340.801 737.77 C 340.44 735.85 340.912 733.894 341.166 731.991 C 341.481 730.033 341.311 728.028 340.671 726.15 C 339.92 724.209 338.844 722.41 337.489 720.83 C 334.495 717.224 330.952 714.111 326.991 711.605 C 322.487 708.72 317.522 706.627 312.311 705.417 C 311.989 705.342 311.935 705.855 312.255 705.93 L 312.255 705.93 Z" fill="#fff" style="" transform="matrix(1, 0, 0, 1, 0, -2.842170943040401e-14)"/>
  <path d="M 334.651 718.058 C 336.881 715.508 336.936 711.718 334.78 709.105 C 334.568 708.85 334.161 709.168 334.374 709.423 C 336.386 711.854 336.328 715.388 334.237 717.751 C 334.017 717.999 334.432 718.305 334.651 718.058 L 334.651 718.058 Z" fill="#fff" style="" transform="matrix(1, 0, 0, 1, 0, -2.842170943040401e-14)"/>
  <path d="M 340.931 730.747 C 337.588 731 334.272 729.984 331.645 727.902 C 331.384 727.695 331.078 728.11 331.337 728.316 C 334.076 730.478 337.528 731.528 341.007 731.257 C 341.338 731.231 341.261 730.721 340.931 730.747 L 340.931 730.747 Z" fill="#fff" style="" transform="matrix(1, 0, 0, 1, 0, -2.842170943040401e-14)"/>
  <path d="M 322.377 709.395 C 321.73 710.542 320.551 711.288 319.237 711.378 C 318.905 711.4 318.983 711.91 319.313 711.888 C 320.763 711.782 322.066 710.963 322.791 709.702 C 322.871 709.587 322.848 709.429 322.738 709.342 C 322.623 709.258 322.462 709.282 322.377 709.395 L 322.377 709.395 Z" fill="#fff" style="" transform="matrix(1, 0, 0, 1, 0, -2.842170943040401e-14)"/>
  <path d="M 497.334 748.868 C 497.333 749.233 497.037 749.529 496.672 749.53 L 0.663 749.53 C 0.153 749.53 -0.166 748.978 0.089 748.537 C 0.207 748.332 0.426 748.206 0.663 748.206 L 496.672 748.206 C 497.037 748.206 497.333 748.502 497.334 748.868 Z" fill="#3f3d56" style="" transform="matrix(1, 0, 0, 1, 0, -2.842170943040401e-14)"/>
  <circle cx="319.494" cy="490.184" r="2.504" fill="#3f3d56" style="" transform="matrix(1, 0, 0, 1, 0, -2.842170943040401e-14)"/>
  <path d="M 288.136 509.474 L 321.897 488.263 C 323.636 487.17 325.907 488.37 325.984 490.423 C 326.023 491.463 325.454 492.431 324.526 492.902 L 288.983 510.969 C 288.393 511.269 287.699 510.817 287.734 510.156 C 287.749 509.877 287.899 509.622 288.136 509.474 L 288.136 509.474 Z" fill="#e4e4e4" style="" transform="matrix(1, 0, 0, 1, 0, -2.842170943040401e-14)"/>
  <path d="M 220.404 555.145 C 219.859 554.336 219.874 553.273 220.442 552.479 C 221.014 551.714 221.774 551.111 222.649 550.729 C 224.456 549.81 226.402 549.195 228.408 548.909 C 229.933 548.693 231.598 548.624 232.781 547.637 C 233.956 546.657 234.611 544.825 236.134 544.672 C 237.606 544.524 238.737 546.135 240.213 546.235 C 242.033 546.358 243.224 544.229 244.994 543.792 C 246.18 543.5 247.398 544.016 248.51 544.52 L 255.18 547.547 L 258.6 549.098 C 259.794 549.64 261.141 550.369 261.366 551.661 C 261.676 553.436 259.702 554.689 258.014 555.319 C 245.96 559.768 232.714 559.77 220.659 555.324" fill="#6c63ff" style="" transform="matrix(1, 0, 0, 1, 0, -2.842170943040401e-14)"/>
  <ellipse cx="230.454" cy="575.329" rx="87.649" ry="12.521" fill="#3f3d56" style="" transform="matrix(1, 0, 0, 1, 0, -2.842170943040401e-14)"/>
  <rect x="343.145" y="652.96" width="70.119" height="10.017" rx="9" fill="#3f3d56" style="" transform="matrix(1, 0, 0, 1, 0, -2.842170943040401e-14)"/>
  <path d="M 437.383 563.664 L 417.532 657.963 L 422.702 682.099 L 432.463 727.648 L 432.463 748.122 C 432.464 748.15 432.462 748.178 432.458 748.206 C 432.454 748.658 432.371 749.106 432.213 749.53 L 424.366 749.53 C 424.208 749.106 424.125 748.658 424.121 748.206 C 424.117 748.178 424.115 748.15 424.116 748.122 L 424.116 728.528 L 415.256 687.185 L 413.464 678.838 L 409.997 662.66 L 408.996 657.975 L 408.996 657.969 L 409.986 653.272 L 410.749 649.649 L 429.213 561.95 C 429.87 558.805 433.685 557.551 436.08 559.692 C 437.194 560.687 437.691 562.203 437.383 563.664 L 437.383 563.664 Z" fill="#3f3d56" style="" transform="matrix(1, 0, 0, 1, 0, -2.842170943040401e-14)"/>
  <path d="M 352.327 657.969 L 352.327 748.122 C 352.328 748.15 352.326 748.178 352.322 748.206 C 352.318 748.658 352.235 749.106 352.077 749.53 L 344.23 749.53 C 344.072 749.106 343.989 748.658 343.985 748.206 C 343.981 748.178 343.979 748.15 343.98 748.122 L 343.98 657.969 C 343.98 654.756 347.458 652.748 350.24 654.354 C 351.532 655.1 352.327 656.478 352.327 657.969 Z" fill="#3f3d56" style="" transform="matrix(1, 0, 0, 1, 0, -2.842170943040401e-14)"/>
  <path d="M 358.17 642.943 L 398.239 642.943 C 406.537 642.943 413.264 649.671 413.264 657.969 C 413.264 657.969 413.264 657.969 413.264 657.969 L 343.145 657.969 C 343.145 657.969 343.145 657.969 343.145 657.969 C 343.145 649.671 349.872 642.943 358.17 642.943 Z" fill="#3f3d56" style="" transform="matrix(1, 0, 0, 1, 0, -2.842170943040401e-14)"/>
  <path d="M 418.273 687.185 L 348.153 687.185 C 344.94 687.185 342.932 683.707 344.539 680.925 C 345.284 679.633 346.662 678.838 348.153 678.838 L 418.273 678.838 C 421.485 678.838 423.494 682.316 421.887 685.098 C 421.142 686.39 419.764 687.185 418.273 687.185 Z" fill="#3f3d56" style="" transform="matrix(1, 0, 0, 1, 0, -2.842170943040401e-14)"/>
  <rect x="-167.847" y="-663.129" width="80.743" height="11.535" rx="9" transform="matrix(-1, 0, 0, -1, 0, -2.842170943040401e-14)" fill="#3f3d56" style=""/>
  <path d="M 91.384 657.429 L 90.104 662.705 L 85.407 682.026 L 83.382 690.374 L 73.977 729.095 L 73.977 745.896 C 73.979 746.719 73.735 747.523 73.276 748.206 C 72.914 748.757 72.423 749.212 71.845 749.53 L 67.761 749.53 C 67.183 749.212 66.692 748.757 66.33 748.206 C 65.871 747.523 65.627 746.719 65.629 745.896 L 65.629 728.094 L 76.08 685.076 L 82.825 657.296 L 59.953 548.639 C 59.29 545.497 62.276 542.816 65.328 543.813 C 66.748 544.276 67.812 545.463 68.117 546.925 L 89.258 647.334 L 90.232 651.964 L 91.367 657.362 L 91.384 657.429 Z" fill="#3f3d56" style="" transform="matrix(1, 0, 0, 1, 0, -2.842170943040401e-14)"/>
  <path d="M 166.256 657.362 L 166.256 745.896 C 166.258 746.719 166.014 747.523 165.554 748.206 C 165.193 748.757 164.702 749.212 164.124 749.53 L 160.034 749.53 C 159.459 749.21 158.97 748.756 158.609 748.206 C 158.15 747.523 157.906 746.719 157.908 745.896 L 157.908 657.362 C 157.908 654.149 161.386 652.141 164.169 653.748 C 165.46 654.493 166.256 655.871 166.256 657.362 Z" fill="#3f3d56" style="" transform="matrix(1, 0, 0, 1, 0, -2.842170943040401e-14)"/>
  <path d="M 87.104 640.06 L 167.847 640.06 C 167.847 640.06 167.847 640.06 167.847 640.06 L 167.847 642.336 C 167.847 650.635 161.12 657.362 152.822 657.362 L 102.13 657.362 C 93.831 657.362 87.104 650.635 87.104 642.336 L 87.104 640.06 C 87.104 640.06 87.104 640.06 87.104 640.06 Z" fill="#3f3d56" style="transform-origin: 127.476px 648.711px;" transform="matrix(-1, 0, 0, -1, 0, -0.000122070314)"/>
  <path d="M 162.08 690.372 L 81.337 690.372 C 78.124 690.372 76.116 686.894 77.722 684.112 C 78.468 682.82 79.846 682.025 81.337 682.025 L 162.08 682.025 C 165.293 682.025 167.301 685.503 165.695 688.285 C 164.949 689.577 163.571 690.372 162.08 690.372 Z" fill="#3f3d56" style="" transform="matrix(1, 0, 0, 1, 0, -2.842170943040401e-14)"/>
  <polygon points="265.848 726.781 257.076 722.585 269.126 685.918 282.073 692.11 265.848 726.781" fill="#9e616a" style="" transform="matrix(1, 0, 0, 1, 0, -2.842170943040401e-14)"/>
  <polygon points="325.298 723.46 315.865 725.787 302.198 689.7 316.121 686.264 325.298 723.46" fill="#9e616a" style="" transform="matrix(1, 0, 0, 1, 0, -2.842170943040401e-14)"/>
  <path d="M 289.144 567.408 C 291.746 571.634 297.244 573.013 301.533 570.516 C 301.947 570.265 302.341 569.98 302.708 569.664 L 330.442 585.58 L 329.238 569.242 L 303.086 556.633 C 300.159 553.693 295.616 553.101 292.034 555.193 C 287.81 557.73 286.504 563.248 289.144 567.408 Z" fill="#9e616a" style="" transform="matrix(1, 0, 0, 1, 0, -2.842170943040401e-14)"/>
  <path d="M 318.519 579.587 L 323.421 582.574 L 345.438 596.001 C 351.521 599.806 359.538 597.956 363.337 591.869 C 364.967 589.184 365.544 585.989 364.956 582.902 L 355.17 534.013 C 353.634 525.856 345.197 520.979 337.362 523.718 C 330.93 525.978 327.363 532.847 329.213 539.409 L 339.445 574.105 L 323.76 566.792 L 318.519 579.587 Z" fill="#e6e6e6" style="" transform="matrix(1, 0, 0, 1, 0, -2.842170943040401e-14)"/>
  <path d="M 306.927 713.346 L 291.833 683.073 L 291.835 683.004 L 293.325 627.479 C 293.344 626.985 293.384 626.489 293.444 626.001 C 293.976 621.503 296.291 617.408 299.871 614.634 C 303.299 611.951 307.661 610.759 311.977 611.323 L 355.139 616.909 L 356.636 610.788 L 356.914 610.686 L 398.27 595.53 L 398.509 595.918 C 403.925 604.731 407.711 622.335 408.743 627.52 L 408.758 627.595 C 408.779 627.704 408.792 627.77 408.797 627.79 C 410.926 636.639 402.129 651.297 393.366 653.5 C 374.906 658.205 358.397 654.535 339.282 650.285 C 332.427 648.76 325.343 647.185 317.54 645.822 L 317.772 650.415 C 317.962 653.95 318.696 657.434 319.949 660.745 C 321.34 664.82 322.439 668.038 320.115 674.749 L 318.991 677.996 C 320.173 681.263 319.752 684.896 317.853 687.806 L 317.627 688.151 L 327.582 713.341 L 306.927 713.346 Z" fill="#2f2e41" style="" transform="matrix(1, 0, 0, 1, 0, -2.842170943040401e-14)"/>
  <path d="M 282.127 699.959 L 264.127 698.286 L 270.504 677.892 C 271.82 664.575 275.136 651.533 280.339 639.205 L 289.038 618.591 C 289.058 618.133 289.096 617.671 289.153 617.219 C 289.684 612.721 292 608.626 295.579 605.852 C 299.008 603.171 303.369 601.978 307.685 602.541 L 350.783 608.119 L 352.66 592.364 L 394.027 586.828 L 394.217 587.136 C 401.447 598.901 406.038 608.111 408.663 616.121 C 408.795 616.529 408.912 616.946 409.012 617.361 C 411.156 626.27 405.805 635.302 397.084 637.495 C 374.86 643.161 348.136 643.003 312.999 636.997 L 295.994 677.466 C 294.369 681.331 292.356 685.022 289.988 688.482 L 282.127 699.959 Z" fill="#2f2e41" style="" transform="matrix(1, 0, 0, 1, 0, -2.842170943040401e-14)"/>
  <ellipse cx="344.913" cy="474.344" rx="20.851" ry="21.315" fill="#9e616a" style="" transform="matrix(1, 0, 0, 1, 0, -2.842170943040401e-14)"/>
  <path d="M 350.934 608.863 L 347.942 598.145 L 347.207 592.858 L 342.906 593.002 L 334.467 573.522 L 331.189 568.386 C 330.521 567.682 329.915 567.005 329.373 566.356 C 325.957 562.495 323.219 558.085 321.273 553.313 C 319.909 549.883 319.108 546.256 318.902 542.572 C 318.29 531.688 322.878 520.173 332.928 507.371 C 332.764 506.917 332.654 506.446 332.601 505.967 C 332.227 502.73 334.531 499.796 337.765 499.392 L 347.458 498.304 C 348.981 498.131 350.509 498.577 351.701 499.541 C 352.945 500.538 353.736 501.992 353.898 503.578 C 354.028 504.793 353.789 506.018 353.212 507.095 C 363.305 508.376 371.711 515.45 374.699 525.175 C 380.499 536.004 385.122 547.422 388.489 559.236 C 389.153 561.55 388.857 563.934 388.571 566.24 C 388.308 568.37 388.035 570.572 388.494 572.767 C 388.96 575 390.084 577.239 391.273 579.611 C 392.635 582.326 394.043 585.134 394.424 587.997 L 394.451 588.198 L 350.934 608.863 Z" fill="#e4e4e4" style="" transform="matrix(1, 0, 0, 1, 0, -2.842170943040401e-14)"/>
  <path d="M 321.53 553.207 C 323.468 557.952 326.191 562.337 329.586 566.177 C 330.167 566.871 330.782 567.553 331.424 568.236 L 334.723 573.412 C 346.881 564.298 356.732 528.414 356.732 528.414 L 343.014 525.746 L 321.53 553.207 Z" opacity="0.2" style="isolation: isolate;" transform="matrix(1, 0, 0, 1, 0, -2.842170943040401e-14)"/>
  <path d="M 313.225 497.651 C 315.723 501.941 314.351 507.441 310.13 510.055 C 309.713 510.304 309.277 510.518 308.825 510.695 L 309.796 542.658 L 295.954 533.945 L 297.154 504.928 C 295.943 500.957 297.56 496.669 301.091 494.487 C 305.305 491.937 310.792 493.368 313.225 497.651 Z" fill="#9e616a" style="" transform="matrix(1, 0, 0, 1, 0, -2.842170943040401e-14)"/>
  <path d="M 311.012 530.593 L 295.791 532.757 L 296.445 564.278 C 296.522 568.85 298.962 573.056 302.893 575.393 C 307.745 578.248 313.9 577.549 317.988 573.679 L 353.924 539.114 C 359.174 534.133 359.615 525.918 354.928 520.404 C 350.221 514.832 341.837 514.258 336.415 519.136 C 336.059 519.454 335.722 519.79 335.403 520.144 L 311.674 547.442 L 311.012 530.593 Z" fill="#e6e6e6" style="" transform="matrix(1, 0, 0, 1, 0, -2.842170943040401e-14)"/>
  <polygon points="183.703 736.195 194.507 736.195 199.647 694.522 183.702 694.522 183.703 736.195" fill="#ffb6b6" style="" transform="matrix(1, 0, 0, 1, 0, -2.842170943040401e-14)"/>
  <circle cx="122.464" cy="474.715" r="21.564" fill="#ffb6b6" style="" transform="matrix(1, 0, 0, 1, 0, -2.842170943040401e-14)"/>
  <path d="M 198.033 723.358 L 182.734 723.358 L 178.833 718.129 L 177.778 713.204 L 176.869 712.324 C 174.331 709.888 173.802 706.026 175.59 702.997 L 164.502 651.264 C 161.598 651.009 128.847 648.08 106.081 644.051 C 100.255 643.02 95.706 640.188 92.561 635.634 C 84.832 624.442 88.143 606.333 88.177 606.152 L 88.216 605.95 L 88.42 605.927 L 141.596 599.958 L 141.668 599.992 C 143.432 600.828 184.964 620.545 191.751 627.332 C 194.816 630.397 201.653 648.605 203.184 667.964 C 203.458 671.432 202.472 674.964 201.517 678.379 C 200.624 681.575 199.701 684.88 199.884 688.004 C 200.165 692.824 200.432 697.88 200.677 703.032 C 200.716 703.853 201.334 704.703 201.932 705.524 C 202.557 706.383 203.147 707.193 203.185 708.042 C 203.548 716.269 198.171 723.183 198.117 723.252 L 198.033 723.358 Z" fill="#2f2e41" style="" transform="matrix(1, 0, 0, 1, 0, -2.842170943040401e-14)"/>
  <path d="M 201.517 532.149 C 196.584 530.8 191.631 534.239 191.17 539.332 L 173.253 544.932 L 174 556.65 L 199.191 548.386 C 205.547 548.54 209.686 541.755 206.641 536.174 C 205.556 534.187 203.704 532.732 201.517 532.149 L 201.517 532.149 Z" fill="#ffb6b6" style="" transform="matrix(1, 0, 0, 1, 0, -2.842170943040401e-14)"/>
  <path d="M 189.827 551.54 L 176.436 556.608 L 176.094 557.272 C 174.384 560.589 170.31 561.891 166.994 560.182 L 136.896 571.574 C 136.896 571.574 123.454 558.123 113.885 546.119 L 117.146 526.058 C 117.902 521.404 119.507 516.928 121.883 512.855 C 141.508 517.158 152.774 544.593 152.774 544.593 L 188.144 537.844 L 189.827 551.54 Z" style="fill: rgb(12, 102, 225);" transform="matrix(1, 0, 0, 1, 0, -2.842170943040401e-14)"/>
  <path d="M 119.4 495.126 C 114.002 496.584 108.05 494.645 103.837 490.968 C 99.624 487.291 96.989 482.081 95.47 476.699 C 94.358 472.758 93.831 468.383 95.586 464.683 C 97.341 460.982 102.064 458.486 105.708 460.355 C 103.46 457.736 104.583 453.404 107.208 451.164 C 109.834 448.923 113.439 448.281 116.872 447.93 C 121.855 447.42 127.003 447.363 131.744 448.978 C 136.486 450.592 140.794 454.121 142.278 458.905 C 145.395 460.357 149.099 459.52 151.291 456.871 C 151.855 459.913 150.309 462.956 147.519 464.293 L 154.784 461.938 C 156.033 464.582 153.844 467.856 151.044 468.703 C 148.245 469.55 145.223 468.624 142.566 467.4 C 139.909 466.177 137.334 464.63 134.448 464.153 C 131.563 463.675 128.173 464.603 126.838 467.205 C 126.139 468.568 126.102 470.165 125.696 471.642 C 125.291 473.12 124.262 474.651 122.735 474.772 C 121.77 474.848 120.825 474.334 119.863 474.44 C 118.67 474.57 117.757 475.65 117.44 476.808 C 117.2 477.987 117.197 479.202 117.431 480.382 L 119.276 494.488" fill="#2f2e41" style="" transform="matrix(1, 0, 0, 1, 0, -2.842170943040401e-14)"/>
  <path d="M 92.685 638.21 C 92.681 638.211 92.677 638.21 92.673 638.209 L 92.502 638.18 L 92.453 638.014 C 91.833 635.929 91.044 633.795 90.281 631.73 C 89.158 628.871 88.209 625.947 87.44 622.973 C 86.835 620.13 86.416 617.25 86.185 614.352 C 85.972 612.249 85.752 610.073 85.377 607.932 C 85.211 606.981 85.841 606.08 86.45 605.21 C 87.015 604.402 87.548 603.639 87.436 602.918 C 87.322 602.18 86.504 601.37 85.712 600.586 C 84.845 599.727 83.948 598.839 83.821 597.904 C 82.093 585.149 81.288 572.286 81.414 559.415 C 81.593 541.607 82.397 529.468 83.806 523.336 C 87.593 506.849 105.091 503.84 107.83 503.469 C 109.063 500.185 112.821 498.635 116.01 500.095 L 128.442 505.787 C 133.54 508.128 137.437 512.481 139.204 517.806 L 141.051 523.436 L 141.976 561.233 L 136.849 587.85 L 146.866 602.875 C 93.479 632.186 92.857 638.21 92.685 638.21 Z" style="fill: rgb(12, 102, 225);" transform="matrix(1, 0, 0, 1, 0, -2.842170943040401e-14)"/>
  <path d="M 177.889 731.996 L 181.402 731.996 L 195.116 726.419 L 202.467 731.995 L 202.468 731.995 C 211.118 731.995 218.13 739.007 218.131 747.657 L 218.131 748.166 L 177.89 748.168 L 177.889 731.996 Z" fill="#2f2e41" style="" transform="matrix(1, 0, 0, 1, 0, -2.842170943040401e-14)"/>
  <path d="M 206.003 559.121 C 201.593 556.532 195.914 558.559 194.14 563.356 L 175.383 564.087 L 172.856 572.824 L 199.522 574.189 C 205.618 575.996 211.383 570.526 209.899 564.344 C 209.371 562.143 207.963 560.255 206.003 559.121 L 206.003 559.121 Z" fill="#ffb6b6" style="" transform="matrix(1, 0, 0, 1, 0, -2.842170943040401e-14)"/>
  <path d="M 190.596 575.132 L 171.328 574.891 L 168.889 574.858 L 129.689 574.365 C 129.689 574.365 119.043 564.209 109.774 553.753 L 111.073 544.356 C 112.341 535.133 116.915 526.685 123.946 520.584 C 137.222 529.455 144.921 547.014 144.921 547.014 L 157.83 552.79 C 166.915 553.197 175.767 555.789 183.636 560.348 L 187.881 562.807 L 190.596 575.132 Z" style="fill: rgb(12, 102, 225);" transform="matrix(1, 0, 0, 1, 0, -2.842170943040401e-14)"/>
  <path d="M 332.181 741.235 L 325.77 742.817 L 323.132 737.047 L 321.695 743.823 L 304.692 748.019 C 301.75 748.745 299.124 746.014 299.967 743.103 C 300.129 742.542 300.414 742.024 300.801 741.587 L 312.065 728.859 L 310.554 722.74 L 325.047 720.068 L 332.181 741.235 Z" fill="#2f2e41" style="" transform="matrix(1, 0, 0, 1, 0, -2.842170943040401e-14)"/>
  <path d="M 264.265 743.213 L 258.151 740.718 L 259.416 734.5 L 254.265 739.132 L 238.051 732.513 C 235.245 731.368 234.731 727.615 237.125 725.757 C 237.587 725.4 238.121 725.149 238.692 725.024 L 255.29 721.366 L 257.672 715.531 L 270.96 721.903 L 264.265 743.213 Z" fill="#2f2e41" style="" transform="matrix(1, 0, 0, 1, 0, -2.842170943040401e-14)"/>
  <path d="M 242.975 573.103 L 237.966 573.103 C 226.753 573.09 217.667 564.003 217.654 552.79 L 217.654 552.512 L 263.287 552.512 L 263.287 552.79 C 263.274 564.003 254.188 573.09 242.975 573.103 Z" fill="#e4e4e4" style="" transform="matrix(1, 0, 0, 1, 0, -2.842170943040401e-14)"/>
  <path d="M 237.966 545.278 C 237.966 546.661 235.462 547.782 235.462 547.782 C 235.462 547.782 232.958 546.661 232.958 545.278 C 232.958 543.895 235.462 542.773 235.462 542.773 C 235.462 542.773 237.966 543.895 237.966 545.278 Z" fill="#3f3d56" style="" transform="matrix(1, 0, 0, 1, 0, -2.842170943040401e-14)"/>
  <path d="M 252.992 545.278 C 252.992 546.661 250.488 547.782 250.488 547.782 C 250.488 547.782 247.983 546.661 247.983 545.278 C 247.983 543.895 250.488 542.773 250.488 542.773 C 250.488 542.773 252.992 543.895 252.992 545.278 Z" fill="#3f3d56" style="" transform="matrix(1, 0, 0, 1, 0, -2.842170943040401e-14)"/>
  <path d="M 242.975 550.286 C 242.975 551.669 240.471 552.79 240.471 552.79 C 240.471 552.79 237.966 551.669 237.966 550.286 C 237.966 548.903 240.471 547.782 240.471 547.782 C 240.471 547.782 242.975 548.903 242.975 550.286 Z" fill="#3f3d56" style="" transform="matrix(1, 0, 0, 1, 0, -2.842170943040401e-14)"/>
  <circle cx="225.445" cy="537.487" r="2.504" fill="#3f3d56" style="" transform="matrix(1, 0, 0, 1, 0, -2.842170943040401e-14)"/>
  <path d="M 189.025 532.105 L 228.521 537.56 C 230.556 537.84 231.524 540.219 230.263 541.841 C 229.625 542.663 228.566 543.039 227.553 542.803 L 188.712 533.795 C 188.067 533.646 187.826 532.854 188.278 532.37 C 188.469 532.165 188.747 532.067 189.025 532.105 L 189.025 532.105 Z" fill="#e4e4e4" style="" transform="matrix(1, 0, 0, 1, 0, -2.842170943040401e-14)"/>
  <path d="M 237.019 407.662 L 237.019 332.416 L 232.011 332.416 L 232.011 407.662 C 217.828 408.956 206.97 420.849 206.968 435.09 L 206.968 442.603 L 224.498 442.603 C 224.498 450.314 232.846 455.134 239.524 451.278 C 242.623 449.489 244.532 446.182 244.532 442.603 L 262.062 442.603 L 262.062 435.09 C 262.06 420.849 251.202 408.956 237.019 407.662 Z" fill="#f0f0f0" style="" transform="matrix(1, 0, 0, 1, 0, -2.842170943040401e-14)"/>
  <path d="M 301.504 388.851 L 301.504 332.416 L 297.748 332.416 L 297.748 388.851 C 287.11 389.821 278.967 398.74 278.966 409.422 L 278.966 415.056 L 292.113 415.056 C 292.113 420.84 298.374 424.454 303.382 421.563 C 305.707 420.221 307.139 417.741 307.139 415.056 L 320.286 415.056 L 320.286 409.422 C 320.285 398.74 312.141 389.821 301.504 388.851 Z" fill="#f0f0f0" style="" transform="matrix(1, 0, 0, 1, 0, -2.842170943040401e-14)"/>
  <path d="M 174.622 388.851 L 174.622 332.416 L 170.865 332.416 L 170.865 388.851 C 160.228 389.821 152.085 398.74 152.084 409.422 L 152.084 415.056 L 165.231 415.056 C 165.231 420.84 171.492 424.454 176.5 421.563 C 178.824 420.221 180.256 417.741 180.256 415.056 L 193.404 415.056 L 193.404 409.422 C 193.402 398.74 185.259 389.821 174.622 388.851 Z" fill="#f0f0f0" style="" transform="matrix(1, 0, 0, 1, 0, -2.842170943040401e-14)"/>
  <path d="M 400.708 465.1 C 397.163 460.967 395.478 455.483 392.645 450.79 C 389.812 446.097 384.881 441.896 379.672 442.988 C 376.082 443.741 373.307 446.91 371.902 450.442 C 370.498 453.974 370.234 457.87 369.988 461.686 C 370.075 453.844 364.908 446.241 357.79 443.738 C 350.673 441.236 342.155 444.027 337.683 450.328 C 333.643 446.584 327.441 446.453 323.248 450.025 C 319.248 453.6 318.363 460.405 321.305 464.966 C 324.247 469.526 330.618 471.225 335.293 468.696 L 336.946 470.216 C 336.016 473.471 337.82 477.315 340.853 478.539 C 343.313 479.533 346.785 479.368 347.705 481.949 C 348.348 483.752 347.146 485.677 345.868 487.063 C 344.589 488.449 343.071 489.88 342.917 491.797 C 342.685 494.691 345.675 496.718 348.394 497.328 C 354.948 498.8 362.22 495.765 365.997 489.981 C 366.07 489.869 366.149 489.758 366.235 489.646 C 370.518 484.168 372.359 477.17 371.326 470.294 C 371.113 468.957 371.327 467.962 372.249 467.646 C 376.233 466.277 387.395 469.149 390.772 471.745 C 394.151 474.341 396.856 477.776 400.109 480.539 C 403.363 483.303 407.51 485.434 411.641 484.682 C 414.95 484.079 417.765 481.677 419.658 478.779 C 421.551 475.882 422.641 472.504 423.617 469.148 C 416.3 473.374 406.286 471.605 400.708 465.1 Z" fill="#2f2e41" style="" transform="matrix(1, 0, 0, 1, 0, -2.842170943040401e-14)"/>
</svg>