<?xml version="1.0" encoding="utf-8"?>
<svg viewBox="361.5567 0 652.5438 1059.848" xmlns="http://www.w3.org/2000/svg">
  <defs/>
  <g transform="matrix(1, 0, 0, 1, -347.30999755859375, -74.91998291015625)">
    <path d="M 866.639 487.911 C 867.928 535.377 863.899 565.393 829.395 565.393 C 794.891 565.393 766.911 548.313 766.911 499.413 C 766.911 450.513 829.395 388.293 829.395 388.293 C 829.395 388.293 865.312 439.034 866.639 487.911 Z" fill="#0c66e1" id="path-1" style=""/>
    <polygon fill="#3f3d56" id="polygon-1" points="826.462 565.528 827.101 524.598 853.735 473.961 827.202 518.177 827.49 499.773 845.845 463.138 827.566 494.903 827.566 494.903 828.084 461.803 847.739 432.637 828.165 456.598 828.488 395.904 826.456 476.252 826.623 472.937 806.64 441.148 826.303 479.3 824.441 516.267 824.385 515.286 801.348 481.833 824.316 518.753 824.083 523.375 824.042 523.445 824.06 523.824 819.337 617.613 825.648 617.613 826.405 569.17 849.317 532.341 826.462 565.528" style=""/>
    <path d="M 1029.558 1025.273 C 1030.703 1065.344 1027.124 1090.684 996.475 1090.684 C 965.826 1090.684 940.972 1076.265 940.972 1034.983 C 940.972 993.702 996.475 941.176 996.475 941.176 C 996.475 941.176 1028.379 984.011 1029.558 1025.273 Z" fill="#0c66e1" id="path-2" style=""/>
    <polygon fill="#3f3d56" id="polygon-2" points="993.869 1090.798 994.438 1056.245 1018.095 1013.497 994.528 1050.824 994.783 1035.287 1011.087 1004.36 994.85 1031.176 994.85 1031.176 995.31 1003.233 1012.77 978.611 995.382 998.839 995.669 947.601 993.864 1015.431 994.012 1012.632 976.263 985.796 993.728 1018.004 992.074 1049.211 992.025 1048.383 971.562 1020.142 991.963 1051.31 991.756 1055.212 991.72 1055.271 991.736 1055.591 987.54 1134.768 993.147 1134.768 993.82 1093.872 1014.172 1062.781 993.869 1090.798" style=""/>
    <path d="M 1049.148 717.246 C 1050.293 757.317 1046.714 782.657 1016.065 782.657 C 985.416 782.657 960.562 768.238 960.562 726.956 C 960.562 685.675 1016.065 633.149 1016.065 633.149 C 1016.065 633.149 1047.969 675.984 1049.148 717.246 Z" fill="#0c66e1" id="path-3" style=""/>
    <polygon fill="#3f3d56" id="polygon-3" points="1005.511 776.346 1006.08 741.793 1029.737 699.045 1006.17 736.372 1006.425 720.835 1022.729 689.908 1006.492 716.725 1006.492 716.725 1006.952 688.781 1024.412 664.16 1007.024 684.387 1007.311 633.149 1005.506 700.98 1005.654 698.18 987.905 671.345 1005.37 703.553 1003.716 734.76 1003.667 733.932 983.204 705.691 1003.605 736.859 1003.398 740.761 1003.362 740.819 1003.378 741.139 999.182 820.316 1004.789 820.316 1005.462 779.42 1025.814 748.329 1005.511 776.346" style=""/>
  </g>
  <path d="M 538.33 532.328 L 538.289 532.328 C 535.276 532.324 532.834 529.634 532.832 526.315 L 532.832 173.316 C 532.834 169.997 535.276 167.307 538.289 167.303 L 807.938 167.303 C 810.95 167.307 813.391 169.997 813.395 173.316 L 813.395 447.792 C 813.392 451.094 810.976 453.776 807.98 453.805 L 538.33 532.328 Z" fill="#f2f2f2" style=""/>
  <path d="M 737.637 117.431 L 612.442 117.431 L 612.442 37.493 C 612.446 33.978 615.031 31.13 618.22 31.126 L 731.858 31.126 C 735.048 31.13 737.632 33.978 737.637 37.493 L 737.637 117.431 Z M 613.726 116.016 L 736.352 116.016 L 736.352 37.493 C 736.35 34.759 734.339 32.544 731.858 32.541 L 618.22 32.541 C 615.74 32.544 613.729 34.759 613.726 37.493 L 613.726 116.016 Z" fill="#3f3d56" style=""/>
  <path d="M 648.074 61.545 L 702.004 61.545 C 704.841 61.545 707.14 64.079 707.14 67.204 L 707.14 152.094 C 707.14 152.094 707.14 152.094 707.14 152.094 L 642.938 152.094 C 642.938 152.094 642.938 152.094 642.938 152.094 L 642.938 67.204 C 642.938 64.079 645.237 61.545 648.074 61.545 Z" fill="#e6e6e6" style=""/>
  <path d="M 658.667 32.541 L 632.345 32.541 L 632.345 3.537 C 632.347 1.585 633.783 0.002 635.555 0 L 655.457 0 C 657.229 0.002 658.665 1.585 658.667 3.537 L 658.667 32.541 Z M 633.629 31.126 L 657.384 31.126 L 657.384 3.537 C 657.382 2.366 656.521 1.416 655.457 1.415 L 635.555 1.415 C 634.492 1.416 633.63 2.366 633.629 3.537 L 633.629 31.126 Z" fill="#3f3d56" style=""/>
  <path d="M 874.972 458.998 C 874.716 458.998 874.467 458.998 874.21 458.991 C 858.328 458.797 843.055 452.219 831.263 440.494 C 830.827 440.056 830.394 439.613 829.965 439.165 L 829.767 438.955 L 829.767 303.378 L 829.828 303.235 C 830.253 302.242 830.684 301.264 831.115 300.285 C 844.469 270.411 860.044 253.961 874.972 253.961 C 896.498 253.961 913.193 286.498 921.229 305.892 C 932.403 332.862 940.207 366.28 940.207 387.16 C 940.197 426.526 911.442 458.554 875.717 458.991 C 875.477 458.998 875.221 458.998 874.972 458.998 Z M 831.051 438.349 C 831.406 438.719 831.766 439.085 832.125 439.445 C 843.687 450.941 858.662 457.388 874.234 457.576 C 874.493 457.583 874.74 457.575 874.989 457.583 C 875.221 457.583 875.46 457.583 875.693 457.576 C 910.563 457.15 938.923 425.561 938.923 387.16 C 938.923 366.461 931.167 333.284 920.061 306.479 C 912.153 287.394 895.78 255.376 874.972 255.376 C 860.559 255.376 845.393 271.545 832.269 300.906 C 831.862 301.83 831.454 302.756 831.051 303.695 L 831.051 438.349 Z" fill="#3f3d56" style=""/>
  <path d="M 874.968 544.77 C 874.561 544.77 874.23 544.406 874.23 543.956 L 874.23 377.807 C 874.227 377.181 874.84 376.785 875.334 377.096 C 875.566 377.241 875.709 377.513 875.707 377.807 L 875.707 543.956 C 875.707 544.406 875.376 544.77 874.968 544.77 Z" fill="#ccc" style=""/>
  <path d="M 874.969 408.85 C 874.754 408.85 874.551 408.748 874.41 408.569 L 837.26 361.363 C 836.889 360.889 837.122 360.149 837.681 360.032 C 837.939 359.978 838.204 360.078 838.376 360.297 L 875.526 407.502 C 875.899 407.976 875.666 408.716 875.108 408.835 C 875.062 408.845 875.016 408.85 874.969 408.85 Z" fill="#ccc" style=""/>
  <path d="M 874.968 436.093 C 874.4 436.093 874.044 435.415 874.329 434.872 C 874.361 434.81 874.401 434.754 874.446 434.704 L 895.555 411.444 C 895.958 411.003 896.645 411.207 896.79 411.812 C 896.858 412.092 896.785 412.39 896.6 412.595 L 875.491 435.855 C 875.352 436.007 875.164 436.093 874.968 436.093 Z" fill="#ccc" style=""/>
  <path d="M 940.207 545.106 L 884.99 545.106 L 884.99 544.399 C 884.979 520.981 907.98 506.333 926.391 518.032 C 934.944 523.467 940.212 533.52 940.207 544.399 L 940.207 545.106 Z M 886.281 543.691 L 938.915 543.691 C 938.421 521.369 916.181 508.008 898.884 519.641 C 891.246 524.776 886.499 533.836 886.281 543.691 Z" fill="#3f3d56" style=""/>
  <path d="M 915.701 527.133 C 915.298 527.133 914.972 527.493 914.972 527.936 L 914.972 536.467 L 907.43 529.334 C 907.005 528.93 906.343 529.185 906.238 529.792 C 906.189 530.076 906.282 530.366 906.481 530.553 L 914.972 538.584 L 914.972 543.596 C 914.971 544.214 915.577 544.602 916.064 544.295 C 916.291 544.151 916.431 543.884 916.43 543.596 L 916.43 527.936 C 916.43 527.493 916.103 527.133 915.701 527.133 Z" fill="#3f3d56" style=""/>
  <path d="M 480.412 545.106 L 425.194 545.106 L 425.194 544.399 C 425.184 520.981 448.185 506.333 466.596 518.032 C 475.148 523.467 480.416 533.52 480.412 544.399 L 480.412 545.106 Z M 426.486 543.691 L 479.12 543.691 C 478.625 521.369 456.386 508.008 439.089 519.641 C 431.451 524.776 426.704 533.836 426.486 543.691 Z" fill="#3f3d56" style=""/>
  <path d="M 452.803 527.133 C 452.4 527.133 452.074 527.493 452.074 527.936 L 452.074 536.467 L 444.532 529.334 C 444.107 528.93 443.445 529.185 443.34 529.792 C 443.291 530.076 443.383 530.366 443.582 530.553 L 452.074 538.584 L 452.074 543.596 C 452.073 544.214 452.679 544.602 453.166 544.295 C 453.393 544.151 453.533 543.884 453.532 543.596 L 453.532 527.936 C 453.532 527.493 453.205 527.133 452.803 527.133 Z" fill="#3f3d56" style=""/>
  <path d="M 550.333 123.09 L 550.808 124.123 C 551.018 124.568 551.129 125.063 551.129 125.566 L 551.129 153.509 L 573.6 153.509 L 573.6 125.566 C 573.6 125.063 573.71 124.568 573.921 124.123 L 574.396 123.09 L 550.333 123.09 Z M 572.316 125.566 L 572.316 152.094 L 552.413 152.094 L 552.413 125.566 C 552.413 125.209 552.375 124.852 552.297 124.505 L 572.431 124.505 C 572.354 124.852 572.315 125.209 572.316 125.566 Z M 578.581 123.09 L 579.057 124.123 C 579.268 124.568 579.378 125.063 579.378 125.566 L 579.378 153.509 L 601.849 153.509 L 601.849 125.566 C 601.849 125.063 601.959 124.568 602.169 124.123 L 602.645 123.09 L 578.581 123.09 Z M 600.565 125.566 L 600.565 152.094 L 580.662 152.094 L 580.662 125.566 C 580.663 125.209 580.624 124.852 580.547 124.505 L 600.68 124.505 C 600.603 124.852 600.564 125.209 600.565 125.566 Z M 606.83 123.09 L 607.306 124.123 C 607.517 124.568 607.626 125.063 607.627 125.566 L 607.627 153.509 L 630.098 153.509 L 630.098 125.566 C 630.098 125.063 630.208 124.568 630.418 124.123 L 630.894 123.09 L 606.83 123.09 Z M 628.813 125.566 L 628.813 152.094 L 608.911 152.094 L 608.911 125.566 C 608.911 125.209 608.873 124.852 608.795 124.505 L 628.929 124.505 C 628.852 124.852 628.813 125.209 628.813 125.566 Z M 635.08 123.09 L 635.555 124.123 C 635.766 124.568 635.875 125.063 635.876 125.566 L 635.876 153.509 L 658.346 153.509 L 658.346 125.566 C 658.347 125.063 658.457 124.568 658.667 124.123 L 659.143 123.09 L 635.08 123.09 Z M 657.062 125.566 L 657.062 152.094 L 637.16 152.094 L 637.16 125.566 C 637.16 125.209 637.121 124.852 637.044 124.505 L 657.178 124.505 C 657.101 124.852 657.062 125.209 657.062 125.566 Z M 663.329 123.09 L 663.804 124.123 C 664.014 124.568 664.124 125.063 664.124 125.566 L 664.124 153.509 L 686.595 153.509 L 686.595 125.566 C 686.596 125.063 686.706 124.568 686.917 124.123 L 687.392 123.09 L 663.329 123.09 Z M 685.311 125.566 L 685.311 152.094 L 665.409 152.094 L 665.409 125.566 C 665.409 125.209 665.37 124.852 665.293 124.505 L 685.428 124.505 C 685.35 124.852 685.311 125.209 685.311 125.566 Z M 691.578 123.09 L 692.052 124.123 C 692.263 124.568 692.374 125.063 692.374 125.566 L 692.374 153.509 L 714.845 153.509 L 714.845 125.566 C 714.845 125.063 714.955 124.568 715.166 124.123 L 715.641 123.09 L 691.578 123.09 Z M 713.561 125.566 L 713.561 152.094 L 693.658 152.094 L 693.658 125.566 C 693.658 125.209 693.619 124.852 693.542 124.505 L 713.676 124.505 C 713.599 124.852 713.56 125.209 713.561 125.566 Z M 719.827 123.09 L 720.302 124.123 C 720.512 124.568 720.623 125.063 720.623 125.566 L 720.623 153.509 L 743.094 153.509 L 743.094 125.566 C 743.094 125.063 743.204 124.568 743.415 124.123 L 743.89 123.09 L 719.827 123.09 Z M 741.81 125.566 L 741.81 152.094 L 721.907 152.094 L 721.907 125.566 C 721.907 125.209 721.868 124.852 721.791 124.505 L 741.925 124.505 C 741.848 124.852 741.809 125.209 741.81 125.566 Z M 748.075 123.09 L 748.551 124.123 C 748.761 124.568 748.872 125.063 748.872 125.566 L 748.872 153.509 L 771.343 153.509 L 771.343 125.566 C 771.343 125.063 771.453 124.568 771.663 124.123 L 772.139 123.09 L 748.075 123.09 Z M 770.059 125.566 L 770.059 152.094 L 750.156 152.094 L 750.156 125.566 C 750.156 125.209 750.118 124.852 750.04 124.505 L 770.174 124.505 C 770.097 124.852 770.058 125.209 770.059 125.566 Z M 776.324 123.09 L 776.8 124.123 C 777.011 124.568 777.12 125.063 777.121 125.566 L 777.121 153.509 L 799.592 153.509 L 799.592 125.566 C 799.592 125.063 799.702 124.568 799.912 124.123 L 800.388 123.09 L 776.324 123.09 Z M 798.307 125.566 L 798.307 152.094 L 778.405 152.094 L 778.405 125.566 C 778.405 125.209 778.366 124.852 778.289 124.505 L 798.423 124.505 C 798.346 124.852 798.307 125.209 798.307 125.566 Z M 776.324 123.09 L 776.8 124.123 C 777.011 124.568 777.12 125.063 777.121 125.566 L 777.121 153.509 L 799.592 153.509 L 799.592 125.566 C 799.592 125.063 799.702 124.568 799.912 124.123 L 800.388 123.09 L 776.324 123.09 Z M 798.307 125.566 L 798.307 152.094 L 778.405 152.094 L 778.405 125.566 C 778.405 125.209 778.366 124.852 778.289 124.505 L 798.423 124.505 C 798.346 124.852 798.307 125.209 798.307 125.566 Z M 748.075 123.09 L 748.551 124.123 C 748.761 124.568 748.872 125.063 748.872 125.566 L 748.872 153.509 L 771.343 153.509 L 771.343 125.566 C 771.343 125.063 771.453 124.568 771.663 124.123 L 772.139 123.09 L 748.075 123.09 Z M 770.059 125.566 L 770.059 152.094 L 750.156 152.094 L 750.156 125.566 C 750.156 125.209 750.118 124.852 750.04 124.505 L 770.174 124.505 C 770.097 124.852 770.058 125.209 770.059 125.566 Z M 719.827 123.09 L 720.302 124.123 C 720.512 124.568 720.623 125.063 720.623 125.566 L 720.623 153.509 L 743.094 153.509 L 743.094 125.566 C 743.094 125.063 743.204 124.568 743.415 124.123 L 743.89 123.09 L 719.827 123.09 Z M 741.81 125.566 L 741.81 152.094 L 721.907 152.094 L 721.907 125.566 C 721.907 125.209 721.868 124.852 721.791 124.505 L 741.925 124.505 C 741.848 124.852 741.809 125.209 741.81 125.566 Z M 691.578 123.09 L 692.052 124.123 C 692.263 124.568 692.374 125.063 692.374 125.566 L 692.374 153.509 L 714.845 153.509 L 714.845 125.566 C 714.845 125.063 714.955 124.568 715.166 124.123 L 715.641 123.09 L 691.578 123.09 Z M 713.561 125.566 L 713.561 152.094 L 693.658 152.094 L 693.658 125.566 C 693.658 125.209 693.619 124.852 693.542 124.505 L 713.676 124.505 C 713.599 124.852 713.56 125.209 713.561 125.566 Z M 663.329 123.09 L 663.804 124.123 C 664.014 124.568 664.124 125.063 664.124 125.566 L 664.124 153.509 L 686.595 153.509 L 686.595 125.566 C 686.596 125.063 686.706 124.568 686.917 124.123 L 687.392 123.09 L 663.329 123.09 Z M 685.311 125.566 L 685.311 152.094 L 665.409 152.094 L 665.409 125.566 C 665.409 125.209 665.37 124.852 665.293 124.505 L 685.428 124.505 C 685.35 124.852 685.311 125.209 685.311 125.566 Z M 635.08 123.09 L 635.555 124.123 C 635.766 124.568 635.875 125.063 635.876 125.566 L 635.876 153.509 L 658.346 153.509 L 658.346 125.566 C 658.347 125.063 658.457 124.568 658.667 124.123 L 659.143 123.09 L 635.08 123.09 Z M 657.062 125.566 L 657.062 152.094 L 637.16 152.094 L 637.16 125.566 C 637.16 125.209 637.121 124.852 637.044 124.505 L 657.178 124.505 C 657.101 124.852 657.062 125.209 657.062 125.566 Z M 606.83 123.09 L 607.306 124.123 C 607.517 124.568 607.626 125.063 607.627 125.566 L 607.627 153.509 L 630.098 153.509 L 630.098 125.566 C 630.098 125.063 630.208 124.568 630.418 124.123 L 630.894 123.09 L 606.83 123.09 Z M 628.813 125.566 L 628.813 152.094 L 608.911 152.094 L 608.911 125.566 C 608.911 125.209 608.873 124.852 608.795 124.505 L 628.929 124.505 C 628.852 124.852 628.813 125.209 628.813 125.566 Z M 578.581 123.09 L 579.057 124.123 C 579.268 124.568 579.378 125.063 579.378 125.566 L 579.378 153.509 L 601.849 153.509 L 601.849 125.566 C 601.849 125.063 601.959 124.568 602.169 124.123 L 602.645 123.09 L 578.581 123.09 Z M 600.565 125.566 L 600.565 152.094 L 580.662 152.094 L 580.662 125.566 C 580.663 125.209 580.624 124.852 580.547 124.505 L 600.68 124.505 C 600.603 124.852 600.564 125.209 600.565 125.566 Z M 550.333 123.09 L 550.808 124.123 C 551.018 124.568 551.129 125.063 551.129 125.566 L 551.129 153.509 L 573.6 153.509 L 573.6 125.566 C 573.6 125.063 573.71 124.568 573.921 124.123 L 574.396 123.09 L 550.333 123.09 Z M 572.316 125.566 L 572.316 152.094 L 552.413 152.094 L 552.413 125.566 C 552.413 125.209 552.375 124.852 552.297 124.505 L 572.431 124.505 C 572.354 124.852 572.315 125.209 572.316 125.566 Z M 776.324 123.09 L 776.8 124.123 C 777.011 124.568 777.12 125.063 777.121 125.566 L 777.121 153.509 L 799.592 153.509 L 799.592 125.566 C 799.592 125.063 799.702 124.568 799.912 124.123 L 800.388 123.09 L 776.324 123.09 Z M 798.307 125.566 L 798.307 152.094 L 778.405 152.094 L 778.405 125.566 C 778.405 125.209 778.366 124.852 778.289 124.505 L 798.423 124.505 C 798.346 124.852 798.307 125.209 798.307 125.566 Z M 748.075 123.09 L 748.551 124.123 C 748.761 124.568 748.872 125.063 748.872 125.566 L 748.872 153.509 L 771.343 153.509 L 771.343 125.566 C 771.343 125.063 771.453 124.568 771.663 124.123 L 772.139 123.09 L 748.075 123.09 Z M 770.059 125.566 L 770.059 152.094 L 750.156 152.094 L 750.156 125.566 C 750.156 125.209 750.118 124.852 750.04 124.505 L 770.174 124.505 C 770.097 124.852 770.058 125.209 770.059 125.566 Z M 719.827 123.09 L 720.302 124.123 C 720.512 124.568 720.623 125.063 720.623 125.566 L 720.623 153.509 L 743.094 153.509 L 743.094 125.566 C 743.094 125.063 743.204 124.568 743.415 124.123 L 743.89 123.09 L 719.827 123.09 Z M 741.81 125.566 L 741.81 152.094 L 721.907 152.094 L 721.907 125.566 C 721.907 125.209 721.868 124.852 721.791 124.505 L 741.925 124.505 C 741.848 124.852 741.809 125.209 741.81 125.566 Z M 691.578 123.09 L 692.052 124.123 C 692.263 124.568 692.374 125.063 692.374 125.566 L 692.374 153.509 L 714.845 153.509 L 714.845 125.566 C 714.845 125.063 714.955 124.568 715.166 124.123 L 715.641 123.09 L 691.578 123.09 Z M 713.561 125.566 L 713.561 152.094 L 693.658 152.094 L 693.658 125.566 C 693.658 125.209 693.619 124.852 693.542 124.505 L 713.676 124.505 C 713.599 124.852 713.56 125.209 713.561 125.566 Z M 663.329 123.09 L 663.804 124.123 C 664.014 124.568 664.124 125.063 664.124 125.566 L 664.124 153.509 L 686.595 153.509 L 686.595 125.566 C 686.596 125.063 686.706 124.568 686.917 124.123 L 687.392 123.09 L 663.329 123.09 Z M 685.311 125.566 L 685.311 152.094 L 665.409 152.094 L 665.409 125.566 C 665.409 125.209 665.37 124.852 665.293 124.505 L 685.428 124.505 C 685.35 124.852 685.311 125.209 685.311 125.566 Z M 635.08 123.09 L 635.555 124.123 C 635.766 124.568 635.875 125.063 635.876 125.566 L 635.876 153.509 L 658.346 153.509 L 658.346 125.566 C 658.347 125.063 658.457 124.568 658.667 124.123 L 659.143 123.09 L 635.08 123.09 Z M 657.062 125.566 L 657.062 152.094 L 637.16 152.094 L 637.16 125.566 C 637.16 125.209 637.121 124.852 637.044 124.505 L 657.178 124.505 C 657.101 124.852 657.062 125.209 657.062 125.566 Z M 606.83 123.09 L 607.306 124.123 C 607.517 124.568 607.626 125.063 607.627 125.566 L 607.627 153.509 L 630.098 153.509 L 630.098 125.566 C 630.098 125.063 630.208 124.568 630.418 124.123 L 630.894 123.09 L 606.83 123.09 Z M 628.813 125.566 L 628.813 152.094 L 608.911 152.094 L 608.911 125.566 C 608.911 125.209 608.873 124.852 608.795 124.505 L 628.929 124.505 C 628.852 124.852 628.813 125.209 628.813 125.566 Z M 578.581 123.09 L 579.057 124.123 C 579.268 124.568 579.378 125.063 579.378 125.566 L 579.378 153.509 L 601.849 153.509 L 601.849 125.566 C 601.849 125.063 601.959 124.568 602.169 124.123 L 602.645 123.09 L 578.581 123.09 Z M 600.565 125.566 L 600.565 152.094 L 580.662 152.094 L 580.662 125.566 C 580.663 125.209 580.624 124.852 580.547 124.505 L 600.68 124.505 C 600.603 124.852 600.564 125.209 600.565 125.566 Z M 550.333 123.09 L 550.808 124.123 C 551.018 124.568 551.129 125.063 551.129 125.566 L 551.129 153.509 L 573.6 153.509 L 573.6 125.566 C 573.6 125.063 573.71 124.568 573.921 124.123 L 574.396 123.09 L 550.333 123.09 Z M 572.316 125.566 L 572.316 152.094 L 552.413 152.094 L 552.413 125.566 C 552.413 125.209 552.375 124.852 552.297 124.505 L 572.431 124.505 C 572.354 124.852 572.315 125.209 572.316 125.566 Z M 776.324 123.09 L 776.8 124.123 C 777.011 124.568 777.12 125.063 777.121 125.566 L 777.121 153.509 L 799.592 153.509 L 799.592 125.566 C 799.592 125.063 799.702 124.568 799.912 124.123 L 800.388 123.09 L 776.324 123.09 Z M 798.307 125.566 L 798.307 152.094 L 778.405 152.094 L 778.405 125.566 C 778.405 125.209 778.366 124.852 778.289 124.505 L 798.423 124.505 C 798.346 124.852 798.307 125.209 798.307 125.566 Z M 748.075 123.09 L 748.551 124.123 C 748.761 124.568 748.872 125.063 748.872 125.566 L 748.872 153.509 L 771.343 153.509 L 771.343 125.566 C 771.343 125.063 771.453 124.568 771.663 124.123 L 772.139 123.09 L 748.075 123.09 Z M 770.059 125.566 L 770.059 152.094 L 750.156 152.094 L 750.156 125.566 C 750.156 125.209 750.118 124.852 750.04 124.505 L 770.174 124.505 C 770.097 124.852 770.058 125.209 770.059 125.566 Z M 719.827 123.09 L 720.302 124.123 C 720.512 124.568 720.623 125.063 720.623 125.566 L 720.623 153.509 L 743.094 153.509 L 743.094 125.566 C 743.094 125.063 743.204 124.568 743.415 124.123 L 743.89 123.09 L 719.827 123.09 Z M 741.81 125.566 L 741.81 152.094 L 721.907 152.094 L 721.907 125.566 C 721.907 125.209 721.868 124.852 721.791 124.505 L 741.925 124.505 C 741.848 124.852 741.809 125.209 741.81 125.566 Z M 691.578 123.09 L 692.052 124.123 C 692.263 124.568 692.374 125.063 692.374 125.566 L 692.374 153.509 L 714.845 153.509 L 714.845 125.566 C 714.845 125.063 714.955 124.568 715.166 124.123 L 715.641 123.09 L 691.578 123.09 Z M 713.561 125.566 L 713.561 152.094 L 693.658 152.094 L 693.658 125.566 C 693.658 125.209 693.619 124.852 693.542 124.505 L 713.676 124.505 C 713.599 124.852 713.56 125.209 713.561 125.566 Z M 663.329 123.09 L 663.804 124.123 C 664.014 124.568 664.124 125.063 664.124 125.566 L 664.124 153.509 L 686.595 153.509 L 686.595 125.566 C 686.596 125.063 686.706 124.568 686.917 124.123 L 687.392 123.09 L 663.329 123.09 Z M 685.311 125.566 L 685.311 152.094 L 665.409 152.094 L 665.409 125.566 C 665.409 125.209 665.37 124.852 665.293 124.505 L 685.428 124.505 C 685.35 124.852 685.311 125.209 685.311 125.566 Z M 635.08 123.09 L 635.555 124.123 C 635.766 124.568 635.875 125.063 635.876 125.566 L 635.876 153.509 L 658.346 153.509 L 658.346 125.566 C 658.347 125.063 658.457 124.568 658.667 124.123 L 659.143 123.09 L 635.08 123.09 Z M 657.062 125.566 L 657.062 152.094 L 637.16 152.094 L 637.16 125.566 C 637.16 125.209 637.121 124.852 637.044 124.505 L 657.178 124.505 C 657.101 124.852 657.062 125.209 657.062 125.566 Z M 606.83 123.09 L 607.306 124.123 C 607.517 124.568 607.626 125.063 607.627 125.566 L 607.627 153.509 L 630.098 153.509 L 630.098 125.566 C 630.098 125.063 630.208 124.568 630.418 124.123 L 630.894 123.09 L 606.83 123.09 Z M 628.813 125.566 L 628.813 152.094 L 608.911 152.094 L 608.911 125.566 C 608.911 125.209 608.873 124.852 608.795 124.505 L 628.929 124.505 C 628.852 124.852 628.813 125.209 628.813 125.566 Z M 578.581 123.09 L 579.057 124.123 C 579.268 124.568 579.378 125.063 579.378 125.566 L 579.378 153.509 L 601.849 153.509 L 601.849 125.566 C 601.849 125.063 601.959 124.568 602.169 124.123 L 602.645 123.09 L 578.581 123.09 Z M 600.565 125.566 L 600.565 152.094 L 580.662 152.094 L 580.662 125.566 C 580.663 125.209 580.624 124.852 580.547 124.505 L 600.68 124.505 C 600.603 124.852 600.564 125.209 600.565 125.566 Z M 550.333 123.09 L 550.808 124.123 C 551.018 124.568 551.129 125.063 551.129 125.566 L 551.129 153.509 L 573.6 153.509 L 573.6 125.566 C 573.6 125.063 573.71 124.568 573.921 124.123 L 574.396 123.09 L 550.333 123.09 Z M 572.316 125.566 L 572.316 152.094 L 552.413 152.094 L 552.413 125.566 C 552.413 125.209 552.375 124.852 552.297 124.505 L 572.431 124.505 C 572.354 124.852 572.315 125.209 572.316 125.566 Z M 776.324 123.09 L 776.8 124.123 C 777.011 124.568 777.12 125.063 777.121 125.566 L 777.121 153.509 L 799.592 153.509 L 799.592 125.566 C 799.592 125.063 799.702 124.568 799.912 124.123 L 800.388 123.09 L 776.324 123.09 Z M 798.307 125.566 L 798.307 152.094 L 778.405 152.094 L 778.405 125.566 C 778.405 125.209 778.366 124.852 778.289 124.505 L 798.423 124.505 C 798.346 124.852 798.307 125.209 798.307 125.566 Z M 748.075 123.09 L 748.551 124.123 C 748.761 124.568 748.872 125.063 748.872 125.566 L 748.872 153.509 L 771.343 153.509 L 771.343 125.566 C 771.343 125.063 771.453 124.568 771.663 124.123 L 772.139 123.09 L 748.075 123.09 Z M 770.059 125.566 L 770.059 152.094 L 750.156 152.094 L 750.156 125.566 C 750.156 125.209 750.118 124.852 750.04 124.505 L 770.174 124.505 C 770.097 124.852 770.058 125.209 770.059 125.566 Z M 719.827 123.09 L 720.302 124.123 C 720.512 124.568 720.623 125.063 720.623 125.566 L 720.623 153.509 L 743.094 153.509 L 743.094 125.566 C 743.094 125.063 743.204 124.568 743.415 124.123 L 743.89 123.09 L 719.827 123.09 Z M 741.81 125.566 L 741.81 152.094 L 721.907 152.094 L 721.907 125.566 C 721.907 125.209 721.868 124.852 721.791 124.505 L 741.925 124.505 C 741.848 124.852 741.809 125.209 741.81 125.566 Z M 691.578 123.09 L 692.052 124.123 C 692.263 124.568 692.374 125.063 692.374 125.566 L 692.374 153.509 L 714.845 153.509 L 714.845 125.566 C 714.845 125.063 714.955 124.568 715.166 124.123 L 715.641 123.09 L 691.578 123.09 Z M 713.561 125.566 L 713.561 152.094 L 693.658 152.094 L 693.658 125.566 C 693.658 125.209 693.619 124.852 693.542 124.505 L 713.676 124.505 C 713.599 124.852 713.56 125.209 713.561 125.566 Z M 663.329 123.09 L 663.804 124.123 C 664.014 124.568 664.124 125.063 664.124 125.566 L 664.124 153.509 L 686.595 153.509 L 686.595 125.566 C 686.596 125.063 686.706 124.568 686.917 124.123 L 687.392 123.09 L 663.329 123.09 Z M 685.311 125.566 L 685.311 152.094 L 665.409 152.094 L 665.409 125.566 C 665.409 125.209 665.37 124.852 665.293 124.505 L 685.428 124.505 C 685.35 124.852 685.311 125.209 685.311 125.566 Z M 635.08 123.09 L 635.555 124.123 C 635.766 124.568 635.875 125.063 635.876 125.566 L 635.876 153.509 L 658.346 153.509 L 658.346 125.566 C 658.347 125.063 658.457 124.568 658.667 124.123 L 659.143 123.09 L 635.08 123.09 Z M 657.062 125.566 L 657.062 152.094 L 637.16 152.094 L 637.16 125.566 C 637.16 125.209 637.121 124.852 637.044 124.505 L 657.178 124.505 C 657.101 124.852 657.062 125.209 657.062 125.566 Z M 606.83 123.09 L 607.306 124.123 C 607.517 124.568 607.626 125.063 607.627 125.566 L 607.627 153.509 L 630.098 153.509 L 630.098 125.566 C 630.098 125.063 630.208 124.568 630.418 124.123 L 630.894 123.09 L 606.83 123.09 Z M 628.813 125.566 L 628.813 152.094 L 608.911 152.094 L 608.911 125.566 C 608.911 125.209 608.873 124.852 608.795 124.505 L 628.929 124.505 C 628.852 124.852 628.813 125.209 628.813 125.566 Z M 578.581 123.09 L 579.057 124.123 C 579.268 124.568 579.378 125.063 579.378 125.566 L 579.378 153.509 L 601.849 153.509 L 601.849 125.566 C 601.849 125.063 601.959 124.568 602.169 124.123 L 602.645 123.09 L 578.581 123.09 Z M 600.565 125.566 L 600.565 152.094 L 580.662 152.094 L 580.662 125.566 C 580.663 125.209 580.624 124.852 580.547 124.505 L 600.68 124.505 C 600.603 124.852 600.564 125.209 600.565 125.566 Z M 550.333 123.09 L 550.808 124.123 C 551.018 124.568 551.129 125.063 551.129 125.566 L 551.129 153.509 L 573.6 153.509 L 573.6 125.566 C 573.6 125.063 573.71 124.568 573.921 124.123 L 574.396 123.09 L 550.333 123.09 Z M 572.316 125.566 L 572.316 152.094 L 552.413 152.094 L 552.413 125.566 C 552.413 125.209 552.375 124.852 552.297 124.505 L 572.431 124.505 C 572.354 124.852 572.315 125.209 572.316 125.566 Z M 776.324 123.09 L 776.8 124.123 C 777.011 124.568 777.12 125.063 777.121 125.566 L 777.121 153.509 L 799.592 153.509 L 799.592 125.566 C 799.592 125.063 799.702 124.568 799.912 124.123 L 800.388 123.09 L 776.324 123.09 Z M 798.307 125.566 L 798.307 152.094 L 778.405 152.094 L 778.405 125.566 C 778.405 125.209 778.366 124.852 778.289 124.505 L 798.423 124.505 C 798.346 124.852 798.307 125.209 798.307 125.566 Z M 748.551 124.123 C 748.761 124.568 748.872 125.063 748.872 125.566 L 748.872 153.509 L 771.343 153.509 L 771.343 125.566 C 771.343 125.063 771.453 124.568 771.663 124.123 L 772.139 123.09 L 748.075 123.09 L 748.551 124.123 Z M 770.174 124.505 C 770.097 124.852 770.058 125.209 770.059 125.566 L 770.059 152.094 L 750.156 152.094 L 750.156 125.566 C 750.156 125.209 750.118 124.852 750.04 124.505 L 770.174 124.505 Z M 720.302 124.123 C 720.512 124.568 720.623 125.063 720.623 125.566 L 720.623 153.509 L 743.094 153.509 L 743.094 125.566 C 743.094 125.063 743.204 124.568 743.415 124.123 L 743.89 123.09 L 719.827 123.09 L 720.302 124.123 Z M 741.925 124.505 C 741.848 124.852 741.809 125.209 741.81 125.566 L 741.81 152.094 L 721.907 152.094 L 721.907 125.566 C 721.907 125.209 721.868 124.852 721.791 124.505 L 741.925 124.505 Z M 692.052 124.123 C 692.263 124.568 692.374 125.063 692.374 125.566 L 692.374 153.509 L 714.845 153.509 L 714.845 125.566 C 714.845 125.063 714.955 124.568 715.166 124.123 L 715.641 123.09 L 691.578 123.09 L 692.052 124.123 Z M 713.676 124.505 C 713.599 124.852 713.56 125.209 713.561 125.566 L 713.561 152.094 L 693.658 152.094 L 693.658 125.566 C 693.658 125.209 693.619 124.852 693.542 124.505 L 713.676 124.505 Z M 663.804 124.123 C 664.014 124.568 664.124 125.063 664.124 125.566 L 664.124 153.509 L 686.595 153.509 L 686.595 125.566 C 686.596 125.063 686.706 124.568 686.917 124.123 L 687.392 123.09 L 663.329 123.09 L 663.804 124.123 Z M 685.428 124.505 C 685.35 124.852 685.311 125.209 685.311 125.566 L 685.311 152.094 L 665.409 152.094 L 665.409 125.566 C 665.409 125.209 665.37 124.852 665.293 124.505 L 685.428 124.505 Z M 635.555 124.123 C 635.766 124.568 635.875 125.063 635.876 125.566 L 635.876 153.509 L 658.346 153.509 L 658.346 125.566 C 658.347 125.063 658.457 124.568 658.667 124.123 L 659.143 123.09 L 635.08 123.09 L 635.555 124.123 Z M 657.178 124.505 C 657.101 124.852 657.062 125.209 657.062 125.566 L 657.062 152.094 L 637.16 152.094 L 637.16 125.566 C 637.16 125.209 637.121 124.852 637.044 124.505 L 657.178 124.505 Z M 607.306 124.123 C 607.517 124.568 607.626 125.063 607.627 125.566 L 607.627 153.509 L 630.098 153.509 L 630.098 125.566 C 630.098 125.063 630.208 124.568 630.418 124.123 L 630.894 123.09 L 606.83 123.09 L 607.306 124.123 Z M 628.929 124.505 C 628.852 124.852 628.813 125.209 628.813 125.566 L 628.813 152.094 L 608.911 152.094 L 608.911 125.566 C 608.911 125.209 608.873 124.852 608.795 124.505 L 628.929 124.505 Z M 579.057 124.123 C 579.268 124.568 579.378 125.063 579.378 125.566 L 579.378 153.509 L 601.849 153.509 L 601.849 125.566 C 601.849 125.063 601.959 124.568 602.169 124.123 L 602.645 123.09 L 578.581 123.09 L 579.057 124.123 Z M 600.68 124.505 C 600.603 124.852 600.564 125.209 600.565 125.566 L 600.565 152.094 L 580.662 152.094 L 580.662 125.566 C 580.663 125.209 580.624 124.852 580.547 124.505 L 600.68 124.505 Z M 550.808 124.123 C 551.018 124.568 551.129 125.063 551.129 125.566 L 551.129 153.509 L 573.6 153.509 L 573.6 125.566 C 573.6 125.063 573.71 124.568 573.921 124.123 L 574.396 123.09 L 550.333 123.09 L 550.808 124.123 Z M 572.431 124.505 C 572.354 124.852 572.315 125.209 572.316 125.566 L 572.316 152.094 L 552.413 152.094 L 552.413 125.566 C 552.413 125.209 552.375 124.852 552.297 124.505 L 572.431 124.505 Z M 776.8 124.123 C 777.011 124.568 777.12 125.063 777.121 125.566 L 777.121 153.509 L 799.592 153.509 L 799.592 125.566 C 799.592 125.063 799.702 124.568 799.912 124.123 L 800.388 123.09 L 776.324 123.09 L 776.8 124.123 Z M 798.423 124.505 C 798.346 124.852 798.307 125.209 798.307 125.566 L 798.307 152.094 L 778.405 152.094 L 778.405 125.566 C 778.405 125.209 778.366 124.852 778.289 124.505 L 798.423 124.505 Z M 748.551 124.123 C 748.761 124.568 748.872 125.063 748.872 125.566 L 748.872 153.509 L 771.343 153.509 L 771.343 125.566 C 771.343 125.063 771.453 124.568 771.663 124.123 L 772.139 123.09 L 748.075 123.09 L 748.551 124.123 Z M 770.174 124.505 C 770.097 124.852 770.058 125.209 770.059 125.566 L 770.059 152.094 L 750.156 152.094 L 750.156 125.566 C 750.156 125.209 750.118 124.852 750.04 124.505 L 770.174 124.505 Z M 720.302 124.123 C 720.512 124.568 720.623 125.063 720.623 125.566 L 720.623 153.509 L 743.094 153.509 L 743.094 125.566 C 743.094 125.063 743.204 124.568 743.415 124.123 L 743.89 123.09 L 719.827 123.09 L 720.302 124.123 Z M 741.925 124.505 C 741.848 124.852 741.809 125.209 741.81 125.566 L 741.81 152.094 L 721.907 152.094 L 721.907 125.566 C 721.907 125.209 721.868 124.852 721.791 124.505 L 741.925 124.505 Z M 692.052 124.123 C 692.263 124.568 692.374 125.063 692.374 125.566 L 692.374 153.509 L 714.845 153.509 L 714.845 125.566 C 714.845 125.063 714.955 124.568 715.166 124.123 L 715.641 123.09 L 691.578 123.09 L 692.052 124.123 Z M 713.676 124.505 C 713.599 124.852 713.56 125.209 713.561 125.566 L 713.561 152.094 L 693.658 152.094 L 693.658 125.566 C 693.658 125.209 693.619 124.852 693.542 124.505 L 713.676 124.505 Z M 663.804 124.123 C 664.014 124.568 664.124 125.063 664.124 125.566 L 664.124 153.509 L 686.595 153.509 L 686.595 125.566 C 686.596 125.063 686.706 124.568 686.917 124.123 L 687.392 123.09 L 663.329 123.09 L 663.804 124.123 Z M 685.428 124.505 C 685.35 124.852 685.311 125.209 685.311 125.566 L 685.311 152.094 L 665.409 152.094 L 665.409 125.566 C 665.409 125.209 665.37 124.852 665.293 124.505 L 685.428 124.505 Z M 635.555 124.123 C 635.766 124.568 635.875 125.063 635.876 125.566 L 635.876 153.509 L 658.346 153.509 L 658.346 125.566 C 658.347 125.063 658.457 124.568 658.667 124.123 L 659.143 123.09 L 635.08 123.09 L 635.555 124.123 Z M 657.178 124.505 C 657.101 124.852 657.062 125.209 657.062 125.566 L 657.062 152.094 L 637.16 152.094 L 637.16 125.566 C 637.16 125.209 637.121 124.852 637.044 124.505 L 657.178 124.505 Z M 607.306 124.123 C 607.517 124.568 607.626 125.063 607.627 125.566 L 607.627 153.509 L 630.098 153.509 L 630.098 125.566 C 630.098 125.063 630.208 124.568 630.418 124.123 L 630.894 123.09 L 606.83 123.09 L 607.306 124.123 Z M 628.929 124.505 C 628.852 124.852 628.813 125.209 628.813 125.566 L 628.813 152.094 L 608.911 152.094 L 608.911 125.566 C 608.911 125.209 608.873 124.852 608.795 124.505 L 628.929 124.505 Z M 579.057 124.123 C 579.268 124.568 579.378 125.063 579.378 125.566 L 579.378 153.509 L 601.849 153.509 L 601.849 125.566 C 601.849 125.063 601.959 124.568 602.169 124.123 L 602.645 123.09 L 578.581 123.09 L 579.057 124.123 Z M 600.68 124.505 C 600.603 124.852 600.564 125.209 600.565 125.566 L 600.565 152.094 L 580.662 152.094 L 580.662 125.566 C 580.663 125.209 580.624 124.852 580.547 124.505 L 600.68 124.505 Z M 550.808 124.123 C 551.018 124.568 551.129 125.063 551.129 125.566 L 551.129 153.509 L 573.6 153.509 L 573.6 125.566 C 573.6 125.063 573.71 124.568 573.921 124.123 L 574.396 123.09 L 550.333 123.09 L 550.808 124.123 Z M 572.431 124.505 C 572.354 124.852 572.315 125.209 572.316 125.566 L 572.316 152.094 L 552.413 152.094 L 552.413 125.566 C 552.413 125.209 552.375 124.852 552.297 124.505 L 572.431 124.505 Z M 825.272 157.753 L 817.62 157.753 C 816.752 154.41 813.983 152.102 810.827 152.094 L 806.654 152.094 L 806.654 125.566 C 806.655 124.996 806.557 124.432 806.365 123.903 C 808.916 122.249 808.884 118.172 806.307 116.565 C 805.728 116.204 805.073 116.014 804.407 116.016 L 546.313 116.016 C 543.354 116.01 541.498 119.536 542.973 122.364 C 543.305 123.001 543.782 123.531 544.355 123.903 C 544.163 124.432 544.065 124.996 544.067 125.566 L 544.067 152.094 L 539.894 152.094 C 536.738 152.102 533.968 154.41 533.101 157.753 L 524.806 157.753 C 521.617 157.758 519.033 160.606 519.028 164.12 L 519.028 537.634 C 519.035 541.147 521.618 543.993 524.806 544 L 825.272 544 C 828.461 543.995 831.046 541.148 831.051 537.634 L 831.051 164.12 C 831.046 160.606 828.461 157.758 825.272 157.753 Z M 829.767 537.634 C 829.764 539.704 828.594 541.555 826.833 542.274 C 826.334 542.483 825.806 542.589 825.272 542.586 L 524.806 542.586 C 524.273 542.589 523.744 542.483 523.245 542.274 C 521.484 541.555 520.314 539.704 520.312 537.634 L 520.312 164.12 C 520.315 161.386 522.325 159.171 524.806 159.168 L 534.128 159.168 L 534.231 158.602 C 534.788 155.642 537.15 153.516 539.894 153.509 L 545.351 153.509 L 545.351 125.566 C 545.351 124.99 545.493 124.425 545.762 123.932 L 546.159 123.203 L 545.434 122.906 C 543.581 122.165 543.149 119.492 544.658 118.093 C 545.121 117.663 545.708 117.428 546.313 117.431 L 804.407 117.431 C 806.378 117.425 807.616 119.773 806.635 121.657 C 806.334 122.236 805.856 122.679 805.287 122.906 L 804.561 123.203 L 804.959 123.932 C 805.228 124.425 805.37 124.99 805.37 125.566 L 805.37 153.509 L 810.827 153.509 C 813.57 153.516 815.933 155.642 816.489 158.602 L 816.592 159.168 L 825.272 159.168 C 827.753 159.171 829.764 161.386 829.767 164.12 L 829.767 537.634 Z M 550.333 123.09 L 550.808 124.123 C 551.018 124.568 551.129 125.063 551.129 125.566 L 551.129 153.509 L 573.6 153.509 L 573.6 125.566 C 573.6 125.063 573.71 124.568 573.921 124.123 L 574.396 123.09 L 550.333 123.09 Z M 572.316 125.566 L 572.316 152.094 L 552.413 152.094 L 552.413 125.566 C 552.413 125.209 552.375 124.852 552.297 124.505 L 572.431 124.505 C 572.354 124.852 572.315 125.209 572.316 125.566 Z M 578.581 123.09 L 579.057 124.123 C 579.268 124.568 579.378 125.063 579.378 125.566 L 579.378 153.509 L 601.849 153.509 L 601.849 125.566 C 601.849 125.063 601.959 124.568 602.169 124.123 L 602.645 123.09 L 578.581 123.09 Z M 600.565 125.566 L 600.565 152.094 L 580.662 152.094 L 580.662 125.566 C 580.663 125.209 580.624 124.852 580.547 124.505 L 600.68 124.505 C 600.603 124.852 600.564 125.209 600.565 125.566 Z M 606.83 123.09 L 607.306 124.123 C 607.517 124.568 607.626 125.063 607.627 125.566 L 607.627 153.509 L 630.098 153.509 L 630.098 125.566 C 630.098 125.063 630.208 124.568 630.418 124.123 L 630.894 123.09 L 606.83 123.09 Z M 628.813 125.566 L 628.813 152.094 L 608.911 152.094 L 608.911 125.566 C 608.911 125.209 608.873 124.852 608.795 124.505 L 628.929 124.505 C 628.852 124.852 628.813 125.209 628.813 125.566 Z M 635.08 123.09 L 635.555 124.123 C 635.766 124.568 635.875 125.063 635.876 125.566 L 635.876 153.509 L 658.346 153.509 L 658.346 125.566 C 658.347 125.063 658.457 124.568 658.667 124.123 L 659.143 123.09 L 635.08 123.09 Z M 657.062 125.566 L 657.062 152.094 L 637.16 152.094 L 637.16 125.566 C 637.16 125.209 637.121 124.852 637.044 124.505 L 657.178 124.505 C 657.101 124.852 657.062 125.209 657.062 125.566 Z M 663.329 123.09 L 663.804 124.123 C 664.014 124.568 664.124 125.063 664.124 125.566 L 664.124 153.509 L 686.595 153.509 L 686.595 125.566 C 686.596 125.063 686.706 124.568 686.917 124.123 L 687.392 123.09 L 663.329 123.09 Z M 685.311 125.566 L 685.311 152.094 L 665.409 152.094 L 665.409 125.566 C 665.409 125.209 665.37 124.852 665.293 124.505 L 685.428 124.505 C 685.35 124.852 685.311 125.209 685.311 125.566 Z M 691.578 123.09 L 692.052 124.123 C 692.263 124.568 692.374 125.063 692.374 125.566 L 692.374 153.509 L 714.845 153.509 L 714.845 125.566 C 714.845 125.063 714.955 124.568 715.166 124.123 L 715.641 123.09 L 691.578 123.09 Z M 713.561 125.566 L 713.561 152.094 L 693.658 152.094 L 693.658 125.566 C 693.658 125.209 693.619 124.852 693.542 124.505 L 713.676 124.505 C 713.599 124.852 713.56 125.209 713.561 125.566 Z M 719.827 123.09 L 720.302 124.123 C 720.512 124.568 720.623 125.063 720.623 125.566 L 720.623 153.509 L 743.094 153.509 L 743.094 125.566 C 743.094 125.063 743.204 124.568 743.415 124.123 L 743.89 123.09 L 719.827 123.09 Z M 741.81 125.566 L 741.81 152.094 L 721.907 152.094 L 721.907 125.566 C 721.907 125.209 721.868 124.852 721.791 124.505 L 741.925 124.505 C 741.848 124.852 741.809 125.209 741.81 125.566 Z M 748.075 123.09 L 748.551 124.123 C 748.761 124.568 748.872 125.063 748.872 125.566 L 748.872 153.509 L 771.343 153.509 L 771.343 125.566 C 771.343 125.063 771.453 124.568 771.663 124.123 L 772.139 123.09 L 748.075 123.09 Z M 770.059 125.566 L 770.059 152.094 L 750.156 152.094 L 750.156 125.566 C 750.156 125.209 750.118 124.852 750.04 124.505 L 770.174 124.505 C 770.097 124.852 770.058 125.209 770.059 125.566 Z M 776.324 123.09 L 776.8 124.123 C 777.011 124.568 777.12 125.063 777.121 125.566 L 777.121 153.509 L 799.592 153.509 L 799.592 125.566 C 799.592 125.063 799.702 124.568 799.912 124.123 L 800.388 123.09 L 776.324 123.09 Z M 798.307 125.566 L 798.307 152.094 L 778.405 152.094 L 778.405 125.566 C 778.405 125.209 778.366 124.852 778.289 124.505 L 798.423 124.505 C 798.346 124.852 798.307 125.209 798.307 125.566 Z M 550.333 123.09 L 550.808 124.123 C 551.018 124.568 551.129 125.063 551.129 125.566 L 551.129 153.509 L 573.6 153.509 L 573.6 125.566 C 573.6 125.063 573.71 124.568 573.921 124.123 L 574.396 123.09 L 550.333 123.09 Z M 572.316 125.566 L 572.316 152.094 L 552.413 152.094 L 552.413 125.566 C 552.413 125.209 552.375 124.852 552.297 124.505 L 572.431 124.505 C 572.354 124.852 572.315 125.209 572.316 125.566 Z M 578.581 123.09 L 579.057 124.123 C 579.268 124.568 579.378 125.063 579.378 125.566 L 579.378 153.509 L 601.849 153.509 L 601.849 125.566 C 601.849 125.063 601.959 124.568 602.169 124.123 L 602.645 123.09 L 578.581 123.09 Z M 600.565 125.566 L 600.565 152.094 L 580.662 152.094 L 580.662 125.566 C 580.663 125.209 580.624 124.852 580.547 124.505 L 600.68 124.505 C 600.603 124.852 600.564 125.209 600.565 125.566 Z M 606.83 123.09 L 607.306 124.123 C 607.517 124.568 607.626 125.063 607.627 125.566 L 607.627 153.509 L 630.098 153.509 L 630.098 125.566 C 630.098 125.063 630.208 124.568 630.418 124.123 L 630.894 123.09 L 606.83 123.09 Z M 628.813 125.566 L 628.813 152.094 L 608.911 152.094 L 608.911 125.566 C 608.911 125.209 608.873 124.852 608.795 124.505 L 628.929 124.505 C 628.852 124.852 628.813 125.209 628.813 125.566 Z M 635.08 123.09 L 635.555 124.123 C 635.766 124.568 635.875 125.063 635.876 125.566 L 635.876 153.509 L 658.346 153.509 L 658.346 125.566 C 658.347 125.063 658.457 124.568 658.667 124.123 L 659.143 123.09 L 635.08 123.09 Z M 657.062 125.566 L 657.062 152.094 L 637.16 152.094 L 637.16 125.566 C 637.16 125.209 637.121 124.852 637.044 124.505 L 657.178 124.505 C 657.101 124.852 657.062 125.209 657.062 125.566 Z M 663.329 123.09 L 663.804 124.123 C 664.014 124.568 664.124 125.063 664.124 125.566 L 664.124 153.509 L 686.595 153.509 L 686.595 125.566 C 686.596 125.063 686.706 124.568 686.917 124.123 L 687.392 123.09 L 663.329 123.09 Z M 685.311 125.566 L 685.311 152.094 L 665.409 152.094 L 665.409 125.566 C 665.409 125.209 665.37 124.852 665.293 124.505 L 685.428 124.505 C 685.35 124.852 685.311 125.209 685.311 125.566 Z M 691.578 123.09 L 692.052 124.123 C 692.263 124.568 692.374 125.063 692.374 125.566 L 692.374 153.509 L 714.845 153.509 L 714.845 125.566 C 714.845 125.063 714.955 124.568 715.166 124.123 L 715.641 123.09 L 691.578 123.09 Z M 713.561 125.566 L 713.561 152.094 L 693.658 152.094 L 693.658 125.566 C 693.658 125.209 693.619 124.852 693.542 124.505 L 713.676 124.505 C 713.599 124.852 713.56 125.209 713.561 125.566 Z M 719.827 123.09 L 720.302 124.123 C 720.512 124.568 720.623 125.063 720.623 125.566 L 720.623 153.509 L 743.094 153.509 L 743.094 125.566 C 743.094 125.063 743.204 124.568 743.415 124.123 L 743.89 123.09 L 719.827 123.09 Z M 741.81 125.566 L 741.81 152.094 L 721.907 152.094 L 721.907 125.566 C 721.907 125.209 721.868 124.852 721.791 124.505 L 741.925 124.505 C 741.848 124.852 741.809 125.209 741.81 125.566 Z M 748.075 123.09 L 748.551 124.123 C 748.761 124.568 748.872 125.063 748.872 125.566 L 748.872 153.509 L 771.343 153.509 L 771.343 125.566 C 771.343 125.063 771.453 124.568 771.663 124.123 L 772.139 123.09 L 748.075 123.09 Z M 770.059 125.566 L 770.059 152.094 L 750.156 152.094 L 750.156 125.566 C 750.156 125.209 750.118 124.852 750.04 124.505 L 770.174 124.505 C 770.097 124.852 770.058 125.209 770.059 125.566 Z M 776.324 123.09 L 776.8 124.123 C 777.011 124.568 777.12 125.063 777.121 125.566 L 777.121 153.509 L 799.592 153.509 L 799.592 125.566 C 799.592 125.063 799.702 124.568 799.912 124.123 L 800.388 123.09 L 776.324 123.09 Z M 798.307 125.566 L 798.307 152.094 L 778.405 152.094 L 778.405 125.566 C 778.405 125.209 778.366 124.852 778.289 124.505 L 798.423 124.505 C 798.346 124.852 798.307 125.209 798.307 125.566 Z M 550.333 123.09 L 550.808 124.123 C 551.018 124.568 551.129 125.063 551.129 125.566 L 551.129 153.509 L 573.6 153.509 L 573.6 125.566 C 573.6 125.063 573.71 124.568 573.921 124.123 L 574.396 123.09 L 550.333 123.09 Z M 572.316 125.566 L 572.316 152.094 L 552.413 152.094 L 552.413 125.566 C 552.413 125.209 552.375 124.852 552.297 124.505 L 572.431 124.505 C 572.354 124.852 572.315 125.209 572.316 125.566 Z M 578.581 123.09 L 579.057 124.123 C 579.268 124.568 579.378 125.063 579.378 125.566 L 579.378 153.509 L 601.849 153.509 L 601.849 125.566 C 601.849 125.063 601.959 124.568 602.169 124.123 L 602.645 123.09 L 578.581 123.09 Z M 600.565 125.566 L 600.565 152.094 L 580.662 152.094 L 580.662 125.566 C 580.663 125.209 580.624 124.852 580.547 124.505 L 600.68 124.505 C 600.603 124.852 600.564 125.209 600.565 125.566 Z M 606.83 123.09 L 607.306 124.123 C 607.517 124.568 607.626 125.063 607.627 125.566 L 607.627 153.509 L 630.098 153.509 L 630.098 125.566 C 630.098 125.063 630.208 124.568 630.418 124.123 L 630.894 123.09 L 606.83 123.09 Z M 628.813 125.566 L 628.813 152.094 L 608.911 152.094 L 608.911 125.566 C 608.911 125.209 608.873 124.852 608.795 124.505 L 628.929 124.505 C 628.852 124.852 628.813 125.209 628.813 125.566 Z M 635.08 123.09 L 635.555 124.123 C 635.766 124.568 635.875 125.063 635.876 125.566 L 635.876 153.509 L 658.346 153.509 L 658.346 125.566 C 658.347 125.063 658.457 124.568 658.667 124.123 L 659.143 123.09 L 635.08 123.09 Z M 657.062 125.566 L 657.062 152.094 L 637.16 152.094 L 637.16 125.566 C 637.16 125.209 637.121 124.852 637.044 124.505 L 657.178 124.505 C 657.101 124.852 657.062 125.209 657.062 125.566 Z M 663.329 123.09 L 663.804 124.123 C 664.014 124.568 664.124 125.063 664.124 125.566 L 664.124 153.509 L 686.595 153.509 L 686.595 125.566 C 686.596 125.063 686.706 124.568 686.917 124.123 L 687.392 123.09 L 663.329 123.09 Z M 685.311 125.566 L 685.311 152.094 L 665.409 152.094 L 665.409 125.566 C 665.409 125.209 665.37 124.852 665.293 124.505 L 685.428 124.505 C 685.35 124.852 685.311 125.209 685.311 125.566 Z M 691.578 123.09 L 692.052 124.123 C 692.263 124.568 692.374 125.063 692.374 125.566 L 692.374 153.509 L 714.845 153.509 L 714.845 125.566 C 714.845 125.063 714.955 124.568 715.166 124.123 L 715.641 123.09 L 691.578 123.09 Z M 713.561 125.566 L 713.561 152.094 L 693.658 152.094 L 693.658 125.566 C 693.658 125.209 693.619 124.852 693.542 124.505 L 713.676 124.505 C 713.599 124.852 713.56 125.209 713.561 125.566 Z M 719.827 123.09 L 720.302 124.123 C 720.512 124.568 720.623 125.063 720.623 125.566 L 720.623 153.509 L 743.094 153.509 L 743.094 125.566 C 743.094 125.063 743.204 124.568 743.415 124.123 L 743.89 123.09 L 719.827 123.09 Z M 741.81 125.566 L 741.81 152.094 L 721.907 152.094 L 721.907 125.566 C 721.907 125.209 721.868 124.852 721.791 124.505 L 741.925 124.505 C 741.848 124.852 741.809 125.209 741.81 125.566 Z M 748.075 123.09 L 748.551 124.123 C 748.761 124.568 748.872 125.063 748.872 125.566 L 748.872 153.509 L 771.343 153.509 L 771.343 125.566 C 771.343 125.063 771.453 124.568 771.663 124.123 L 772.139 123.09 L 748.075 123.09 Z M 770.059 125.566 L 770.059 152.094 L 750.156 152.094 L 750.156 125.566 C 750.156 125.209 750.118 124.852 750.04 124.505 L 770.174 124.505 C 770.097 124.852 770.058 125.209 770.059 125.566 Z M 776.324 123.09 L 776.8 124.123 C 777.011 124.568 777.12 125.063 777.121 125.566 L 777.121 153.509 L 799.592 153.509 L 799.592 125.566 C 799.592 125.063 799.702 124.568 799.912 124.123 L 800.388 123.09 L 776.324 123.09 Z M 798.307 125.566 L 798.307 152.094 L 778.405 152.094 L 778.405 125.566 C 778.405 125.209 778.366 124.852 778.289 124.505 L 798.423 124.505 C 798.346 124.852 798.307 125.209 798.307 125.566 Z M 550.333 123.09 L 550.808 124.123 C 551.018 124.568 551.129 125.063 551.129 125.566 L 551.129 153.509 L 573.6 153.509 L 573.6 125.566 C 573.6 125.063 573.71 124.568 573.921 124.123 L 574.396 123.09 L 550.333 123.09 Z M 572.316 125.566 L 572.316 152.094 L 552.413 152.094 L 552.413 125.566 C 552.413 125.209 552.375 124.852 552.297 124.505 L 572.431 124.505 C 572.354 124.852 572.315 125.209 572.316 125.566 Z M 578.581 123.09 L 579.057 124.123 C 579.268 124.568 579.378 125.063 579.378 125.566 L 579.378 153.509 L 601.849 153.509 L 601.849 125.566 C 601.849 125.063 601.959 124.568 602.169 124.123 L 602.645 123.09 L 578.581 123.09 Z M 600.565 125.566 L 600.565 152.094 L 580.662 152.094 L 580.662 125.566 C 580.663 125.209 580.624 124.852 580.547 124.505 L 600.68 124.505 C 600.603 124.852 600.564 125.209 600.565 125.566 Z M 606.83 123.09 L 607.306 124.123 C 607.517 124.568 607.626 125.063 607.627 125.566 L 607.627 153.509 L 630.098 153.509 L 630.098 125.566 C 630.098 125.063 630.208 124.568 630.418 124.123 L 630.894 123.09 L 606.83 123.09 Z M 628.813 125.566 L 628.813 152.094 L 608.911 152.094 L 608.911 125.566 C 608.911 125.209 608.873 124.852 608.795 124.505 L 628.929 124.505 C 628.852 124.852 628.813 125.209 628.813 125.566 Z M 635.08 123.09 L 635.555 124.123 C 635.766 124.568 635.875 125.063 635.876 125.566 L 635.876 153.509 L 658.346 153.509 L 658.346 125.566 C 658.347 125.063 658.457 124.568 658.667 124.123 L 659.143 123.09 L 635.08 123.09 Z M 657.062 125.566 L 657.062 152.094 L 637.16 152.094 L 637.16 125.566 C 637.16 125.209 637.121 124.852 637.044 124.505 L 657.178 124.505 C 657.101 124.852 657.062 125.209 657.062 125.566 Z M 663.329 123.09 L 663.804 124.123 C 664.014 124.568 664.124 125.063 664.124 125.566 L 664.124 153.509 L 686.595 153.509 L 686.595 125.566 C 686.596 125.063 686.706 124.568 686.917 124.123 L 687.392 123.09 L 663.329 123.09 Z M 685.311 125.566 L 685.311 152.094 L 665.409 152.094 L 665.409 125.566 C 665.409 125.209 665.37 124.852 665.293 124.505 L 685.428 124.505 C 685.35 124.852 685.311 125.209 685.311 125.566 Z M 691.578 123.09 L 692.052 124.123 C 692.263 124.568 692.374 125.063 692.374 125.566 L 692.374 153.509 L 714.845 153.509 L 714.845 125.566 C 714.845 125.063 714.955 124.568 715.166 124.123 L 715.641 123.09 L 691.578 123.09 Z M 713.561 125.566 L 713.561 152.094 L 693.658 152.094 L 693.658 125.566 C 693.658 125.209 693.619 124.852 693.542 124.505 L 713.676 124.505 C 713.599 124.852 713.56 125.209 713.561 125.566 Z M 719.827 123.09 L 720.302 124.123 C 720.512 124.568 720.623 125.063 720.623 125.566 L 720.623 153.509 L 743.094 153.509 L 743.094 125.566 C 743.094 125.063 743.204 124.568 743.415 124.123 L 743.89 123.09 L 719.827 123.09 Z M 741.81 125.566 L 741.81 152.094 L 721.907 152.094 L 721.907 125.566 C 721.907 125.209 721.868 124.852 721.791 124.505 L 741.925 124.505 C 741.848 124.852 741.809 125.209 741.81 125.566 Z M 748.075 123.09 L 748.551 124.123 C 748.761 124.568 748.872 125.063 748.872 125.566 L 748.872 153.509 L 771.343 153.509 L 771.343 125.566 C 771.343 125.063 771.453 124.568 771.663 124.123 L 772.139 123.09 L 748.075 123.09 Z M 770.059 125.566 L 770.059 152.094 L 750.156 152.094 L 750.156 125.566 C 750.156 125.209 750.118 124.852 750.04 124.505 L 770.174 124.505 C 770.097 124.852 770.058 125.209 770.059 125.566 Z M 776.324 123.09 L 776.8 124.123 C 777.011 124.568 777.12 125.063 777.121 125.566 L 777.121 153.509 L 799.592 153.509 L 799.592 125.566 C 799.592 125.063 799.702 124.568 799.912 124.123 L 800.388 123.09 L 776.324 123.09 Z M 798.307 125.566 L 798.307 152.094 L 778.405 152.094 L 778.405 125.566 C 778.405 125.209 778.366 124.852 778.289 124.505 L 798.423 124.505 C 798.346 124.852 798.307 125.209 798.307 125.566 Z" fill="#3f3d56" style=""/>
  <path d="M 626.664 246.887 L 579.319 246.887 C 577.243 246.884 575.561 245.031 575.559 242.743 L 575.559 214.953 C 575.561 212.665 577.243 210.812 579.319 210.809 L 626.664 210.809 C 628.74 210.812 630.423 212.665 630.425 214.953 L 630.425 242.743 C 630.423 245.031 628.74 246.884 626.664 246.887 Z" style="fill: rgb(12, 102, 225);"/>
  <path d="M 698.711 246.887 L 651.367 246.887 C 649.291 246.884 647.608 245.031 647.606 242.743 L 647.606 214.953 C 647.608 212.665 649.291 210.812 651.367 210.809 L 698.711 210.809 C 700.788 210.812 702.47 212.665 702.473 214.953 L 702.473 242.743 C 702.47 245.031 700.788 246.884 698.711 246.887 Z" style="fill: rgb(12, 102, 225);"/>
  <path d="M 770.759 246.887 L 723.414 246.887 C 721.338 246.884 719.656 245.031 719.653 242.743 L 719.653 214.953 C 719.656 212.665 721.338 210.812 723.414 210.809 L 770.759 210.809 C 772.835 210.812 774.518 212.665 774.52 214.953 L 774.52 242.743 C 774.518 245.031 772.835 246.884 770.759 246.887 Z" style="fill: rgb(12, 102, 225);"/>
  <path d="M 626.664 339.558 L 579.319 339.558 C 577.243 339.555 575.561 337.702 575.559 335.414 L 575.559 307.624 C 575.561 305.336 577.243 303.483 579.319 303.48 L 626.664 303.48 C 628.74 303.483 630.423 305.336 630.425 307.624 L 630.425 335.414 C 630.423 337.702 628.74 339.555 626.664 339.558 Z" style="fill: rgb(12, 102, 225);"/>
  <path d="M 698.711 339.558 L 651.367 339.558 C 649.291 339.555 647.608 337.702 647.606 335.414 L 647.606 307.624 C 647.608 305.336 649.291 303.483 651.367 303.48 L 698.711 303.48 C 700.788 303.483 702.47 305.336 702.473 307.624 L 702.473 335.414 C 702.47 337.702 700.788 339.555 698.711 339.558 Z" style="fill: rgb(12, 102, 225);"/>
  <path d="M 770.759 339.558 L 723.414 339.558 C 721.338 339.555 719.656 337.702 719.653 335.414 L 719.653 307.624 C 719.656 305.336 721.338 303.483 723.414 303.48 L 770.759 303.48 C 772.835 303.483 774.518 305.336 774.52 307.624 L 774.52 335.414 C 774.518 337.702 772.835 339.555 770.759 339.558 Z" style="fill: rgb(12, 102, 225);"/>
  <path d="M 626.664 432.229 L 579.319 432.229 C 577.243 432.226 575.561 430.373 575.559 428.085 L 575.559 400.295 C 575.561 398.007 577.243 396.154 579.319 396.151 L 626.664 396.151 C 628.74 396.154 630.423 398.007 630.425 400.295 L 630.425 428.085 C 630.423 430.373 628.74 432.226 626.664 432.229 Z" style="fill: rgb(12, 102, 225);"/>
  <path d="M 698.711 432.229 L 651.367 432.229 C 649.291 432.226 647.608 430.373 647.606 428.085 L 647.606 400.295 C 647.608 398.007 649.291 396.154 651.367 396.151 L 698.711 396.151 C 700.788 396.154 702.47 398.007 702.473 400.295 L 702.473 428.085 C 702.47 430.373 700.788 432.226 698.711 432.229 Z" style="fill: rgb(12, 102, 225);"/>
  <path d="M 770.759 432.229 L 723.414 432.229 C 721.338 432.226 719.656 430.373 719.653 428.085 L 719.653 400.295 C 719.656 398.007 721.338 396.154 723.414 396.151 L 770.759 396.151 C 772.835 396.154 774.518 398.007 774.52 400.295 L 774.52 428.085 C 774.518 430.373 772.835 432.226 770.759 432.229 Z" style="fill: rgb(12, 102, 225);"/>
  <path d="M 618.999 250.453 L 564.153 250.453 C 561.393 250.45 559.157 247.985 559.154 244.944 L 559.154 212.752 C 559.157 209.711 561.393 207.246 564.153 207.243 L 618.999 207.243 C 621.759 207.246 623.995 209.711 623.999 212.752 L 623.999 244.944 C 623.995 247.985 621.759 250.45 618.999 250.453 Z M 564.153 208.658 C 562.102 208.661 560.44 210.492 560.438 212.752 L 560.438 244.944 C 560.44 247.204 562.102 249.035 564.153 249.038 L 618.999 249.038 C 621.05 249.035 622.712 247.204 622.715 244.944 L 622.715 212.752 C 622.712 210.492 621.05 208.661 618.999 208.658 L 564.153 208.658 Z" fill="#3f3d56" style=""/>
  <path d="M 702.462 250.453 L 647.616 250.453 C 644.857 250.45 642.62 247.985 642.617 244.944 L 642.617 212.752 C 642.62 209.711 644.857 207.246 647.616 207.243 L 702.462 207.243 C 705.222 207.246 707.458 209.711 707.461 212.752 L 707.461 244.944 C 707.458 247.985 705.222 250.45 702.462 250.453 Z M 647.616 208.658 C 645.566 208.661 643.903 210.492 643.901 212.752 L 643.901 244.944 C 643.903 247.204 645.566 249.035 647.616 249.038 L 702.462 249.038 C 704.513 249.035 706.175 247.204 706.177 244.944 L 706.177 212.752 C 706.175 210.492 704.513 208.661 702.462 208.658 L 647.616 208.658 Z" fill="#3f3d56" style=""/>
  <path d="M 785.925 250.453 L 731.079 250.453 C 728.319 250.45 726.083 247.985 726.08 244.944 L 726.08 212.752 C 726.083 209.711 728.319 207.246 731.079 207.243 L 785.925 207.243 C 788.685 207.246 790.921 209.711 790.924 212.752 L 790.924 244.944 C 790.921 247.985 788.685 250.45 785.925 250.453 Z M 731.079 208.658 C 729.028 208.661 727.366 210.492 727.364 212.752 L 727.364 244.944 C 727.366 247.204 729.028 249.035 731.079 249.038 L 785.925 249.038 C 787.976 249.035 789.638 247.204 789.64 244.944 L 789.64 212.752 C 789.638 210.492 787.976 208.661 785.925 208.658 L 731.079 208.658 Z" fill="#3f3d56" style=""/>
  <path d="M 618.999 343.124 L 564.153 343.124 C 561.393 343.121 559.157 340.656 559.154 337.616 L 559.154 305.423 C 559.157 302.382 561.393 299.918 564.153 299.914 L 618.999 299.914 C 621.759 299.918 623.995 302.382 623.999 305.423 L 623.999 337.616 C 623.995 340.656 621.759 343.121 618.999 343.124 Z M 564.153 301.329 C 562.102 301.332 560.44 303.163 560.438 305.423 L 560.438 337.616 C 560.44 339.875 562.102 341.706 564.153 341.709 L 618.999 341.709 C 621.05 341.706 622.712 339.875 622.715 337.616 L 622.715 305.423 C 622.712 303.163 621.05 301.332 618.999 301.329 L 564.153 301.329 Z" fill="#3f3d56" style=""/>
  <path d="M 702.462 343.124 L 647.616 343.124 C 644.857 343.121 642.62 340.656 642.617 337.616 L 642.617 305.423 C 642.62 302.382 644.857 299.918 647.616 299.914 L 702.462 299.914 C 705.222 299.918 707.458 302.382 707.461 305.423 L 707.461 337.616 C 707.458 340.656 705.222 343.121 702.462 343.124 Z M 647.616 301.329 C 645.566 301.332 643.903 303.163 643.901 305.423 L 643.901 337.616 C 643.903 339.875 645.566 341.706 647.616 341.709 L 702.462 341.709 C 704.513 341.706 706.175 339.875 706.177 337.616 L 706.177 305.423 C 706.175 303.163 704.513 301.332 702.462 301.329 L 647.616 301.329 Z" fill="#3f3d56" style=""/>
  <path d="M 785.925 343.124 L 731.079 343.124 C 728.319 343.121 726.083 340.656 726.08 337.616 L 726.08 305.423 C 726.083 302.382 728.319 299.918 731.079 299.914 L 785.925 299.914 C 788.685 299.918 790.921 302.382 790.924 305.423 L 790.924 337.616 C 790.921 340.656 788.685 343.121 785.925 343.124 Z M 731.079 301.329 C 729.028 301.332 727.366 303.163 727.364 305.423 L 727.364 337.616 C 727.366 339.875 729.028 341.706 731.079 341.709 L 785.925 341.709 C 787.976 341.706 789.638 339.875 789.64 337.616 L 789.64 305.423 C 789.638 303.163 787.976 301.332 785.925 301.329 L 731.079 301.329 Z" fill="#3f3d56" style=""/>
  <path d="M 618.999 435.795 L 564.153 435.795 C 561.393 435.792 559.157 433.327 559.154 430.287 L 559.154 398.094 C 559.157 395.053 561.393 392.589 564.153 392.585 L 618.999 392.585 C 621.759 392.589 623.995 395.053 623.999 398.094 L 623.999 430.287 C 623.995 433.327 621.759 435.792 618.999 435.795 Z M 564.153 394 C 562.102 394.003 560.44 395.834 560.438 398.094 L 560.438 430.287 C 560.44 432.546 562.102 434.378 564.153 434.38 L 618.999 434.38 C 621.05 434.378 622.712 432.546 622.715 430.287 L 622.715 398.094 C 622.712 395.834 621.05 394.003 618.999 394 L 564.153 394 Z" fill="#3f3d56" style=""/>
  <path d="M 702.462 435.795 L 647.616 435.795 C 644.857 435.792 642.62 433.327 642.617 430.287 L 642.617 398.094 C 642.62 395.053 644.857 392.589 647.616 392.585 L 702.462 392.585 C 705.222 392.589 707.458 395.053 707.461 398.094 L 707.461 430.287 C 707.458 433.327 705.222 435.792 702.462 435.795 Z M 647.616 394 C 645.566 394.003 643.903 395.834 643.901 398.094 L 643.901 430.287 C 643.903 432.546 645.566 434.378 647.616 434.38 L 702.462 434.38 C 704.513 434.378 706.175 432.546 706.177 430.287 L 706.177 398.094 C 706.175 395.834 704.513 394.003 702.462 394 L 647.616 394 Z" fill="#3f3d56" style=""/>
  <path d="M 785.925 435.795 L 731.079 435.795 C 728.319 435.792 726.083 433.327 726.08 430.287 L 726.08 398.094 C 726.083 395.053 728.319 392.589 731.079 392.585 L 785.925 392.585 C 788.685 392.589 790.921 395.053 790.924 398.094 L 790.924 430.287 C 790.921 433.327 788.685 435.792 785.925 435.795 Z M 731.079 394 C 729.028 394.003 727.366 395.834 727.364 398.094 L 727.364 430.287 C 727.366 432.546 729.028 434.378 731.079 434.38 L 785.925 434.38 C 787.976 434.378 789.638 432.546 789.64 430.287 L 789.64 398.094 C 789.638 395.834 787.976 394.003 785.925 394 L 731.079 394 Z" fill="#3f3d56" style=""/>
  <path d="M 940.194 961.052 C 939.938 961.052 939.689 961.052 939.432 961.045 C 923.55 960.851 908.277 954.273 896.485 942.548 C 896.049 942.11 895.616 941.667 895.187 941.219 L 894.989 941.009 L 894.989 805.432 L 895.05 805.289 C 895.475 804.296 895.906 803.318 896.337 802.339 C 909.691 772.465 925.266 756.015 940.194 756.015 C 961.72 756.015 978.415 788.552 986.451 807.946 C 997.625 834.916 1005.429 868.334 1005.429 889.214 C 1005.419 928.58 976.664 960.608 940.939 961.045 C 940.699 961.052 940.443 961.052 940.194 961.052 Z M 896.273 940.403 C 896.628 940.773 896.988 941.139 897.347 941.499 C 908.909 952.995 923.884 959.442 939.456 959.63 C 939.715 959.637 939.962 959.629 940.211 959.637 C 940.443 959.637 940.682 959.637 940.915 959.63 C 975.785 959.204 1004.145 927.615 1004.145 889.214 C 1004.145 868.515 996.389 835.338 985.283 808.533 C 977.375 789.448 961.002 757.43 940.194 757.43 C 925.781 757.43 910.615 773.599 897.491 802.96 C 897.084 803.884 896.676 804.81 896.273 805.749 L 896.273 940.403 Z" fill="#3f3d56" style=""/>
  <path d="M 1009.359 545.061 L 362.2 545.061 C 361.706 545.061 361.396 544.472 361.644 544 C 361.759 543.782 361.97 543.647 362.2 543.647 L 1009.359 543.647 C 1009.853 543.647 1010.162 544.236 1009.914 544.708 C 1009.8 544.926 1009.588 545.061 1009.359 545.061 Z" fill="#3f3d56" style=""/>
  <path d="M 707.461 476.591 C 707.498 473.229 705.055 470.471 702.004 470.429 L 675.039 470.429 L 675.039 543.647 L 707.461 543.647 L 707.461 476.591 Z" fill="#3f3d56" style=""/>
  <path d="M 675.681 542.939 L 641.975 542.939 L 641.975 476.796 C 641.979 473.086 644.707 470.08 648.074 470.076 L 675.681 470.076 L 675.681 542.939 Z M 643.259 541.524 L 674.397 541.524 L 674.397 471.491 L 648.074 471.491 C 645.416 471.494 643.262 473.867 643.259 476.796 L 643.259 541.524 Z" fill="#3f3d56" style=""/>
  <path d="M 940.892 909.852 C 940.56 909.852 940.351 909.426 940.518 909.084 C 940.536 909.046 940.56 909.01 940.586 908.979 L 952.961 894.361 C 953.197 894.083 953.6 894.212 953.684 894.592 C 953.724 894.768 953.681 894.956 953.573 895.084 L 941.199 909.702 C 941.118 909.798 941.007 909.852 940.892 909.852 Z" fill="#ccc" style="transform-origin: 947.079px 902.032px;" transform="matrix(0.173648029566, -0.984808027745, 0.984808027744, 0.173648029566, -0.00001180845, 0.000055321475)"/>
  <circle cx="443.27165" cy="720" r="3" fill="#3f3d56" style="" transform="matrix(0.6420220732688904, 0, 0, 0.7074130177497864, 361.5577697753906, 0)"/>
  <rect x="658.977" y="961.052" width="308.584" height="91.477" fill="#f0f0f0" style=""/>
  <rect x="795.279" y="979.958" width="35.981" height="72.572" fill="#cacaca" style=""/>
  <rect x="676.969" y="853.109" width="272.602" height="84.159" fill="#f0f0f0" style=""/>
  <path d="M 980.092 853.007 L 652.215 853.007 C 650.102 853.007 648.782 850.72 649.838 848.891 C 649.967 848.667 650.127 848.463 650.313 848.284 L 739.921 762.151 L 739.921 724.634 C 739.924 723.118 741.151 721.891 742.667 721.89 L 760.352 721.89 C 761.867 721.891 763.094 723.118 763.097 724.634 L 763.097 739.876 L 769.865 733.371 C 792.841 711.285 828.97 710.684 852.668 731.993 L 981.927 848.222 C 983.497 849.635 982.95 852.219 980.941 852.872 C 980.667 852.962 980.38 853.007 980.092 853.007 Z" style="fill: rgb(63, 61, 86);"/>
  <path d="M 748.931 874.454 C 758.53 874.454 766.311 882.235 766.311 891.835 L 766.311 915.313 C 766.311 915.313 766.311 915.313 766.311 915.313 L 731.549 915.313 C 731.549 915.313 731.549 915.313 731.549 915.313 L 731.549 891.835 C 731.549 882.235 739.331 874.454 748.931 874.454 Z" fill="#fff" style=""/>
  <path d="M 813.27 874.759 C 822.868 874.759 830.65 882.54 830.65 892.139 L 830.65 915.619 C 830.65 915.619 830.65 915.619 830.65 915.619 L 795.889 915.619 C 795.889 915.619 795.889 915.619 795.889 915.619 L 795.889 892.139 C 795.889 882.54 803.67 874.759 813.27 874.759 Z" fill="#fff" style=""/>
  <path d="M 877.609 875.063 C 887.207 875.063 894.989 882.845 894.989 892.445 L 894.989 915.923 C 894.989 915.923 894.989 915.923 894.989 915.923 L 860.228 915.923 C 860.228 915.923 860.228 915.923 860.228 915.923 L 860.228 892.445 C 860.228 882.845 868.01 875.063 877.609 875.063 Z" fill="#fff" style=""/>
  <path d="M 903.222 979.043 C 912.822 979.043 920.603 986.824 920.603 996.424 L 920.603 1019.902 C 920.603 1019.902 920.603 1019.902 920.603 1019.902 L 885.842 1019.902 C 885.842 1019.902 885.842 1019.902 885.842 1019.902 L 885.842 996.424 C 885.842 986.824 893.624 979.043 903.222 979.043 Z" fill="#fff" style=""/>
  <path d="M 731.245 979.043 C 740.843 979.043 748.625 986.824 748.625 996.424 L 748.625 1019.902 C 748.625 1019.902 748.625 1019.902 748.625 1019.902 L 713.864 1019.902 C 713.864 1019.902 713.864 1019.902 713.864 1019.902 L 713.864 996.424 C 713.864 986.824 721.646 979.043 731.245 979.043 Z" fill="#fff" style=""/>
  <path d="M 1012.645 962.481 L 954.757 936.867 C 954.447 936.729 954.111 936.658 953.77 936.658 L 677.891 936.658 C 677.577 936.658 677.264 936.719 676.973 936.838 L 613.962 962.451 C 612.223 963.159 611.902 965.484 613.383 966.637 C 613.812 966.97 614.338 967.15 614.881 967.15 L 631.229 967.15 L 631.229 1051.31 L 629.4 1051.31 L 629.4 1059.848 L 997.139 1059.848 L 997.139 1051.31 L 994.09 1051.31 L 994.09 967.15 L 1011.658 967.15 C 1013.535 967.15 1014.709 965.118 1013.77 963.492 C 1013.512 963.044 1013.118 962.69 1012.645 962.481 Z M 989.212 1051.31 L 636.108 1051.31 L 636.108 967.15 L 989.212 967.15 L 989.212 1051.31 Z" style="fill: rgb(63, 61, 86);"/>
  <rect x="726.061" y="911.959" width="44.519" height="7.318" fill="#cacaca" style=""/>
  <rect x="791.315" y="911.959" width="44.519" height="7.318" fill="#cacaca" style=""/>
  <rect x="856.568" y="911.959" width="44.519" height="7.318" fill="#cacaca" style=""/>
  <rect x="880.964" y="1017.464" width="44.519" height="7.318" fill="#cacaca" style=""/>
  <rect x="708.375" y="1017.464" width="44.519" height="7.318" fill="#cacaca" style=""/>
  <path d="M 629.202 743.449 L 441.277 743.449 C 436.144 743.449 431.968 739.668 431.968 735.019 L 431.968 621.262 C 432.017 619.321 433.247 617.608 435.07 616.942 L 522.572 581.94 C 530.612 578.758 539.561 578.754 547.605 581.927 L 635.404 616.944 C 637.229 617.608 638.461 619.323 638.511 621.265 L 638.511 735.019 C 638.511 739.668 634.335 743.449 629.202 743.449 Z" style="fill: rgb(242, 242, 242);"/>
  <path d="M 491.361 665.274 L 491.361 653.508 C 491.361 650.313 488.77 647.722 485.575 647.722 L 455.886 647.722 C 452.69 647.722 450.1 650.313 450.1 653.508 L 450.1 665.274 L 491.361 665.274 Z" fill="#fff" style=""/>
  <path d="M 450.1 667.121 L 450.1 685.353 C 450.1 688.548 452.69 691.139 455.886 691.139 L 485.575 691.139 C 488.77 691.139 491.361 688.548 491.361 685.353 L 491.361 667.121 L 450.1 667.121 Z" fill="#fff" style=""/>
  <path d="M 631.364 632.979 L 542.227 600.304 C 536.81 598.318 530.863 598.318 525.445 600.304 L 436.308 632.979 C 428.195 635.953 419.598 629.948 419.598 621.307 C 419.598 616.091 422.854 611.431 427.751 609.635 L 525.445 573.823 C 530.863 571.837 536.81 571.837 542.227 573.823 L 639.921 609.635 C 644.819 611.431 648.074 616.091 648.074 621.307 C 648.074 629.948 639.477 635.953 631.364 632.979 Z" fill="#3f3d56" style=""/>
  <path d="M 548.229 743.994 L 524.405 743.994 C 519.141 743.988 514.875 739.722 514.869 734.458 L 514.869 676.763 C 514.875 671.499 519.141 667.233 524.405 667.227 L 548.229 667.227 C 553.493 667.233 557.759 671.499 557.765 676.763 L 557.765 734.458 C 557.759 739.722 553.493 743.988 548.229 743.994 Z M 524.405 668.862 C 520.044 668.867 516.509 672.402 516.504 676.763 L 516.504 734.458 C 516.509 738.82 520.044 742.355 524.405 742.36 L 548.229 742.36 C 552.591 742.355 556.126 738.82 556.131 734.458 L 556.131 676.763 C 556.126 672.402 552.591 668.867 548.229 668.862 L 524.405 668.862 Z" fill="#3f3d56" style=""/>
  <path d="M 450.408 685.253 C 446.825 685.253 444.586 689.131 446.377 692.234 C 447.208 693.674 448.745 694.561 450.408 694.561 L 491.053 694.561 C 494.636 694.561 496.875 690.683 495.084 687.58 C 494.252 686.14 492.716 685.253 491.053 685.253 L 450.408 685.253 Z" fill="#ccc" style=""/>
  <path d="M 576.655 667.121 L 576.655 685.353 C 576.655 688.548 579.245 691.139 582.44 691.139 L 612.13 691.139 C 615.325 691.139 617.916 688.548 617.916 685.353 L 617.916 667.121 L 576.655 667.121 Z" fill="#fff" style=""/>
  <path d="M 617.916 665.274 L 617.916 653.508 C 617.916 650.313 615.325 647.722 612.13 647.722 L 582.44 647.722 C 579.245 647.722 576.655 650.313 576.655 653.508 L 576.655 665.274 L 617.916 665.274 Z" fill="#fff" style=""/>
  <circle cx="550.481" cy="704.071" r="3.387" fill="#3f3d56" style=""/>
  <path d="M 617.3 695.106 L 576.655 695.106 C 572.652 695.106 570.151 690.774 572.152 687.307 C 573.081 685.699 574.797 684.708 576.655 684.708 L 617.3 684.708 C 621.302 684.708 623.803 689.041 621.802 692.506 C 620.874 694.115 619.157 695.106 617.3 695.106 Z" fill="#ccc" style=""/>
  <path d="M 491.361 743.994 L 436.144 743.994 L 436.144 743.287 C 436.133 719.869 459.134 705.221 477.545 716.92 C 486.098 722.355 491.366 732.408 491.361 743.287 L 491.361 743.994 Z M 437.435 742.579 L 490.069 742.579 C 489.575 720.257 467.335 706.896 450.038 718.529 C 442.4 723.664 437.653 732.724 437.435 742.579 Z" fill="#3f3d56" style=""/>
  <path d="M 466.855 726.021 C 466.452 726.021 466.126 726.381 466.126 726.824 L 466.126 735.355 L 458.584 728.222 C 458.159 727.818 457.497 728.073 457.392 728.68 C 457.343 728.964 457.436 729.254 457.635 729.441 L 466.126 737.472 L 466.126 742.484 C 466.125 743.102 466.731 743.49 467.218 743.183 C 467.445 743.039 467.585 742.772 467.584 742.484 L 467.584 726.824 C 467.584 726.381 467.257 726.021 466.855 726.021 Z" fill="#3f3d56" style=""/>
  <path d="M 953.003 932.621 C 952.513 932.621 952.206 932.002 952.452 931.507 C 952.48 931.45 952.514 931.399 952.553 931.353 L 970.76 910.125 C 971.107 909.723 971.7 909.909 971.825 910.461 C 971.884 910.717 971.821 910.989 971.661 911.176 L 953.454 932.404 C 953.335 932.543 953.172 932.621 953.003 932.621 Z" fill="#ccc" style=""/>
  <path d="M 952.81 898.067 C 952.469 898.067 952.255 897.566 952.426 897.165 C 952.445 897.12 952.469 897.078 952.496 897.041 L 965.186 879.865 C 965.428 879.539 965.841 879.69 965.928 880.137 C 965.969 880.343 965.925 880.564 965.814 880.715 L 953.124 897.891 C 953.041 898.003 952.928 898.067 952.81 898.067 Z" fill="#ccc" style=""/>
  <path d="M 955.931 716.401 C 955.931 716.401 955.931 716.696 955.931 717.062 L 955.93 851.827 C 955.93 852.333 955.93 852.655 955.93 852.403 C 955.93 852.284 955.93 852.065 955.93 851.827 L 955.931 717.062 C 955.931 716.696 955.931 716.401 955.931 716.401 Z" fill="#ccc" style="transform-origin: 955.93px 784.446px;" transform="matrix(-1, 0, 0, -1, 0, 0)"/>
  <path d="M 952.864 936.658 C 952.59 936.658 952.365 936.55 952.365 936.416 L 952.365 886.903 C 952.363 886.716 952.779 886.598 953.112 886.691 C 953.268 886.733 953.365 886.814 953.365 886.903 L 953.365 936.416 C 953.365 936.55 953.14 936.658 952.864 936.658 Z" fill="#ccc" style=""/>
</svg>