<?xml version="1.0" encoding="utf-8"?>
<svg viewBox="248.184 94.4025 484.081 371.0565" xmlns="http://www.w3.org/2000/svg">
  <path d="M 712.734 162.529 C 712.336 162.528 712.006 162.218 711.978 161.819 C 710.949 147.756 699.328 136.863 685.312 136.825 C 684.503 136.825 683.654 136.867 682.787 136.949 C 682.491 136.977 682.206 136.827 682.058 136.568 C 669.893 115.145 639.24 115.005 626.882 136.315 C 625.565 138.587 624.53 141.013 623.802 143.538 C 623.708 143.872 623.401 144.099 623.056 144.089 L 622.854 144.083 C 622.75 144.08 622.645 144.076 622.539 144.076 C 611.979 144.109 602.867 151.536 600.645 161.923 C 600.57 162.276 600.261 162.529 599.902 162.529 L 549.081 162.529 C 548.497 162.53 548.13 161.896 548.42 161.385 C 548.556 161.148 548.808 161.001 549.081 161.002 L 599.295 161.002 C 601.896 150.212 611.477 142.598 622.513 142.549 C 630.1 117.856 661.413 110.686 678.876 129.644 C 680.493 131.4 681.92 133.326 683.13 135.387 C 683.876 135.328 684.608 135.299 685.312 135.299 C 700.123 135.339 712.405 146.85 713.492 161.711 C 713.521 162.132 713.206 162.497 712.788 162.526 C 712.77 162.528 712.752 162.529 712.734 162.529 Z" fill="#cbcbcb" style="" transform="matrix(1, 0, 0, 1, 0, 7.105427357601002e-15)"/>
  <path d="M 703.708 172.314 L 579.299 172.314 C 578.715 172.314 578.35 171.678 578.642 171.169 C 578.778 170.933 579.028 170.788 579.299 170.788 L 703.708 170.788 C 704.292 170.788 704.657 171.424 704.365 171.932 C 704.229 172.169 703.979 172.314 703.708 172.314 Z" fill="#cbcbcb" style="" transform="matrix(1, 0, 0, 1, 0, 7.105427357601002e-15)"/>
  <path d="M 609.643 183.38 L 567.92 183.38 C 567.336 183.38 566.971 182.745 567.263 182.235 C 567.399 182 567.649 181.854 567.92 181.854 L 609.643 181.854 C 610.227 181.854 610.592 182.49 610.3 182.999 C 610.164 183.235 609.914 183.38 609.643 183.38 Z" fill="#cbcbcb" style="" transform="matrix(1, 0, 0, 1, 0, 7.105427357601002e-15)"/>
  <ellipse cx="644.193" cy="259.252" rx="38.849" ry="60.6" style="fill: rgb(227, 226, 226);" transform="matrix(1, 0, 0, 1, 0, 7.105427357601002e-15)"/>
  <polygon id="polygon-1" points="643.338 314.797 643.723 289.8 659.718 258.875 643.784 285.878 643.956 274.639 654.978 252.266 644.002 271.664 644.002 271.665 644.313 251.45 656.117 233.638 644.361 248.271 644.556 211.204 643.335 260.274 643.436 258.249 631.435 238.836 643.243 262.135 642.125 284.712 642.092 284.113 628.257 263.682 642.05 286.23 641.91 289.053 641.885 289.096 641.896 289.327 639.06 346.605 642.85 346.605 643.305 317.02 657.063 294.529 643.338 314.797" style="fill: rgb(156, 156, 156);" transform="matrix(1, 0, 0, 1, 0, 7.105427357601002e-15)"/>
  <path d="M 611.391 343.097 L 448.741 343.097 C 444.317 343.097 440.717 338.561 440.717 332.983 L 440.717 195.166 C 440.679 193.022 441.704 191.035 443.367 190.032 L 504.83 147.636 C 511.659 143.774 519.68 143.765 526.516 147.612 L 616.749 190.028 C 618.42 191.028 619.453 193.019 619.415 195.17 L 619.415 332.983 C 619.415 338.561 615.815 343.097 611.391 343.097 Z" fill="#f2f2f2" style="" transform="matrix(1, 0, 0, 1, 0, 7.105427357601002e-15)"/>
  <ellipse cx="360.206" cy="264.868" rx="26.538" ry="39.344" fill="#f2f2f2" style="" transform="matrix(1, 0, 0, 1, 0, 7.105427357601002e-15)"/>
  <path d="M 364.805 317.427 C 364.636 317.048 364.239 316.902 363.919 317.102 L 361.262 318.759 L 360.351 256.957 L 360.278 256.957 L 358.893 346.072 L 361.664 346.072 L 361.287 320.5 L 364.53 318.477 C 364.851 318.277 364.973 317.807 364.805 317.427 Z" fill="#ccc" style="" transform="matrix(1, 0, 0, 1, 0, 7.105427357601002e-15)"/>
  <path d="M 484.926 276.745 L 484.926 266.781 C 484.926 264.075 483.001 261.881 480.626 261.881 L 458.56 261.881 C 456.185 261.881 454.26 264.075 454.26 266.781 L 454.26 276.745 L 484.926 276.745 Z" fill="#fff" style="" transform="matrix(1, 0, 0, 1, 0, 7.105427357601002e-15)"/>
  <path d="M 454.26 278.309 L 454.26 293.749 C 454.26 296.455 456.185 298.649 458.56 298.649 L 480.626 298.649 C 483.001 298.649 484.926 296.455 484.926 293.749 L 484.926 278.309 L 454.26 278.309 Z" fill="#fff" style="" transform="matrix(1, 0, 0, 1, 0, 7.105427357601002e-15)"/>
  <path d="M 527.192 343.41 L 509.486 343.41 C 505.573 343.405 502.403 339.791 502.399 335.334 L 502.399 286.475 C 502.403 282.017 505.573 278.404 509.486 278.399 L 527.192 278.399 C 531.105 278.404 534.275 282.017 534.28 286.475 L 534.28 335.334 C 534.275 339.791 531.105 343.405 527.192 343.41 Z M 509.486 279.783 C 506.244 279.788 503.617 282.781 503.614 286.475 L 503.614 335.334 C 503.617 339.027 506.244 342.02 509.486 342.024 L 527.192 342.024 C 530.434 342.02 533.061 339.027 533.065 335.334 L 533.065 286.475 C 533.061 282.781 530.434 279.788 527.192 279.783 L 509.486 279.783 Z" style="fill: rgb(85, 75, 100);" transform="matrix(1, 0, 0, 1, 0, 7.105427357601002e-15)"/>
  <path d="M 528.909 174.485 C 528.03 163.29 516.846 157.378 508.777 163.843 C 505.693 166.313 503.721 170.206 503.385 174.485 L 528.909 174.485 Z" fill="#fff" style="" transform="matrix(1, 0, 0, 1, 0, 7.105427357601002e-15)"/>
  <path d="M 503.337 176.049 C 503.511 187.285 514.294 194.094 522.748 188.305 C 526.533 185.712 528.88 181.081 528.957 176.049 L 503.337 176.049 Z" fill="#fff" style="" transform="matrix(1, 0, 0, 1, 0, 7.105427357601002e-15)"/>
  <path d="M 526.903 192.186 L 505.391 192.186 C 502.417 192.186 500.557 188.517 502.045 185.582 C 502.735 184.22 504.011 183.38 505.391 183.38 L 526.903 183.38 C 529.878 183.38 531.737 187.05 530.25 189.985 C 529.56 191.347 528.284 192.186 526.903 192.186 Z" fill="#ccc" style="" transform="matrix(1, 0, 0, 1, 0, 7.105427357601002e-15)"/>
  <path d="M 454.489 293.664 C 451.825 293.664 450.161 296.949 451.493 299.576 C 452.111 300.796 453.253 301.547 454.489 301.547 L 484.697 301.547 C 487.36 301.547 489.024 298.262 487.693 295.635 C 487.075 294.415 485.933 293.664 484.697 293.664 L 454.489 293.664 Z" style="fill: rgb(85, 75, 100);" transform="matrix(1, 0, 0, 1, 0, 7.105427357601002e-15)"/>
  <path d="M 548.319 278.309 L 548.319 293.749 C 548.319 296.455 550.245 298.649 552.619 298.649 L 574.685 298.649 C 577.06 298.649 578.986 296.455 578.986 293.749 L 578.986 278.309 L 548.319 278.309 Z" fill="#fff" style="" transform="matrix(1, 0, 0, 1, 0, 7.105427357601002e-15)"/>
  <path d="M 578.986 276.745 L 578.986 266.781 C 578.986 264.075 577.06 261.881 574.685 261.881 L 552.619 261.881 C 550.245 261.881 548.319 264.075 548.319 266.781 L 548.319 276.745 L 578.986 276.745 Z" fill="#fff" style="" transform="matrix(1, 0, 0, 1, 0, 7.105427357601002e-15)"/>
  <circle cx="459.216" cy="281.83" r="3.379" style="fill: rgb(85, 75, 100);" transform="matrix(0.7449169754981995, 0, 0, 0.8487680554389954, 186.78863525390625, 70.39251708984375)"/>
  <circle cx="298.738" cy="357.528" r="4.713" fill="#fff" style="" transform="matrix(0.7449169754981995, 0, 0, 0.8487680554389954, 186.78863525390625, 70.39251708984375)"/>
  <path d="M 578.528 302.008 L 548.319 302.008 C 545.345 302.008 543.485 298.339 544.973 295.404 C 545.663 294.042 546.939 293.202 548.319 293.202 L 578.528 293.202 C 581.503 293.202 583.361 296.872 581.875 299.807 C 581.184 301.169 579.909 302.008 578.528 302.008 Z" style="fill: rgb(85, 75, 100);" transform="matrix(1, 0, 0, 1, 0, 7.105427357601002e-15)"/>
  <path d="M 619.108 199.763 C 619.108 199.763 611.782 199.171 596.832 198.378 C 579.013 162.845 521.095 154.28 521.095 128.716 L 592.281 128.716 C 607.113 128.716 619.136 142.415 619.136 159.314 L 619.108 199.763 Z" style="fill: rgb(85, 75, 100);" transform="matrix(1, 0, 0, 1, 0, 7.105427357601002e-15)"/>
  <path d="M 557.367 138.057 C 557.032 138.057 556.76 138.367 556.759 138.749 L 556.759 161.86 C 556.76 162.242 557.032 162.552 557.367 162.552 L 570.001 162.552 C 570.337 162.552 570.608 162.242 570.608 161.86 L 570.608 138.749 C 570.608 138.367 570.337 138.057 570.001 138.057 L 557.367 138.057 Z" fill="#f2f2f2" style="" transform="matrix(1, 0, 0, 1, 0, 7.105427357601002e-15)"/>
  <path d="M 592.458 197.899 L 526.208 152.402 C 522.181 150.72 517.762 150.72 513.736 152.402 L 447.486 197.899 C 441.456 200.418 435.066 195.332 435.066 188.015 C 435.066 183.598 437.486 179.65 441.126 178.13 L 513.736 129.977 C 517.762 128.295 522.181 128.295 526.208 129.977 L 598.818 178.13 C 602.457 179.65 604.877 183.598 604.877 188.015 C 604.877 195.332 598.487 200.418 592.458 197.899 Z" style="fill: rgb(85, 75, 100);" transform="matrix(1, 0, 0, 1, 0, 7.105427357601002e-15)"/>
  <path d="M 440.717 278.537 C 440.717 308.406 423.913 318.832 403.191 318.832 C 382.47 318.832 365.667 308.401 365.667 278.537 C 365.667 248.673 403.191 210.674 403.191 210.674 C 403.191 210.674 440.717 248.673 440.717 278.537 Z" fill="#0c66e1" id="svg_122" style="" transform="matrix(1, 0, 0, 1, 0, 7.105427357601002e-15)"/>
  <polygon fill="#3f3d56" id="svg_123" points="401.825 314.264 402.21 289.267 418.204 258.342 402.271 285.345 402.443 274.106 413.465 251.733 402.489 271.131 402.489 271.132 402.8 250.917 414.603 233.105 402.848 247.738 403.042 210.671 401.822 259.741 401.923 257.716 389.921 238.303 401.73 261.602 400.612 284.179 400.579 283.58 386.744 263.149 400.537 285.697 400.397 288.52 400.372 288.563 400.383 288.794 397.546 346.072 401.337 346.072 401.792 316.487 415.55 293.996 401.825 314.264" style="" transform="matrix(1, 0, 0, 1, 0, 7.105427357601002e-15)"/>
  <path d="M 248.184 464.172 C 273.576 437.439 329.932 350.798 344.701 347.419 C 356.373 344.749 375.378 348.105 399.643 345.75 C 423.75 343.41 617.562 340.343 648.394 346.815 C 656.383 348.492 667.044 364.347 672.765 369.85 C 676.608 373.548 684.584 395.712 698.651 397.879 C 716.068 400.561 732.265 465.459 732.265 465.459" id="svg_128" opacity="0.8" style="fill: rgb(172, 172, 172);" transform="matrix(1, 0, 0, 1, 0, 7.105427357601002e-15)"/>
  <path d="M 439.958 138.057 C 439.559 138.056 439.229 137.746 439.201 137.347 C 438.173 123.284 426.551 112.391 412.536 112.353 C 411.727 112.353 410.877 112.395 410.01 112.477 C 409.715 112.505 409.429 112.355 409.282 112.095 C 397.117 90.673 366.463 90.532 354.105 111.843 C 352.788 114.115 351.753 116.54 351.026 119.066 C 350.931 119.4 350.624 119.627 350.279 119.617 L 350.077 119.611 C 349.973 119.608 349.868 119.604 349.762 119.604 C 339.202 119.637 330.091 127.064 327.868 137.451 C 327.794 137.804 327.485 138.057 327.126 138.057 L 276.305 138.057 C 275.721 138.058 275.353 137.424 275.644 136.913 C 275.779 136.676 276.032 136.529 276.305 136.53 L 326.519 136.53 C 329.12 125.74 338.7 118.126 349.736 118.077 C 357.324 93.384 388.637 86.214 406.1 105.172 C 407.717 106.928 409.143 108.854 410.354 110.915 C 411.099 110.856 411.832 110.827 412.536 110.827 C 427.347 110.867 439.628 122.378 440.715 137.239 C 440.744 137.66 440.429 138.025 440.011 138.054 C 439.993 138.056 439.975 138.057 439.958 138.057 Z" fill="#cbcbcb" style="" transform="matrix(1, 0, 0, 1, 0, 7.105427357601002e-15)"/>
  <path d="M 376.958 150.101 L 252.55 150.101 C 251.966 150.101 251.601 149.465 251.893 148.956 C 252.028 148.72 252.279 148.575 252.55 148.575 L 376.958 148.575 C 377.542 148.575 377.907 149.211 377.615 149.719 C 377.48 149.956 377.23 150.101 376.958 150.101 Z" fill="#cbcbcb" style="" transform="matrix(1, 0, 0, 1, 0, 7.105427357601002e-15)"/>
  <path d="M 310.45 162.693 L 268.728 162.693 C 268.144 162.693 267.779 162.058 268.071 161.548 C 268.206 161.312 268.456 161.167 268.728 161.167 L 310.45 161.167 C 311.034 161.167 311.399 161.803 311.107 162.312 C 310.972 162.548 310.721 162.693 310.45 162.693 Z" fill="#cbcbcb" style="" transform="matrix(1, 0, 0, 1, 0, 7.105427357601002e-15)"/>
</svg>