<?xml version="1.0" encoding="utf-8"?>
<svg viewBox="-0.0002 271.4748 243.4998 292.0312" xmlns="http://www.w3.org/2000/svg">
  <defs/>
  <path d="M 94.015 537.461 L 87.674 544.656 L 92.714 534.233 C 88.744 525.356 82.25 517.686 82.25 517.686 C 82.25 517.686 68.778 533.598 68.778 546.106 C 68.778 558.612 74.809 562.98 82.25 562.98 C 89.69 562.98 95.722 558.612 95.722 546.106 C 95.722 543.321 95.053 540.369 94.015 537.461 Z" fill="#f2f2f2" style="" transform="matrix(1, 0, 0, 1, 3.552713678800501e-15, 0)"/>
  <path d="M 86.043 545.046 L 86.043 545.664 C 86.014 552.829 85.034 558.42 83.11 562.358 C 83.082 562.417 83.053 562.47 83.026 562.529 L 82.81 562.368 L 82.605 562.209 C 84.739 557.957 85.494 551.947 85.522 545.697 C 85.524 545.496 85.526 545.291 85.524 545.085 C 85.517 542.441 85.385 539.764 85.175 537.163 C 85.16 536.963 85.142 536.758 85.125 536.552 C 84.832 533.123 84.412 529.845 83.982 526.997 C 83.951 526.797 83.919 526.595 83.887 526.396 C 83.142 521.581 82.382 518.091 82.208 517.319 C 82.189 517.225 82.177 517.173 82.174 517.161 L 82.409 517.078 L 82.411 517.075 L 82.649 516.993 C 82.652 517.005 82.694 517.178 82.763 517.502 C 83.028 518.711 83.716 521.991 84.392 526.319 C 84.422 526.516 84.455 526.717 84.484 526.919 C 84.835 529.228 85.179 531.81 85.451 534.521 C 85.522 535.201 85.583 535.873 85.638 536.536 C 85.657 536.738 85.675 536.943 85.689 537.146 C 85.918 539.958 86.036 542.59 86.043 545.046 Z" fill="#fff" style="" transform="matrix(1, 0, 0, 1, 3.552713678800501e-15, 0)"/>
  <path d="M 84.392 526.319 C 84.226 526.348 84.058 526.375 83.887 526.396 C 83.423 526.455 82.958 526.485 82.491 526.485 C 80.504 526.489 78.541 525.942 76.747 524.886 C 76.644 525.047 76.539 525.209 76.433 525.374 C 78.319 526.509 80.392 527.097 82.491 527.095 C 82.988 527.095 83.486 527.061 83.982 526.997 C 84.149 526.976 84.318 526.949 84.484 526.917 C 85.853 526.676 87.184 526.179 88.433 525.445 C 88.326 525.276 88.222 525.11 88.12 524.95 C 86.939 525.631 85.683 526.092 84.392 526.319 Z" fill="#fff" style="" transform="matrix(1, 0, 0, 1, 3.552713678800501e-15, 0)"/>
  <path d="M 85.638 536.536 C 85.466 536.547 85.295 536.552 85.125 536.552 C 85.073 536.555 85.018 536.555 84.967 536.555 C 80.595 536.555 76.501 533.919 74.004 529.497 C 73.905 529.677 73.806 529.857 73.709 530.041 C 76.311 534.514 80.502 537.165 84.967 537.167 C 85.036 537.167 85.105 537.167 85.175 537.163 C 85.348 537.16 85.519 537.155 85.689 537.146 C 88.333 536.977 90.882 535.876 93.03 533.971 C 92.951 533.792 92.872 533.611 92.789 533.431 C 90.701 535.301 88.216 536.38 85.638 536.536 Z" fill="#fff" style="" transform="matrix(1, 0, 0, 1, 3.552713678800501e-15, 0)"/>
  <path d="M 86.043 545.046 C 85.87 545.066 85.696 545.078 85.524 545.085 C 85.338 545.095 85.152 545.102 84.967 545.102 C 79.023 545.093 73.794 540.257 72.128 533.223 C 72.016 533.47 71.904 533.714 71.799 533.962 C 73.674 540.969 78.981 545.704 84.967 545.713 C 85.152 545.713 85.338 545.71 85.522 545.697 C 85.696 545.69 85.87 545.679 86.043 545.664 C 89.544 545.326 92.809 543.362 95.179 540.167 C 95.126 539.941 95.067 539.717 95.008 539.492 C 92.72 542.709 89.503 544.703 86.043 545.046 Z" fill="#fff" style="" transform="matrix(1, 0, 0, 1, 3.552713678800501e-15, 0)"/>
  <path d="M 243.147 287.113 L 0.352 287.113 C 0.08 287.112 -0.088 286.75 0.048 286.46 C 0.111 286.327 0.226 286.245 0.352 286.245 L 243.147 286.245 C 243.419 286.246 243.588 286.61 243.451 286.897 C 243.389 287.031 243.273 287.112 243.147 287.113 Z" fill="#cacaca" style="" transform="matrix(1, 0, 0, 1, 3.552713678800501e-15, 0)"/>
  <circle cx="304.077" cy="295.111" r="4.465" fill="#3f3d56" style="" transform="matrix(0.8681740164756776, 0, 0, 1.0702619552612305, -255.70785522460938, -39.59255599975589)"/>
  <circle cx="319.5" cy="295.111" r="4.465" fill="#3f3d56" style="" transform="matrix(0.8681740164756776, 0, 0, 1.0702619552612305, -255.70785522460938, -39.59255599975589)"/>
  <circle cx="334.925" cy="295.111" r="4.465" fill="#3f3d56" style="" transform="matrix(0.8681740164756776, 0, 0, 1.0702619552612305, -255.70785522460938, -39.59255599975589)"/>
  <path d="M 235.126 274.397 L 225.61 274.397 C 225.068 274.395 224.731 273.67 225.003 273.091 C 225.129 272.825 225.36 272.66 225.61 272.659 L 235.126 272.659 C 235.667 272.657 236.008 273.381 235.738 273.96 C 235.613 274.232 235.378 274.399 235.126 274.397 Z" fill="#3f3d56" style="" transform="matrix(1, 0, 0, 1, 3.552713678800501e-15, 0)"/>
  <path d="M 235.126 277.655 L 225.61 277.655 C 225.068 277.653 224.731 276.927 225.003 276.35 C 225.129 276.083 225.36 275.918 225.61 275.917 L 235.126 275.917 C 235.667 275.915 236.008 276.637 235.738 277.219 C 235.613 277.489 235.378 277.656 235.126 277.655 Z" fill="#3f3d56" style="" transform="matrix(1, 0, 0, 1, 3.552713678800501e-15, 0)"/>
  <path d="M 235.126 280.914 L 225.61 280.914 C 225.068 280.911 224.731 280.185 225.003 279.608 C 225.129 279.341 225.36 279.177 225.61 279.176 L 235.126 279.176 C 235.667 279.174 236.008 279.896 235.738 280.476 C 235.613 280.748 235.378 280.915 235.126 280.914 Z" fill="#3f3d56" style="" transform="matrix(1, 0, 0, 1, 3.552713678800501e-15, 0)"/>
  <rect x="7.313" y="306.76" width="222.502" height="145.324" fill="#f0f0f0" style="" transform="matrix(1, 0, 0, 1, 3.552713678800501e-15, 0)"/>
  <path d="M 229.816 333.961 L 229.816 332.536 L 186.503 332.536 L 186.503 306.76 L 185.347 306.76 L 185.347 332.536 L 142.035 332.536 L 142.035 306.76 L 140.879 306.76 L 140.879 332.536 L 97.567 332.536 L 97.567 306.76 L 96.41 306.76 L 96.41 332.536 L 53.098 332.536 L 53.098 306.76 L 51.942 306.76 L 51.942 332.536 L 7.313 332.536 L 7.313 333.961 L 51.942 333.961 L 51.942 362.439 L 7.313 362.439 L 7.313 363.864 L 51.942 363.864 L 51.942 392.341 L 7.313 392.341 L 7.313 393.767 L 51.942 393.767 L 51.942 422.239 L 7.313 422.239 L 7.313 423.664 L 51.942 423.664 L 51.942 452.085 L 53.098 452.085 L 53.098 423.664 L 96.41 423.664 L 96.41 452.085 L 97.567 452.085 L 97.567 423.664 L 140.879 423.664 L 140.879 452.085 L 142.035 452.085 L 142.035 423.664 L 185.347 423.664 L 185.347 452.085 L 186.503 452.085 L 186.503 423.664 L 229.816 423.664 L 229.816 422.239 L 186.503 422.239 L 186.503 393.767 L 229.816 393.767 L 229.816 392.341 L 186.503 392.341 L 186.503 363.864 L 229.816 363.864 L 229.816 362.439 L 186.503 362.439 L 186.503 333.961 L 229.816 333.961 Z M 96.41 422.239 L 53.098 422.239 L 53.098 393.767 L 96.41 393.767 L 96.41 422.239 Z M 96.41 392.341 L 53.098 392.341 L 53.098 363.864 L 96.41 363.864 L 96.41 392.341 Z M 96.41 362.439 L 53.098 362.439 L 53.098 333.961 L 96.41 333.961 L 96.41 362.439 Z M 140.879 422.239 L 97.567 422.239 L 97.567 393.767 L 140.879 393.767 L 140.879 422.239 Z M 140.879 392.341 L 97.567 392.341 L 97.567 363.864 L 140.879 363.864 L 140.879 392.341 Z M 140.879 362.439 L 97.567 362.439 L 97.567 333.961 L 140.879 333.961 L 140.879 362.439 Z M 185.347 422.239 L 142.035 422.239 L 142.035 393.767 L 185.347 393.767 L 185.347 422.239 Z M 185.347 392.341 L 142.035 392.341 L 142.035 363.864 L 185.347 363.864 L 185.347 392.341 Z M 185.347 362.439 L 142.035 362.439 L 142.035 333.961 L 185.347 333.961 L 185.347 362.439 Z" fill="#fff" style="" transform="matrix(1, 0, 0, 1, 3.552713678800501e-15, 0)"/>
  <rect x="61.714" y="340.887" width="14.886" height="17.765" fill="#cacaca" style="" transform="matrix(1, 0, 0, 1, 3.552713678800501e-15, 0)"/>
  <rect x="198.76" y="398.412" width="14.886" height="17.765" fill="#cacaca" style="" transform="matrix(1, 0, 0, 1, 3.552713678800501e-15, 0)"/>
  <rect x="66.339" y="427.952" width="14.886" height="17.765" fill="#cacaca" style="" transform="matrix(1, 0, 0, 1, 3.552713678800501e-15, 0)"/>
  <rect x="70.738" y="337.591" width="14.886" height="17.765" style="fill: rgb(12, 102, 225);" transform="matrix(1, 0, 0, 1, 3.552713678800501e-15, 0)"/>
  <polygon points="155.596 411.438 173.26 392.037 178.472 395.22 157.286 422.613 155.596 411.438" fill="#ffb6b6" style="" transform="matrix(1, 0, 0, 1, 3.552713678800501e-15, 0)"/>
  <circle cx="496.783" cy="404.683" r="4.842" fill="#ffb6b6" style="" transform="matrix(0.8681740164756776, 0, 0, 1.0702619552612305, -255.70785522460938, -39.59255599975589)"/>
  <polygon points="139.063 557.469 134.883 557.469 132.894 537.594 139.063 537.594 139.063 557.469" fill="#ffb6b6" style="" transform="matrix(1, 0, 0, 1, 3.552713678800501e-15, 0)"/>
  <path d="M 140.129 562.462 L 126.652 562.462 L 126.652 562.252 C 126.652 558.681 129 555.785 131.897 555.785 L 140.129 555.786 L 140.129 562.462 Z" fill="#2f2e41" style="" transform="matrix(1, 0, 0, 1, 3.552713678800501e-15, 0)"/>
  <polygon points="123.928 557.469 119.749 557.469 117.76 537.594 123.929 537.594 123.928 557.469" fill="#ffb6b6" style="" transform="matrix(1, 0, 0, 1, 3.552713678800501e-15, 0)"/>
  <path d="M 124.994 562.462 L 111.518 562.462 L 111.518 562.252 C 111.518 558.681 113.866 555.785 116.763 555.785 L 124.994 555.786 L 124.994 562.462 Z" fill="#2f2e41" style="" transform="matrix(1, 0, 0, 1, 3.552713678800501e-15, 0)"/>
  <path d="M 142.573 443.862 C 142.573 443.862 153.082 442.825 149.72 465.627 C 146.356 488.429 139.39 550.806 139.39 550.806 L 133.074 551.877 L 129.344 468.668 L 126.52 551.877 L 118.488 550.806 L 110.623 461.482 C 110.623 461.482 108.099 454.299 110.622 449.339 C 113.145 444.379 142.573 443.862 142.573 443.862 Z" fill="#2f2e41" style="" transform="matrix(1, 0, 0, 1, 3.552713678800501e-15, 0)"/>
  <path d="M 135.846 387.374 L 138.764 385.446 C 138.764 385.446 145.954 384.69 148.888 395.1 L 156.669 409.588 L 169.28 396.115 L 174.745 400.778 L 158.85 424.163 L 152.241 425.205 L 137.948 402.403 L 135.846 387.374 Z" fill="#3f3d56" style="" transform="matrix(1, 0, 0, 1, 3.552713678800501e-15, 0)"/>
  <path d="M 125.258 345.327 C 113.27 345.327 109.915 361.561 109.915 370.721 C 109.915 379.879 116.784 378.494 125.258 378.494 C 128.896 378.494 132.236 378.746 134.865 378.314 L 136.13 374.508 L 137.148 377.661 C 139.307 376.683 140.602 374.696 140.602 370.721 C 140.602 361.561 137.66 345.327 125.258 345.327 Z" fill="#2f2e41" style="" transform="matrix(1, 0, 0, 1, 3.552713678800501e-15, 0)"/>
  <circle cx="438.754" cy="378.733" r="11.893" fill="#ffb6b6" style="" transform="matrix(0.8681740164756776, 0, 0, 1.0702619552612305, -255.70785522460938, -39.59255599975589)"/>
  <path d="M 113.277 364.501 L 117.361 364.501 L 119.164 358.282 L 119.523 364.501 L 121.475 364.501 L 122.526 360.874 L 122.736 364.501 L 137.24 364.501 C 137.24 357.059 132.346 351.027 126.309 351.027 L 124.208 351.027 C 118.171 351.027 113.277 357.059 113.277 364.501 Z" fill="#2f2e41" style="" transform="matrix(1, 0, 0, 1, 3.552713678800501e-15, 0)"/>
  <rect x="167.426" y="373.868" width="14.886" height="17.765" style="fill: rgb(12, 102, 225);" transform="matrix(1, 0, 0, 1, 3.552713678800501e-15, 0)"/>
  <path d="M 145.839 439.172 C 144.254 439.196 139.48 404.268 139.48 404.268 L 138.764 385.446 L 133.547 385.231 L 133.547 384.807 C 133.547 383.039 132.383 381.603 130.949 381.603 L 121.012 381.603 C 119.642 381.604 118.507 382.918 118.421 384.603 L 114.33 384.433 L 107.244 412.187 C 107.244 412.187 113.774 437.975 110.622 449.339 C 110.622 449.339 141.326 452.59 147.204 445.376 C 147.204 445.376 147.425 439.147 145.839 439.172 Z" fill="#3f3d56" style="" transform="matrix(1, 0, 0, 1, 3.552713678800501e-15, 0)"/>
  <path d="M 116.088 387.891 L 114.33 384.433 C 114.33 384.433 108.608 382.69 106.253 387.364 C 103.898 392.037 96.973 417.362 96.973 417.362 L 104.12 420.471 L 112.229 406.456 L 116.088 387.891 Z" fill="#3f3d56" style="" transform="matrix(1, 0, 0, 1, 3.552713678800501e-15, 0)"/>
  <rect x="119.083" y="405.999" width="14.886" height="17.765" style="fill: rgb(12, 102, 225);" transform="matrix(1, 0, 0, 1, 3.552713678800501e-15, 0)"/>
  <path d="M 107.662 412.421 L 102.482 411.745 C 101.083 415.424 102.854 419.749 106.088 420.543 L 126.579 425.586 L 124.442 417.471 L 107.662 412.421 Z" fill="#ffb6b6" style="" transform="matrix(1, 0, 0, 1, 3.552713678800501e-15, 0)"/>
  <circle cx="440.406" cy="429.886" r="4.842" fill="#ffb6b6" style="" transform="matrix(0.8681740164756776, 0, 0, 1.0702619552612305, -255.70785522460938, -39.59255599975589)"/>
  <path d="M 121.393 425.837 L 105.782 421.44 C 103.482 420.784 101.626 418.692 100.892 415.925 L 100.261 413.528 L 104.313 409.596 L 122.874 415.992 L 121.393 425.837 Z" fill="#3f3d56" style="" transform="matrix(1, 0, 0, 1, 3.552713678800501e-15, 0)"/>
  <path d="M 209.116 563.506 L 48.948 563.506 C 48.624 563.506 48.422 563.074 48.584 562.729 C 48.659 562.567 48.798 562.469 48.948 562.469 L 209.116 562.469 C 209.44 562.469 209.642 562.901 209.48 563.246 C 209.405 563.408 209.266 563.506 209.116 563.506 Z" fill="#cacaca" style="" transform="matrix(1, 0, 0, 1, 3.552713678800501e-15, 0)"/>
</svg>